{
.appVersion = "3102";
DisplayStrings = (
"n¤¦§ª«¬­°±µ¶¹²³/foursuperior »×÷/guilsinglleft/guilsinglright/fraction/divisionslash \012¼½¾",
"¼",
"",
"0123456879\012/zero.dnom/one.dnom/two.dnom/three.dnom/four.dnom/five.dnom/six.dnom/seven.dnom/eight.dnom/nine.dnom \012/zero.numr/one.numr/two.numr/three.numr/four.numr/five.numr/six.numr/seven.numr/eight.numr/nine.numr \012¹²³/foursuperior \012/fraction ½¼¾"
);
copyright = "Copyright 2020 The League Gothic Project Authors (https://github.com/theleagueof/league-gothic)";
customParameters = (
{
name = "Use Typo Metrics";
value = 1;
},
{
name = "Enforce Compatibility Check";
value = 1;
},
{
name = blueFuzz;
value = 0;
},
{
name = blueShift;
value = 7;
},
{
name = fsType;
value = (
);
},
{
name = blueScale;
value = 0;
},
{
name = "Axis Mappings";
value = {
wdth = {
75 = 50;
87.5 = 75;
100 = 100;
};
};
},
{
name = panose;
value = (
0,
0,
0,
0,
0,
0,
0,
0,
0,
0
);
},
{
name = licenseURL;
value = "https://scripts.sil.org/OFL";
},
{
name = license;
value = "This Font Software is licensed under the SIL Open Font License, Version 1.1. This license is available with a FAQ at: https://scripts.sil.org/OFL";
},
{
name = trademark;
value = "League Gothic is a trademark of The League of Moveable Type.";
},
{
name = Axes;
value = (
{
Name = Width;
Tag = wdth;
}
);
}
);
date = "2020-10-20 01:55:27 +0000";
designer = "The League of Moveable Type";
designerURL = "http://theleagueofmoveabletype.com";
disablesNiceNames = 1;
familyName = "League Gothic";
featurePrefixes = (
{
automatic = 1;
code = "languagesystem DFLT dflt;\012\012languagesystem latn dflt;\012languagesystem latn AZE;\012languagesystem latn CRT;\012languagesystem latn KAZ;\012languagesystem latn TAT;\012languagesystem latn TRK;\012languagesystem latn ROM;\012languagesystem latn MOL;\012languagesystem latn CAT;\012";
name = Languagesystems;
}
);
features = (
{
automatic = 1;
code = "feature locl;\012feature ordn;\012feature case;\012feature ss01;\012";
name = aalt;
},
{

glyphs = (
{
color = 6;
glyphname = A;
lastChange = "2021-11-24 16:09:43 +0000";
layers = (
{
anchors = (
{
name = bottom;
position = "{389, 0}";
},
{
name = ogonek;
position = "{743, 0}";
},
{
name = top;
position = "{389, 1470}";
}
);
layerId = "1AB499B8-18A8-432D-A211-B6882CCB886D";
paths = (
{
closed = 1;
nodes = (
"245 0 LINE",
"285 300 LINE",
"493 300 LINE",
"533 0 LINE",
"743 0 LINE",
"521 1470 LINE",
"257 1470 LINE",
"35 0 LINE"
);
},
{
closed = 1;
nodes = (
"377 1022 LINE",
"383 1100 LINE",
"395 1100 LINE",
"401 1022 LINE",
"463 528 LINE",
"315 528 LINE"
);
}
);
width = 778;
},
{
anchors = (
{
name = bottom;
position = "{260, 0}";
},
{
name = ogonek;
position = "{500, 0}";
},
{
name = top;
position = "{262, 1470}";
}
);
layerId = "6463F33F-C059-4755-9C76-9F35D70521A0";
paths = (
{
closed = 1;
nodes = (
"192 0 LINE",
"214 300 LINE",
"306 300 LINE",
"328 0 LINE",
"500 0 LINE",
"358 1470 LINE",
"164 1470 LINE",
"20 0 LINE"
);
},
{
closed = 1;
nodes = (
"258 1081 LINE",
"258 1112 LINE",
"262 1112 LINE",
"262 1081 LINE",
"295 506 LINE",
"227 506 LINE"
);
}
);
width = 520;
}
);
leftKerningGroup = A;
rightKerningGroup = A;
unicode = 0041;
},
{
color = 6;
glyphname = AE;
lastChange = "2021-11-24 16:09:43 +0000";
layers = (
{
anchors = (
{
name = bottom;
position = "{556, 0}";
},
{
name = top;
position = "{557, 1470}";
}
);
layerId = "1AB499B8-18A8-432D-A211-B6882CCB886D";
paths = (
{
closed = 1;
nodes = (
"249 0 LINE",
"337 300 LINE",
"559 300 LINE",
"559 0 LINE",
"1053 0 LINE",
"1053 222 LINE",
"775 222 LINE",
"775 626 LINE",
"975 626 LINE",
"975 862 LINE",
"775 862 LINE",
"775 1248 LINE",
"1053 1248 LINE",
"1053 1470 LINE",
"445 1470 LINE",
"35 0 LINE"
);
},
{
closed = 1;
nodes = (
"549 1030 LINE",
"559 1030 LINE",
"559 528 LINE",
"403 528 LINE"
);
}
);
width = 1133;
},
{
anchors = (
{
name = bottom;
position = "{380, 0}";
},
{
name = top;
position = "{380, 1470}";
}
);
layerId = "6463F33F-C059-4755-9C76-9F35D70521A0";
paths = (
{
closed = 1;
nodes = (
"184 0 LINE",
"236 300 LINE",
"334 300 LINE",
"334 0 LINE",
"666 0 LINE",
"666 222 LINE",
"500 222 LINE",
"500 626 LINE",
"620 626 LINE",
"620 862 LINE",
"500 862 LINE",
"500 1248 LINE",
"666 1248 LINE",
"666 1470 LINE",
"266 1470 LINE",
"20 0 LINE"
);
},
{
closed = 1;
nodes = (
"333 1076 LINE",
"334 1076 LINE",
"334 528 LINE",
"270 528 LINE"
);
}
);
width = 706;
}
);
leftKerningGroup = A;
leftMetricsKey = A;
rightKerningGroup = E;
rightMetricsKey = E;
unicode = 00C6;
},
{
color = 6;
glyphname = B;
lastChange = "2021-11-24 16:09:43 +0000";
layers = (
{
anchors = (
{
name = bottom;
position = "{364, 0}";
},
{
name = top;
position = "{364, 1470}";
}
);
layerId = "1AB499B8-18A8-432D-A211-B6882CCB886D";
paths = (
{
closed = 1;
nodes = (
"336 0 LINE SMOOTH",
"559 0 OFFCURVE",
"680 169 OFFCURVE",
"680 416 CURVE SMOOTH",
"680 582 OFFCURVE",
"636 717 OFFCURVE",
"530 776 CURVE",
"635 842 OFFCURVE",
"664 948 OFFCURVE",
"664 1090 CURVE SMOOTH",
"664 1356 OFFCURVE",
"524 1470 OFFCURVE",
"300 1470 CURVE SMOOTH",
"80 1470 LINE",
"80 0 LINE"
);
},
{
closed = 1;
nodes = (
"296 666 LINE",
"426 666 OFFCURVE",
"456 588 OFFCURVE",
"456 440 CURVE SMOOTH",
"456 295 OFFCURVE",
"427 214 OFFCURVE",
"296 214 CURVE"
);
},
{
closed = 1;
nodes = (
"296 1256 LINE",
"415 1256 OFFCURVE",
"456 1194 OFFCURVE",
"456 1062 CURVE SMOOTH",
"456 931 OFFCURVE",
"417 864 OFFCURVE",
"296 864 CURVE"
);
}
);
width = 728;
},
{
anchors = (
{
name = bottom;
position = "{258, 0}";
},
{
name = top;
position = "{258, 1470}";
}
);
layerId = "6463F33F-C059-4755-9C76-9F35D70521A0";
paths = (
{
closed = 1;
nodes = (
"208 0 LINE SMOOTH",
"360 0 OFFCURVE",
"436 178 OFFCURVE",
"436 416 CURVE SMOOTH",
"436 593 OFFCURVE",
"415 725 OFFCURVE",
"340 776 CURVE",
"417 833 OFFCURVE",
"432 960 OFFCURVE",
"432 1090 CURVE SMOOTH",
"432 1311 OFFCURVE",
"368 1470 OFFCURVE",
"186 1470 CURVE SMOOTH",
"40 1470 LINE",
"40 0 LINE"
);
},
{
closed = 1;
nodes = (
"206 666 LINE",
"255 666 OFFCURVE",
"268 571 OFFCURVE",
"268 440 CURVE SMOOTH",
"268 307 OFFCURVE",
"254 214 OFFCURVE",
"206 214 CURVE"
);
},
{
closed = 1;
nodes = (
"206 1256 LINE",
"256 1256 OFFCURVE",
"263 1170 OFFCURVE",
"263 1060 CURVE SMOOTH",
"263 957 OFFCURVE",
"255 864 OFFCURVE",
"206 864 CURVE"
);
}
);
width = 506;
}
);
leftKerningGroup = H;
leftMetricsKey = H;
unicode = 0042;
},
{
color = 6;
glyphname = C;
lastChange = "2021-11-24 16:09:43 +0000";
layers = (
{
anchors = (
{
name = bottom;
position = "{350, 0}";
},
{
name = top;
position = "{350, 1470}";
}
);
layerId = "1AB499B8-18A8-432D-A211-B6882CCB886D";
paths = (
{
closed = 1;
nodes = (
"536 -16 OFFCURVE",
"646 122 OFFCURVE",
"646 302 CURVE SMOOTH",
"646 504 LINE",
"444 504 LINE",
"444 302 LINE SMOOTH",
"444 240 OFFCURVE",
"422 194 OFFCURVE",
"362 194 CURVE SMOOTH",
"312 194 OFFCURVE",
"286 243 OFFCURVE",
"286 302 CURVE SMOOTH",
"286 1168 LINE SMOOTH",
"286 1227 OFFCURVE",
"309 1276 OFFCURVE",
"362 1276 CURVE SMOOTH",
"421 1276 OFFCURVE",
"444 1229 OFFCURVE",
"444 1168 CURVE SMOOTH",
"444 966 LINE",
"646 966 LINE",
"646 1168 LINE SMOOTH",
"646 1343 OFFCURVE",
"536 1486 OFFCURVE",
"358 1486 CURVE SMOOTH",
"179 1486 OFFCURVE",
"70 1348 OFFCURVE",
"70 1168 CURVE SMOOTH",
"70 302 LINE SMOOTH",
"70 119 OFFCURVE",
"174 -16 OFFCURVE",
"358 -16 CURVE SMOOTH"
);
}
);
width = 716;
},
{
anchors = (
{
name = bottom;
position = "{250, 0}";
},
{
name = top;
position = "{226, 1470}";
}
);
layerId = "6463F33F-C059-4755-9C76-9F35D70521A0";
paths = (
{
closed = 1;
nodes = (
"378 -16 OFFCURVE",
"424 128 OFFCURVE",
"424 282 CURVE SMOOTH",
"424 504 LINE",
"262 504 LINE",
"262 274 LINE SMOOTH",
"262 242 OFFCURVE",
"260 194 OFFCURVE",
"230 194 CURVE SMOOTH",
"202 194 OFFCURVE",
"200 242 OFFCURVE",
"200 274 CURVE SMOOTH",
"200 1196 LINE SMOOTH",
"200 1228 OFFCURVE",
"200 1276 OFFCURVE",
"230 1276 CURVE SMOOTH",
"260 1276 OFFCURVE",
"262 1228 OFFCURVE",
"262 1196 CURVE SMOOTH",
"262 966 LINE",
"424 966 LINE",
"424 1188 LINE SMOOTH",
"424 1292 OFFCURVE",
"386 1486 OFFCURVE",
"226 1486 CURVE SMOOTH",
"76 1486 OFFCURVE",
"30 1318 OFFCURVE",
"30 1188 CURVE SMOOTH",
"30 282 LINE SMOOTH",
"30 152 OFFCURVE",
"70 -16 OFFCURVE",
"226 -16 CURVE SMOOTH"
);
}
);
width = 454;
}
);
leftKerningGroup = O;
leftMetricsKey = O;
rightKerningGroup = O;
rightMetricsKey = O;
unicode = 0043;
},
{
color = 6;
glyphname = D;
lastChange = "2021-11-24 16:09:43 +0000";
layers = (
{
anchors = (
{
name = bottom;
position = "{372, 0}";
},
{
name = center;
position = "{372, 736}";
},
{
name = top;
position = "{372, 1470}";
}
);
layerId = "1AB499B8-18A8-432D-A211-B6882CCB886D";
paths = (
{
closed = 1;
nodes = (
"300 0 LINE SMOOTH",
"578 0 OFFCURVE",
"675 151 OFFCURVE",
"675 734 CURVE SMOOTH",
"675 1315 OFFCURVE",
"578 1470 OFFCURVE",
"300 1470 CURVE SMOOTH",
"80 1470 LINE",
"80 0 LINE"
);
},
{
closed = 1;
nodes = (
"296 1254 LINE",
"454 1254 OFFCURVE",
"456 1062 OFFCURVE",
"456 737 CURVE SMOOTH",
"456 415 OFFCURVE",
"455 216 OFFCURVE",
"296 216 CURVE"
);
}
);
width = 744;
},
{
anchors = (
{
name = bottom;
position = "{263, 0}";
},
{
name = center;
position = "{264, 736}";
},
{
name = top;
position = "{264, 1470}";
}
);
layerId = "6463F33F-C059-4755-9C76-9F35D70521A0";
paths = (
{
closed = 1;
nodes = (
"171 0 LINE SMOOTH",
"390 0 OFFCURVE",
"446 260 OFFCURVE",
"446 734 CURVE SMOOTH",
"446 1190 OFFCURVE",
"405 1470 OFFCURVE",
"168 1470 CURVE SMOOTH",
"40 1470 LINE",
"40 0 LINE"
);
},
{
closed = 1;
nodes = (
"206 1254 LINE",
"271 1254 OFFCURVE",
"276 1043 OFFCURVE",
"276 733 CURVE SMOOTH",
"276 422 OFFCURVE",
"271 216 OFFCURVE",
"206 216 CURVE"
);
}
);
width = 516;
}
);
leftKerningGroup = H;
leftMetricsKey = H;
unicode = 0044;
},
{
color = 3;
glyphname = Eth;
lastChange = "2021-11-24 16:09:43 +0000";
layers = (
{
components = (
{
name = D;
}
);
layerId = "1AB499B8-18A8-432D-A211-B6882CCB886D";
paths = (
{
closed = 1;
nodes = (
"390 634 LINE",
"390 824 LINE",
"32 824 LINE",
"32 634 LINE"
);
}
);
width = 744;
},
{
components = (
{
name = D;
}
);
layerId = "6463F33F-C059-4755-9C76-9F35D70521A0";
paths = (
{
closed = 1;
nodes = (
"254 634 LINE",
"254 824 LINE",
"12 824 LINE",
"12 634 LINE"
);
}
);
width = 516;
}
);
rightKerningGroup = D;
rightMetricsKey = D;
unicode = 00D0;
},
{
color = 6;
glyphname = E;
lastChange = "2021-11-24 16:09:43 +0000";
layers = (
{
anchors = (
{
name = bottom;
position = "{308, 0}";
},
{
name = ogonek;
position = "{574, 0}";
},
{
name = top;
position = "{308, 1470}";
},
{
name = topleft;
position = "{20, 1470}";
}
);
layerId = "1AB499B8-18A8-432D-A211-B6882CCB886D";
paths = (
{
closed = 1;
nodes = (
"574 0 LINE",
"574 222 LINE",
"296 222 LINE",
"296 636 LINE",
"496 636 LINE",
"496 852 LINE",
"296 852 LINE",
"296 1248 LINE",
"574 1248 LINE",
"574 1470 LINE",
"80 1470 LINE",
"80 0 LINE"
);
}
);
width = 654;
},
{
anchors = (
{
name = bottom;
position = "{224, 0}";
},
{
name = ogonek;
position = "{372, 0}";
},
{
name = top;
position = "{224, 1470}";
},
{
name = topleft;
position = "{30, 1470}";
}
);
layerId = "6463F33F-C059-4755-9C76-9F35D70521A0";
paths = (
{
closed = 1;
nodes = (
"372 0 LINE",
"372 222 LINE",
"206 222 LINE",
"206 636 LINE",
"336 636 LINE",
"336 852 LINE",
"206 852 LINE",
"206 1248 LINE",
"372 1248 LINE",
"372 1470 LINE",
"40 1470 LINE",
"40 0 LINE"
);
}
);
width = 412;
}
);
leftKerningGroup = H;
leftMetricsKey = H;
rightKerningGroup = E;
rightMetricsKey = H;
unicode = 0045;
},
{
color = 6;
glyphname = Eacute;
lastChange = "2021-11-24 16:09:43 +0000";
layers = (
{
layerId = "1AB499B8-18A8-432D-A211-B6882CCB886D";
paths = (
{
closed = 1;
nodes = (
"574 0 LINE",
"574 222 LINE",
"296 222 LINE",
"296 626 LINE",
"496 626 LINE",
"496 862 LINE",
"296 862 LINE",
"296 1248 LINE",
"574 1248 LINE",
"574 1470 LINE",
"80 1470 LINE",
"80 0 LINE"
);
},
{
closed = 1;
nodes = (
"386 1600 LINE",
"544 1780 LINE",
"334 1780 LINE",
"230 1600 LINE"
);
}
);
width = 614;
},
{
layerId = "6463F33F-C059-4755-9C76-9F35D70521A0";
paths = (
{
closed = 1;
nodes = (
"362 0 LINE",
"362 222 LINE",
"196 222 LINE",
"196 626 LINE",
"316 626 LINE",
"316 862 LINE",
"196 862 LINE",
"196 1248 LINE",
"362 1248 LINE",
"362 1470 LINE",
"30 1470 LINE",
"30 0 LINE"
);
},
{
closed = 1;
nodes = (
"248 1600 LINE",
"342 1780 LINE",
"182 1780 LINE",
"120 1600 LINE"
);
}
);
width = 428;
}
);
rightKerningGroup = E;
unicode = 00C9;
},
{
color = 6;
glyphname = F;
lastChange = "2021-11-24 16:09:43 +0000";
layers = (
{
anchors = (
{
name = bottom;
position = "{301, 0}";
},
{
name = top;
position = "{301, 1470}";
}
);
layerId = "1AB499B8-18A8-432D-A211-B6882CCB886D";
paths = (
{
closed = 1;
nodes = (
"296 0 LINE",
"296 640 LINE",
"496 640 LINE",
"496 862 LINE",
"296 862 LINE",
"296 1248 LINE",
"594 1248 LINE",
"594 1470 LINE",
"80 1470 LINE",
"80 0 LINE"
);
}
);
width = 602;
},
{
anchors = (
{
name = bottom;
position = "{221, 0}";
},
{
name = top;
position = "{221, 1470}";
}
);
layerId = "6463F33F-C059-4755-9C76-9F35D70521A0";
paths = (
{
closed = 1;
nodes = (
"206 0 LINE",
"206 640 LINE",
"326 640 LINE",
"326 862 LINE",
"206 862 LINE",
"206 1248 LINE",
"384 1248 LINE",
"384 1470 LINE",
"40 1470 LINE",
"40 0 LINE"
);
}
);
width = 432;
}
);
leftKerningGroup = H;
leftMetricsKey = H;
rightKerningGroup = F;
unicode = 0046;
},
{
color = 6;
glyphname = G;
lastChange = "2021-11-24 16:09:43 +0000";
layers = (
{
anchors = (
{
name = bottom;
position = "{364, 0}";
},
{
name = top;
position = "{364, 1470}";
}
);
layerId = "1AB499B8-18A8-432D-A211-B6882CCB886D";
paths = (
{
closed = 1;
nodes = (
"394 -16 OFFCURVE",
"455 20 OFFCURVE",
"492 80 CURVE",
"518 0 LINE",
"646 0 LINE",
"646 732 LINE",
"344 732 LINE",
"344 530 LINE",
"430 530 LINE",
"430 284 LINE SMOOTH",
"430 227 OFFCURVE",
"411 176 OFFCURVE",
"358 176 CURVE SMOOTH",
"307 176 OFFCURVE",
"286 227 OFFCURVE",
"286 284 CURVE SMOOTH",
"286 1168 LINE SMOOTH",
"286 1223 OFFCURVE",
"306 1276 OFFCURVE",
"358 1276 CURVE SMOOTH",
"411 1276 OFFCURVE",
"430 1227 OFFCURVE",
"430 1168 CURVE SMOOTH",
"430 942 LINE",
"646 942 LINE",
"646 1168 LINE SMOOTH",
"646 1344 OFFCURVE",
"537 1486 OFFCURVE",
"358 1486 CURVE SMOOTH",
"181 1486 OFFCURVE",
"70 1346 OFFCURVE",
"70 1168 CURVE SMOOTH",
"70 302 LINE SMOOTH",
"70 122 OFFCURVE",
"146 -16 OFFCURVE",
"324 -16 CURVE SMOOTH"
);
}
);
width = 726;
},
{
anchors = (
{
name = bottom;
position = "{258, 0}";
},
{
name = top;
position = "{228, 1470}";
}
);
layerId = "6463F33F-C059-4755-9C76-9F35D70521A0";
paths = (
{
closed = 1;
nodes = (
"258 -16 OFFCURVE",
"304 8 OFFCURVE",
"322 54 CURVE",
"340 0 LINE",
"426 0 LINE",
"426 732 LINE",
"236 732 LINE",
"236 530 LINE",
"272 530 LINE",
"272 256 LINE SMOOTH",
"272 217 OFFCURVE",
"265 176 OFFCURVE",
"233 176 CURVE SMOOTH",
"204 176 OFFCURVE",
"198 213 OFFCURVE",
"198 256 CURVE SMOOTH",
"198 1196 LINE SMOOTH",
"198 1231 OFFCURVE",
"200 1276 OFFCURVE",
"228 1276 CURVE SMOOTH",
"257 1276 OFFCURVE",
"260 1229 OFFCURVE",
"260 1196 CURVE SMOOTH",
"260 942 LINE",
"426 942 LINE",
"426 1188 LINE SMOOTH",
"426 1306 OFFCURVE",
"388 1486 OFFCURVE",
"228 1486 CURVE SMOOTH",
"78 1486 OFFCURVE",
"30 1320 OFFCURVE",
"30 1188 CURVE SMOOTH",
"30 282 LINE SMOOTH",
"30 148 OFFCURVE",
"54 -16 OFFCURVE",
"202 -16 CURVE SMOOTH"
);
}
);
width = 466;
}
);
leftKerningGroup = O;
leftMetricsKey = O;
rightMetricsKey = H;
unicode = 0047;
},
{
color = 6;
glyphname = H;
lastChange = "2021-11-24 16:09:43 +0000";
layers = (
{
anchors = (
{
name = bottom;
position = "{380, 0}";
},
{
name = center;
position = "{380, 736}";
},
{
name = top;
position = "{380, 1470}";
},
{
name = topleft;
position = "{80, 1470}";
}
);
layerId = "1AB499B8-18A8-432D-A211-B6882CCB886D";
paths = (
{
closed = 1;
nodes = (
"296 0 LINE",
"296 640 LINE",
"464 640 LINE",
"464 0 LINE",
"680 0 LINE",
"680 1470 LINE",
"464 1470 LINE",
"464 862 LINE",
"296 862 LINE",
"296 1470 LINE",
"80 1470 LINE",
"80 0 LINE"
);
}
);
width = 760;
},
{
anchors = (
{
name = bottom;
position = "{268, 0}";
},
{
name = center;
position = "{238, 736}";
},
{
name = top;
position = "{268, 1470}";
},
{
name = topleft;
position = "{40, 1470}";
}
);
layerId = "6463F33F-C059-4755-9C76-9F35D70521A0";
paths = (
{
closed = 1;
nodes = (
"206 0 LINE",
"206 640 LINE",
"270 640 LINE",
"270 0 LINE",
"436 0 LINE",
"436 1470 LINE",
"270 1470 LINE",
"270 862 LINE",
"206 862 LINE",
"206 1470 LINE",
"40 1470 LINE",
"40 0 LINE"
);
}
);
width = 476;
}
);
leftKerningGroup = H;
rightKerningGroup = H;
unicode = 0048;
},
{
color = 3;
glyphname = Hbar;
lastChange = "2021-11-24 16:09:43 +0000";
layers = (
{
components = (
{
name = H;
}
);
layerId = "1AB499B8-18A8-432D-A211-B6882CCB886D";
paths = (
{
closed = 1;
nodes = (
"745 1136 LINE",
"745 1326 LINE",
"20 1326 LINE",
"20 1136 LINE"
);
}
);
width = 760;
},
{
components = (
{
name = H;
}
);
layerId = "6463F33F-C059-4755-9C76-9F35D70521A0";
paths = (
{
closed = 1;
nodes = (
"465 1136 LINE",
"465 1326 LINE",
"20 1326 LINE",
"20 1136 LINE"
);
}
);
width = 476;
}
);
unicode = 0126;
},
{
color = 6;
glyphname = I;
lastChange = "2021-11-24 16:09:43 +0000";
layers = (
{
anchors = (
{
name = bottom;
position = "{188, 0}";
},
{
name = ogonek;
position = "{296, 0}";
},
{
name = top;
position = "{188, 1470}";
},
{
name = topleft;
position = "{20, 1470}";
}
);
layerId = "1AB499B8-18A8-432D-A211-B6882CCB886D";
paths = (
{
closed = 1;
nodes = (
"296 0 LINE",
"296 1470 LINE",
"80 1470 LINE",
"80 0 LINE"
);
}
);
width = 376;
},
{
anchors = (
{
name = bottom;
position = "{123, 0}";
},
{
name = ogonek;
position = "{206, 0}";
},
{
name = top;
position = "{123, 1470}";
},
{
name = topleft;
position = "{20, 1470}";
}
);
layerId = "6463F33F-C059-4755-9C76-9F35D70521A0";
paths = (
{
closed = 1;
nodes = (
"206 0 LINE",
"206 1470 LINE",
"40 1470 LINE",
"40 0 LINE"
);
}
);
width = 246;
}
);
leftKerningGroup = l;
leftMetricsKey = H;
rightKerningGroup = l;
rightMetricsKey = H;
unicode = 0049;
},
{
color = 6;
glyphname = IJ;
lastChange = "2021-11-24 16:09:43 +0000";
layers = (
{
layerId = "1AB499B8-18A8-432D-A211-B6882CCB886D";
paths = (
{
closed = 1;
nodes = (
"599 -27 OFFCURVE",
"720 69 OFFCURVE",
"720 272 CURVE SMOOTH",
"720 1470 LINE",
"504 1470 LINE",
"504 306 LINE SMOOTH",
"504 227 OFFCURVE",
"460 188 OFFCURVE",
"388 198 CURVE",
"388 -14 LINE"
);
},
{
closed = 1;
nodes = (
"296 0 LINE",
"296 1470 LINE",
"80 1470 LINE",
"80 0 LINE"
);
}
);
width = 790;
},
{
layerId = "6463F33F-C059-4755-9C76-9F35D70521A0";
paths = (
{
closed = 1;
nodes = (
"420 -30 OFFCURVE",
"472 102 OFFCURVE",
"472 272 CURVE SMOOTH",
"472 1470 LINE",
"306 1470 LINE",
"306 306 LINE SMOOTH",
"306 266 OFFCURVE",
"298 190 OFFCURVE",
"232 204 CURVE",
"232 -12 LINE"
);
},
{
closed = 1;
nodes = (
"196 0 LINE",
"196 1470 LINE",
"30 1470 LINE",
"30 0 LINE"
);
}
);
width = 534;
}
);
unicode = 0132;
},
{
color = 6;
glyphname = J;
lastChange = "2021-11-24 16:09:43 +0000";
layers = (
{
anchors = (
{
name = bottom;
position = "{207, 0}";
},
{
name = top;
position = "{208, 1470}";
}
);
layerId = "1AB499B8-18A8-432D-A211-B6882CCB886D";
paths = (
{
closed = 1;
nodes = (
"25 -15 OFFCURVE",
"37 -15 OFFCURVE",
"49 -15 CURVE SMOOTH",
"237 -15 OFFCURVE",
"344 81 OFFCURVE",
"344 272 CURVE SMOOTH",
"344 1470 LINE",
"128 1470 LINE",
"128 306 LINE SMOOTH",
"128 235 OFFCURVE",
"93 196 OFFCURVE",
"33 196 CURVE SMOOTH",
"27 196 OFFCURVE",
"19 197 OFFCURVE",
"12 198 CURVE",
"12 -14 LINE"
);
}
);
width = 424;
},
{
anchors = (
{
name = bottom;
position = "{158, 0}";
},
{
name = top;
position = "{162, 1470}";
}
);
layerId = "6463F33F-C059-4755-9C76-9F35D70521A0";
paths = (
{
closed = 1;
nodes = (
"12 -16 OFFCURVE",
"25 -16 OFFCURVE",
"35 -16 CURVE SMOOTH",
"196 -16 OFFCURVE",
"240 112 OFFCURVE",
"240 272 CURVE SMOOTH",
"240 1470 LINE",
"74 1470 LINE",
"74 306 LINE SMOOTH",
"74 269 OFFCURVE",
"67 202 OFFCURVE",
"15 202 CURVE SMOOTH",
"11 202 OFFCURVE",
"5 203 OFFCURVE",
"0 204 CURVE",
"0 -12 LINE"
);
}
);
width = 280;
}
);
rightMetricsKey = H;
unicode = 004A;
},
{
color = 6;
glyphname = K;
lastChange = "2021-11-24 16:09:43 +0000";
layers = (
{
anchors = (
{
name = bottom;
position = "{376, 0}";
},
{
name = top;
position = "{376, 1470}";
}
);
layerId = "1AB499B8-18A8-432D-A211-B6882CCB886D";
paths = (
{
closed = 1;
nodes = (
"296 0 LINE",
"296 520 LINE",
"358 670 LINE",
"364 670 LINE",
"508 0 LINE",
"730 0 LINE",
"506 986 LINE",
"704 1470 LINE",
"482 1470 LINE",
"314 980 LINE",
"304 956 LINE",
"296 956 LINE",
"296 980 LINE",
"296 1470 LINE",
"80 1470 LINE",
"80 0 LINE"
);
}
);
width = 750;
},
{
anchors = (
{
name = bottom;
position = "{266, 0}";
},
{
name = top;
position = "{266, 1470}";
}
);
layerId = "6463F33F-C059-4755-9C76-9F35D70521A0";
paths = (
{
closed = 1;
nodes = (
"200 0 LINE",
"200 500 LINE",
"246 660 LINE",
"250 660 LINE",
"357 0 LINE",
"522 0 LINE",
"362 975 LINE",
"502 1470 LINE",
"338 1470 LINE",
"213 980 LINE",
"206 956 LINE",
"200 956 LINE",
"200 980 LINE",
"200 1470 LINE",
"40 1470 LINE",
"40 0 LINE"
);
}
);
width = 520;
}
);
leftKerningGroup = H;
leftMetricsKey = H;
unicode = 004B;
},
{
color = 6;
glyphname = L;
lastChange = "2021-11-24 16:09:43 +0000";
layers = (
{
anchors = (
{
name = bottom;
position = "{296, 0}";
},
{
name = top;
position = "{296, 1470}";
}
);
layerId = "1AB499B8-18A8-432D-A211-B6882CCB886D";
paths = (
{
closed = 1;
nodes = (
"582 0 LINE",
"582 200 LINE",
"296 200 LINE",
"296 1470 LINE",
"80 1470 LINE",
"80 0 LINE"
);
}
);
width = 590;
},
{
anchors = (
{
name = bottom;
position = "{218, 0}";
},
{
name = top;
position = "{218, 1470}";
}
);
layerId = "6463F33F-C059-4755-9C76-9F35D70521A0";
paths = (
{
closed = 1;
nodes = (
"378 0 LINE",
"378 200 LINE",
"206 200 LINE",
"206 1470 LINE",
"40 1470 LINE",
"40 0 LINE"
);
}
);
width = 424;
}
);
leftKerningGroup = H;
leftMetricsKey = H;
rightKerningGroup = L;
unicode = 004C;
},
{
color = 6;
glyphname = Lcaron;
lastChange = "2021-11-24 16:09:43 +0000";
layers = (
{
layerId = "1AB499B8-18A8-432D-A211-B6882CCB886D";
paths = (
{
closed = 1;
nodes = (
"582 0 LINE",
"582 200 LINE",
"296 200 LINE",
"296 1470 LINE",
"80 1470 LINE",
"80 0 LINE"
);
},
{
closed = 1;
nodes = (
"468 1214 LINE",
"578 1474 LINE",
"578 1696 LINE",
"368 1696 LINE",
"368 1474 LINE",
"438 1474 LINE",
"368 1214 LINE"
);
}
);
width = 590;
},
{
layerId = "6463F33F-C059-4755-9C76-9F35D70521A0";
paths = (
{
closed = 1;
nodes = (
"368 0 LINE",
"368 200 LINE",
"196 200 LINE",
"196 1470 LINE",
"30 1470 LINE",
"30 0 LINE"
);
},
{
closed = 1;
nodes = (
"358 1214 LINE",
"424 1474 LINE",
"424 1696 LINE",
"262 1696 LINE",
"262 1474 LINE",
"304 1474 LINE",
"262 1214 LINE"
);
}
);
width = 474;
}
);
unicode = 013D;
},
{
color = 6;
glyphname = Ldot;
lastChange = "2021-11-24 16:09:43 +0000";
layers = (
{
layerId = "1AB499B8-18A8-432D-A211-B6882CCB886D";
paths = (
{
closed = 1;
nodes = (
"582 0 LINE",
"582 200 LINE",
"296 200 LINE",
"296 1470 LINE",
"80 1470 LINE",
"80 0 LINE"
);
},
{
closed = 1;
nodes = (
"582 658 LINE",
"582 880 LINE",
"372 880 LINE",
"372 658 LINE"
);
}
);
width = 590;
},
{
layerId = "6463F33F-C059-4755-9C76-9F35D70521A0";
paths = (
{
closed = 1;
nodes = (
"368 0 LINE",
"368 200 LINE",
"196 200 LINE",
"196 1470 LINE",
"30 1470 LINE",
"30 0 LINE"
);
},
{
closed = 1;
nodes = (
"408 658 LINE",
"408 880 LINE",
"246 880 LINE",
"246 658 LINE"
);
}
);
width = 446;
}
);
unicode = 013F;
},
{
color = 3;
glyphname = Lslash;
lastChange = "2021-11-24 16:09:43 +0000";
layers = (
{
components = (
{
name = L;
}
);
layerId = "6463F33F-C059-4755-9C76-9F35D70521A0";
paths = (
{
closed = 1;
nodes = (
"-1 533 LINE",
"341 837 LINE",
"259 938 LINE",
"-83 634 LINE"
);
}
);
width = 424;
},
{
components = (
{
name = L;
}
);
layerId = "1AB499B8-18A8-432D-A211-B6882CCB886D";
paths = (
{
closed = 1;
nodes = (
"25 509 LINE",
"468 813 LINE",
"380 946 LINE",
"-63 642 LINE"
);
}
);
width = 590;
}
);
unicode = 0141;
},
{
color = 6;
glyphname = M;
lastChange = "2021-11-24 16:09:43 +0000";
layers = (
{
layerId = "1AB499B8-18A8-432D-A211-B6882CCB886D";
paths = (
{
closed = 1;
nodes = (
"280 0 LINE",
"280 986 LINE",
"292 986 LINE",
"300 924 LINE",
"428 0 LINE",
"540 0 LINE",
"668 924 LINE",
"676 986 LINE",
"688 986 LINE",
"688 0 LINE",
"888 0 LINE",
"888 1470 LINE",
"614 1470 LINE",
"496 708 LINE",
"486 630 LINE",
"482 630 LINE",
"472 708 LINE",
"354 1470 LINE",
"80 1470 LINE",
"80 0 LINE"
);
}
);
width = 968;
},
{
layerId = "6463F33F-C059-4755-9C76-9F35D70521A0";
paths = (
{
closed = 1;
nodes = (
"199 0 LINE",
"199 744 LINE",
"202 744 LINE",
"203 710 LINE",
"261 0 LINE",
"351 0 LINE",
"407 710 LINE",
"408 744 LINE",
"411 744 LINE",
"411 0 LINE",
"570 0 LINE",
"570 1470 LINE",
"371 1470 LINE",
"310 794 LINE",
"307 706 LINE",
"303 706 LINE",
"300 794 LINE",
"239 1470 LINE",
"40 1470 LINE",
"40 0 LINE"
);
}
);
width = 610;
}
);
leftMetricsKey = H;
rightMetricsKey = H;
unicode = 004D;
},
{
color = 6;
glyphname = N;
lastChange = "2021-11-24 16:09:43 +0000";
layers = (
{
anchors = (
{
name = bottom;
position = "{396, 0}";
},
{
name = top;
position = "{396, 1470}";
}
);
layerId = "1AB499B8-18A8-432D-A211-B6882CCB886D";
paths = (
{
closed = 1;
nodes = (
"278 0 LINE",
"278 834 LINE",
"290 834 LINE",
"308 766 LINE",
"528 0 LINE",
"710 0 LINE",
"710 1470 LINE",
"512 1470 LINE",
"512 636 LINE",
"500 636 LINE",
"482 704 LINE",
"282 1470 LINE",
"80 1470 LINE",
"80 0 LINE"
);
}
);
width = 790;
},
{
anchors = (
{
name = bottom;
position = "{278, 0}";
},
{
name = top;
position = "{278, 1470}";
}
);
layerId = "6463F33F-C059-4755-9C76-9F35D70521A0";
paths = (
{
closed = 1;
nodes = (
"194 0 LINE",
"194 744 LINE",
"197 744 LINE",
"208 630 LINE",
"314 0 LINE",
"454 0 LINE",
"454 1470 LINE",
"300 1470 LINE",
"300 746 LINE",
"297 746 LINE",
"287 834 LINE",
"190 1470 LINE",
"40 1470 LINE",
"40 0 LINE"
);
}
);
width = 494;
}
);
leftMetricsKey = H;
rightMetricsKey = H;
unicode = 004E;
},
{
color = 3;
glyphname = Eng;
lastChange = "2021-11-24 16:09:43 +0000";
layers = (
{
components = (
{
name = N;
transform = "{1, 0, 0, 1, -1, 0}";
}
);
layerId = "6463F33F-C059-4755-9C76-9F35D70521A0";
paths = (
{
closed = 1;
nodes = (
"435 -376 OFFCURVE",
"453 -234 OFFCURVE",
"453 -28 CURVE SMOOTH",
"453 113 LINE",
"308 113 LINE",
"308 -26 LINE SMOOTH",
"308 -107 OFFCURVE",
"308 -186 OFFCURVE",
"258 -186 CURVE SMOOTH",
"240 -186 OFFCURVE",
"220 -181 OFFCURVE",
"213 -176 CURVE",
"213 -362 LINE",
"228 -371 OFFCURVE",
"254 -376 OFFCURVE",
"284 -376 CURVE SMOOTH"
);
}
);
width = 494;
},
{
components = (
{
name = N;
}
);
layerId = "1AB499B8-18A8-432D-A211-B6882CCB886D";
paths = (
{
closed = 1;
nodes = (
"688 -376 OFFCURVE",
"710 -234 OFFCURVE",
"710 -28 CURVE SMOOTH",
"710 113 LINE",
"528 113 LINE",
"528 -26 LINE SMOOTH",
"528 -107 OFFCURVE",
"528 -186 OFFCURVE",
"466 -186 CURVE SMOOTH",
"444 -186 OFFCURVE",
"418 -181 OFFCURVE",
"410 -176 CURVE",
"410 -362 LINE",
"429 -371 OFFCURVE",
"461 -376 OFFCURVE",
"498 -376 CURVE SMOOTH"
);
}
);
width = 790;
}
);
unicode = 014A;
},
{
color = 6;
glyphname = O;
lastChange = "2021-11-24 16:09:43 +0000";
layers = (
{
anchors = (
{
name = bottom;
position = "{358, 0}";
},
{
name = center;
position = "{358, 735}";
},
{
name = ogonek;
position = "{583, 97}";
},
{
name = top;
position = "{358, 1470}";
},
{
name = topleft;
position = "{24, 1470}";
},
{
name = topright;
position = "{453, 1470}";
}
);
layerId = "1AB499B8-18A8-432D-A211-B6882CCB886D";
paths = (
{
closed = 1;
nodes = (
"538 -16 OFFCURVE",
"646 122 OFFCURVE",
"646 302 CURVE SMOOTH",
"646 1168 LINE SMOOTH",
"646 1348 OFFCURVE",
"538 1486 OFFCURVE",
"358 1486 CURVE SMOOTH",
"178 1486 OFFCURVE",
"70 1349 OFFCURVE",
"70 1168 CURVE SMOOTH",
"70 302 LINE SMOOTH",
"70 122 OFFCURVE",
"178 -16 OFFCURVE",
"358 -16 CURVE SMOOTH"
);
},
{
closed = 1;
nodes = (
"307 194 OFFCURVE",
"286 247 OFFCURVE",
"286 302 CURVE SMOOTH",
"286 1168 LINE SMOOTH",
"286 1223 OFFCURVE",
"308 1276 OFFCURVE",
"358 1276 CURVE SMOOTH",
"408 1276 OFFCURVE",
"430 1223 OFFCURVE",
"430 1168 CURVE SMOOTH",
"430 302 LINE SMOOTH",
"430 247 OFFCURVE",
"411 194 OFFCURVE",
"358 194 CURVE SMOOTH"
);
}
);
width = 716;
},
{
anchors = (
{
name = bottom;
position = "{231, 0}";
},
{
name = center;
position = "{254, 735}";
},
{
name = ogonek;
position = "{397, 103}";
},
{
name = top;
position = "{233, 1470}";
},
{
name = topleft;
position = "{32, 1470}";
},
{
name = topright;
position = "{305, 1470}";
}
);
layerId = "6463F33F-C059-4755-9C76-9F35D70521A0";
paths = (
{
closed = 1;
nodes = (
"382 -16 OFFCURVE",
"432 130 OFFCURVE",
"432 282 CURVE SMOOTH",
"432 1188 LINE SMOOTH",
"432 1333 OFFCURVE",
"392 1486 OFFCURVE",
"232 1486 CURVE SMOOTH",
"82 1486 OFFCURVE",
"30 1333 OFFCURVE",
"30 1188 CURVE SMOOTH",
"30 282 LINE SMOOTH",
"30 130 OFFCURVE",
"82 -16 OFFCURVE",
"232 -16 CURVE SMOOTH"
);
},
{
closed = 1;
nodes = (
"204 194 OFFCURVE",
"200 228 OFFCURVE",
"200 282 CURVE SMOOTH",
"200 1188 LINE SMOOTH",
"200 1236 OFFCURVE",
"204 1276 OFFCURVE",
"234 1276 CURVE SMOOTH",
"264 1276 OFFCURVE",
"266 1234 OFFCURVE",
"266 1188 CURVE SMOOTH",
"266 282 LINE SMOOTH",
"266 236 OFFCURVE",
"264 194 OFFCURVE",
"234 194 CURVE SMOOTH"
);
}
);
width = 462;
}
);
leftKerningGroup = O;
rightKerningGroup = O;
unicode = 004F;
},
{
color = 3;
glyphname = Oslash;
lastChange = "2021-11-24 16:09:43 +0000";
layers = (
{
anchors = (
{
name = bottom;
position = "{231, 0}";
},
{
name = top;
position = "{231, 1470}";
}
);
components = (
{
name = O;
}
);
layerId = "6463F33F-C059-4755-9C76-9F35D70521A0";
paths = (
{
closed = 1;
nodes = (
"108 -27 LINE",
"486 1445 LINE",
"382 1492 LINE",
"-1 20 LINE"
);
}
);
width = 462;
},
{
anchors = (
{
name = bottom;
position = "{358, 0}";
},
{
name = top;
position = "{358, 1470}";
}
);
components = (
{
name = O;
}
);
layerId = "1AB499B8-18A8-432D-A211-B6882CCB886D";
paths = (
{
closed = 1;
nodes = (
"188 -36 LINE",
"666 1436 LINE",
"542 1496 LINE",
"59 24 LINE"
);
}
);
width = 716;
}
);
leftKerningGroup = O;
rightKerningGroup = O;
unicode = 00D8;
},
{
color = 3;
glyphname = OE;
lastChange = "2021-11-24 16:09:43 +0000";
layers = (
{
anchors = (
{
name = bottom;
position = "{338, 0}";
},
{
name = top;
position = "{338, 1470}";
}
);
components = (
{
name = O;
}
);
layerId = "6463F33F-C059-4755-9C76-9F35D70521A0";
paths = (
{
closed = 1;
nodes = (
"610 0 LINE",
"610 222 LINE",
"444 222 LINE",
"444 636 LINE",
"574 636 LINE",
"574 852 LINE",
"444 852 LINE",
"444 1248 LINE",
"610 1248 LINE",
"610 1470 LINE",
"278 1470 LINE",
"278 0 LINE"
);
}
);
width = 650;
},
{
anchors = (
{
name = bottom;
position = "{485, 0}";
},
{
name = top;
position = "{485, 1470}";
}
);
components = (
{
name = O;
}
);
layerId = "1AB499B8-18A8-432D-A211-B6882CCB886D";
paths = (
{
closed = 1;
nodes = (
"930 0 LINE",
"930 222 LINE",
"652 222 LINE",
"652 636 LINE",
"852 636 LINE",
"852 852 LINE",
"652 852 LINE",
"652 1248 LINE",
"930 1248 LINE",
"930 1470 LINE",
"436 1470 LINE",
"436 0 LINE"
);
}
);
width = 1010;
}
);
leftKerningGroup = O;
leftMetricsKey = O;
rightKerningGroup = E;
rightMetricsKey = E;
unicode = 0152;
},
{
color = 6;
glyphname = P;
lastChange = "2021-11-24 16:09:43 +0000";
layers = (
{
layerId = "1AB499B8-18A8-432D-A211-B6882CCB886D";
paths = (
{
closed = 1;
nodes = (
"296 0 LINE",
"296 588 LINE",
"534 598 OFFCURVE",
"666 762 OFFCURVE",
"666 1030 CURVE SMOOTH",
"666 1298 OFFCURVE",
"542 1470 OFFCURVE",
"296 1470 CURVE SMOOTH",
"80 1470 LINE",
"80 0 LINE"
);
},
{
closed = 1;
nodes = (
"296 1250 LINE",
"408 1250 OFFCURVE",
"448 1183 OFFCURVE",
"448 1028 CURVE SMOOTH",
"448 873 OFFCURVE",
"409 808 OFFCURVE",
"296 808 CURVE"
);
}
);
width = 704;
},
{
layerId = "6463F33F-C059-4755-9C76-9F35D70521A0";
paths = (
{
closed = 1;
nodes = (
"206 0 LINE",
"206 588 LINE",
"393 594 OFFCURVE",
"444 794 OFFCURVE",
"444 1030 CURVE SMOOTH",
"444 1260 OFFCURVE",
"377 1470 OFFCURVE",
"198 1470 CURVE SMOOTH",
"40 1470 LINE",
"40 0 LINE"
);
},
{
closed = 1;
nodes = (
"206 1254 LINE",
"269 1254 OFFCURVE",
"274 1146 OFFCURVE",
"274 1030 CURVE SMOOTH",
"274 914 OFFCURVE",
"269 808 OFFCURVE",
"206 808 CURVE"
);
}
);
width = 492;
}
);
leftKerningGroup = H;
leftMetricsKey = H;
unicode = 0050;
},
{
color = 6;
glyphname = Thorn;
lastChange = "2021-11-24 16:09:43 +0000";
layers = (
{
anchors = (
{
name = bottom;
position = "{357, 0}";
},
{
name = top;
position = "{357, 1470}";
}
);
layerId = "1AB499B8-18A8-432D-A211-B6882CCB886D";
paths = (
{
closed = 1;
nodes = (
"296 0 LINE",
"296 352 LINE",
"544 352 OFFCURVE",
"676 526 OFFCURVE",
"676 794 CURVE SMOOTH",
"676 1077 OFFCURVE",
"540 1234 OFFCURVE",
"294 1234 CURVE",
"294 1470 LINE",
"80 1470 LINE",
"80 0 LINE"
);
},
{
closed = 1;
nodes = (
"296 1014 LINE",
"415 1014 OFFCURVE",
"458 941 OFFCURVE",
"458 786 CURVE SMOOTH",
"458 631 OFFCURVE",
"417 572 OFFCURVE",
"296 572 CURVE"
);
}
);
width = 714;
},
{
anchors = (
{
name = bottom;
position = "{252, 0}";
},
{
name = top;
position = "{252, 1470}";
}
);
layerId = "6463F33F-C059-4755-9C76-9F35D70521A0";
paths = (
{
closed = 1;
nodes = (
"206 0 LINE",
"206 352 LINE",
"380 352 OFFCURVE",
"434 572 OFFCURVE",
"434 794 CURVE SMOOTH",
"434 1009 OFFCURVE",
"384 1234 OFFCURVE",
"206 1234 CURVE",
"206 1470 LINE",
"40 1470 LINE",
"40 0 LINE"
);
},
{
closed = 1;
nodes = (
"206 1014 LINE",
"262 1014 OFFCURVE",
"270 884 OFFCURVE",
"270 786 CURVE SMOOTH",
"270 684 OFFCURVE",
"261 572 OFFCURVE",
"206 572 CURVE"
);
}
);
width = 482;
}
);
leftKerningGroup = H;
leftMetricsKey = H;
rightKerningGroup = P;
rightMetricsKey = P;
unicode = 00DE;
},
{
color = 6;
glyphname = Q;
lastChange = "2021-11-24 16:09:43 +0000";
layers = (
{
anchors = (
{
name = bottom;
position = "{360, 0}";
},
{
name = top;
position = "{360, 1470}";
}
);
layerId = "1AB499B8-18A8-432D-A211-B6882CCB886D";
paths = (
{
closed = 1;
nodes = (
"688 72 LINE",
"645 76 OFFCURVE",
"612 92 OFFCURVE",
"595 120 CURVE",
"622 152 OFFCURVE",
"646 223 OFFCURVE",
"646 302 CURVE SMOOTH",
"646 1168 LINE SMOOTH",
"646 1348 OFFCURVE",
"537 1486 OFFCURVE",
"358 1486 CURVE SMOOTH",
"179 1486 OFFCURVE",
"70 1348 OFFCURVE",
"70 1168 CURVE SMOOTH",
"70 302 LINE SMOOTH",
"70 122 OFFCURVE",
"164 -16 OFFCURVE",
"348 -16 CURVE SMOOTH",
"390 -16 OFFCURVE",
"434 -3 OFFCURVE",
"454 12 CURVE",
"492 -50 OFFCURVE",
"566 -112 OFFCURVE",
"688 -112 CURVE"
);
},
{
closed = 1;
nodes = (
"307 194 OFFCURVE",
"286 245 OFFCURVE",
"286 302 CURVE SMOOTH",
"286 1168 LINE SMOOTH",
"286 1223 OFFCURVE",
"306 1276 OFFCURVE",
"358 1276 CURVE SMOOTH",
"411 1276 OFFCURVE",
"430 1223 OFFCURVE",
"430 1168 CURVE SMOOTH",
"430 302 LINE SMOOTH",
"430 245 OFFCURVE",
"411 194 OFFCURVE",
"358 194 CURVE SMOOTH"
);
}
);
width = 716;
},
{
anchors = (
{
name = bottom;
position = "{256, 0}";
},
{
name = top;
position = "{256, 1470}";
}
);
layerId = "6463F33F-C059-4755-9C76-9F35D70521A0";
paths = (
{
closed = 1;
nodes = (
"440 68 LINE",
"417 68 OFFCURVE",
"398 76 OFFCURVE",
"392 104 CURVE",
"412 160 OFFCURVE",
"424 218 OFFCURVE",
"424 282 CURVE SMOOTH",
"424 1188 LINE SMOOTH",
"424 1338 OFFCURVE",
"374 1486 OFFCURVE",
"224 1486 CURVE SMOOTH",
"74 1486 OFFCURVE",
"30 1338 OFFCURVE",
"30 1188 CURVE SMOOTH",
"30 282 LINE SMOOTH",
"30 136 OFFCURVE",
"68 -16 OFFCURVE",
"208 -16 CURVE SMOOTH",
"228 -16 OFFCURVE",
"256 -13 OFFCURVE",
"275 -3 CURVE",
"297 -59 OFFCURVE",
"346 -112 OFFCURVE",
"440 -112 CURVE"
);
},
{
closed = 1;
nodes = (
"204 194 OFFCURVE",
"200 234 OFFCURVE",
"200 282 CURVE SMOOTH",
"200 1188 LINE SMOOTH",
"200 1236 OFFCURVE",
"204 1276 OFFCURVE",
"226 1276 CURVE SMOOTH",
"248 1276 OFFCURVE",
"254 1237 OFFCURVE",
"254 1188 CURVE SMOOTH",
"254 282 LINE SMOOTH",
"254 234 OFFCURVE",
"248 194 OFFCURVE",
"226 194 CURVE SMOOTH"
);
}
);
width = 470;
}
);
leftKerningGroup = O;
leftMetricsKey = O;
unicode = 0051;
},
{
color = 6;
glyphname = R;
lastChange = "2021-11-24 16:09:43 +0000";
layers = (
{
anchors = (
{
name = bottom;
position = "{362, 0}";
},
{
name = top;
position = "{362, 1470}";
}
);
layerId = "1AB499B8-18A8-432D-A211-B6882CCB886D";
paths = (
{
closed = 1;
nodes = (
"296 0 LINE",
"296 620 LINE",
"334 620 LINE",
"456 0 LINE",
"672 0 LINE",
"525 699 LINE",
"607 755 OFFCURVE",
"674 880 OFFCURVE",
"674 1046 CURVE SMOOTH",
"674 1324 OFFCURVE",
"554 1470 OFFCURVE",
"296 1470 CURVE SMOOTH",
"80 1470 LINE",
"80 0 LINE"
);
},
{
closed = 1;
nodes = (
"296 1256 LINE",
"417 1256 OFFCURVE",
"456 1178 OFFCURVE",
"456 1038 CURVE SMOOTH",
"456 903 OFFCURVE",
"416 820 OFFCURVE",
"296 820 CURVE"
);
}
);
width = 714;
},
{
anchors = (
{
name = bottom;
position = "{258, 0}";
},
{
name = top;
position = "{258, 1470}";
}
);
layerId = "6463F33F-C059-4755-9C76-9F35D70521A0";
paths = (
{
closed = 1;
nodes = (
"206 0 LINE",
"206 640 LINE",
"211 640 LINE",
"282 0 LINE",
"454 0 LINE",
"352 712 LINE",
"404 774 OFFCURVE",
"428 906 OFFCURVE",
"428 1046 CURVE SMOOTH",
"428 1324 OFFCURVE",
"354 1470 OFFCURVE",
"198 1470 CURVE SMOOTH",
"40 1470 LINE",
"40 0 LINE"
);
},
{
closed = 1;
nodes = (
"206 1256 LINE",
"259 1256 OFFCURVE",
"270 1150 OFFCURVE",
"270 1038 CURVE SMOOTH",
"270 926 OFFCURVE",
"259 810 OFFCURVE",
"206 810 CURVE"
);
}
);
width = 474;
}
);
leftKerningGroup = H;
leftMetricsKey = H;
unicode = 0052;
},
{
color = 6;
glyphname = S;
lastChange = "2021-11-24 16:09:43 +0000";
layers = (
{
anchors = (
{
name = bottom;
position = "{334, 0}";
},
{
name = top;
position = "{334, 1470}";
}
);
layerId = "1AB499B8-18A8-432D-A211-B6882CCB886D";
paths = (
{
closed = 1;
nodes = (
"552 -16 OFFCURVE",
"640 143 OFFCURVE",
"640 354 CURVE SMOOTH",
"640 520 OFFCURVE",
"555 644 OFFCURVE",
"434 808 CURVE SMOOTH",
"332 946 OFFCURVE",
"268 1040 OFFCURVE",
"268 1152 CURVE SMOOTH",
"268 1238 OFFCURVE",
"286 1288 OFFCURVE",
"342 1288 CURVE SMOOTH",
"414 1288 OFFCURVE",
"428 1175 OFFCURVE",
"428 1076 CURVE",
"640 1096 LINE",
"640 1327 OFFCURVE",
"559 1486 OFFCURVE",
"338 1486 CURVE SMOOTH",
"160 1486 OFFCURVE",
"56 1338 OFFCURVE",
"56 1142 CURVE SMOOTH",
"56 954 OFFCURVE",
"161 801 OFFCURVE",
"316 594 CURVE SMOOTH",
"377 512 OFFCURVE",
"428 418 OFFCURVE",
"428 334 CURVE SMOOTH",
"428 250 OFFCURVE",
"404 182 OFFCURVE",
"340 182 CURVE SMOOTH",
"262 182 OFFCURVE",
"248 305 OFFCURVE",
"248 432 CURVE",
"36 412 LINE",
"36 148 OFFCURVE",
"102 -16 OFFCURVE",
"340 -16 CURVE SMOOTH"
);
}
);
width = 676;
},
{
anchors = (
{
name = bottom;
position = "{236, 0}";
},
{
name = top;
position = "{236, 1470}";
}
);
layerId = "6463F33F-C059-4755-9C76-9F35D70521A0";
paths = (
{
closed = 1;
nodes = (
"382 -16 OFFCURVE",
"412 204 OFFCURVE",
"412 344 CURVE SMOOTH",
"412 492 OFFCURVE",
"364 622 OFFCURVE",
"282 796 CURVE SMOOTH",
"215 938 OFFCURVE",
"184 1046 OFFCURVE",
"184 1142 CURVE SMOOTH",
"184 1228 OFFCURVE",
"188 1288 OFFCURVE",
"212 1288 CURVE SMOOTH",
"243 1288 OFFCURVE",
"244 1126 OFFCURVE",
"244 1074 CURVE",
"408 1098 LINE",
"408 1280 OFFCURVE",
"400 1486 OFFCURVE",
"208 1486 CURVE SMOOTH",
"48 1486 OFFCURVE",
"16 1290 OFFCURVE",
"16 1142 CURVE SMOOTH",
"16 1018 OFFCURVE",
"73 835 OFFCURVE",
"134 714 CURVE SMOOTH",
"217 550 OFFCURVE",
"244 438 OFFCURVE",
"244 324 CURVE SMOOTH",
"244 230 OFFCURVE",
"240 182 OFFCURVE",
"210 182 CURVE SMOOTH",
"168 182 OFFCURVE",
"166 388 OFFCURVE",
"166 434 CURVE",
"4 410 LINE",
"4 206 OFFCURVE",
"35 -16 OFFCURVE",
"210 -16 CURVE SMOOTH"
);
}
);
width = 472;
}
);
leftKerningGroup = S;
unicode = 0053;
},
{
color = 6;
glyphname = T;
lastChange = "2021-11-24 16:09:43 +0000";
layers = (
{
anchors = (
{
name = bottom;
position = "{332, 0}";
},
{
name = center;
position = "{332, 736}";
},
{
name = top;
position = "{332, 1470}";
}
);
layerId = "1AB499B8-18A8-432D-A211-B6882CCB886D";
paths = (
{
closed = 1;
nodes = (
"440 0 LINE",
"440 1248 LINE",
"644 1248 LINE",
"644 1470 LINE",
"20 1470 LINE",
"20 1248 LINE",
"224 1248 LINE",
"224 0 LINE"
);
}
);
width = 664;
},
{
anchors = (
{
name = bottom;
position = "{225, 0}";
},
{
name = center;
position = "{225, 735}";
},
{
name = top;
position = "{225, 1470}";
}
);
layerId = "6463F33F-C059-4755-9C76-9F35D70521A0";
paths = (
{
closed = 1;
nodes = (
"308 0 LINE",
"308 1248 LINE",
"430 1248 LINE",
"430 1470 LINE",
"20 1470 LINE",
"20 1248 LINE",
"142 1248 LINE",
"142 0 LINE"
);
}
);
width = 450;
}
);
leftKerningGroup = T;
rightKerningGroup = T;
unicode = 0054;
},
{
color = 3;
glyphname = Tbar;
lastChange = "2021-11-24 16:09:43 +0000";
layers = (
{
components = (
{
name = T;
}
);
layerId = "6463F33F-C059-4755-9C76-9F35D70521A0";
paths = (
{
closed = 1;
nodes = (
"401 636 LINE",
"401 826 LINE",
"53 826 LINE",
"53 636 LINE"
);
}
);
width = 450;
},
{
components = (
{
name = T;
}
);
layerId = "1AB499B8-18A8-432D-A211-B6882CCB886D";
paths = (
{
closed = 1;
nodes = (
"570 641 LINE",
"570 831 LINE",
"91 831 LINE",
"91 641 LINE"
);
}
);
width = 664;
}
);
unicode = 0166;
},
{
color = 6;
glyphname = U;
lastChange = "2021-11-24 16:09:43 +0000";
layers = (
{
anchors = (
{
name = bottom;
position = "{368, 0}";
},
{
name = ogonek;
position = "{560, 63}";
},
{
name = top;
position = "{368, 1470}";
},
{
name = topright;
position = "{576, 1470}";
}
);
layerId = "1AB499B8-18A8-432D-A211-B6882CCB886D";
paths = (
{
closed = 1;
nodes = (
"547 -16 OFFCURVE",
"656 122 OFFCURVE",
"656 302 CURVE SMOOTH",
"656 1470 LINE",
"440 1470 LINE",
"440 302 LINE SMOOTH",
"440 245 OFFCURVE",
"421 194 OFFCURVE",
"368 194 CURVE SMOOTH",
"317 194 OFFCURVE",
"296 245 OFFCURVE",
"296 302 CURVE SMOOTH",
"296 1470 LINE",
"80 1470 LINE",
"80 302 LINE SMOOTH",
"80 122 OFFCURVE",
"185 -16 OFFCURVE",
"368 -16 CURVE SMOOTH"
);
}
);
width = 736;
},
{
anchors = (
{
name = bottom;
position = "{237, 0}";
},
{
name = ogonek;
position = "{384, 59}";
},
{
name = top;
position = "{238, 1470}";
},
{
name = topright;
position = "{358, 1470}";
}
);
layerId = "6463F33F-C059-4755-9C76-9F35D70521A0";
paths = (
{
closed = 1;
nodes = (
"398 -16 OFFCURVE",
"434 116 OFFCURVE",
"434 282 CURVE SMOOTH",
"434 1470 LINE",
"268 1470 LINE",
"268 282 LINE SMOOTH",
"268 227 OFFCURVE",
"262 194 OFFCURVE",
"238 194 CURVE SMOOTH",
"212 194 OFFCURVE",
"206 226 OFFCURVE",
"206 282 CURVE SMOOTH",
"206 1470 LINE",
"40 1470 LINE",
"40 282 LINE SMOOTH",
"40 115 OFFCURVE",
"78 -16 OFFCURVE",
"238 -16 CURVE SMOOTH"
);
}
);
width = 474;
}
);
leftMetricsKey = H;
rightMetricsKey = H;
unicode = 0055;
},
{
color = 6;
glyphname = V;
lastChange = "2021-11-24 16:09:43 +0000";
layers = (
{
anchors = (
{
name = bottom;
position = "{362, 0}";
},
{
name = top;
position = "{362, 1470}";
}
);
layerId = "1AB499B8-18A8-432D-A211-B6882CCB886D";
paths = (
{
closed = 1;
nodes = (
"470 0 LINE",
"694 1470 LINE",
"484 1470 LINE",
"376 602 LINE",
"368 460 LINE",
"356 460 LINE",
"348 602 LINE",
"240 1470 LINE",
"30 1470 LINE",
"254 0 LINE"
);
}
);
width = 724;
},
{
anchors = (
{
name = bottom;
position = "{233, 0}";
},
{
name = top;
position = "{233, 1470}";
}
);
layerId = "6463F33F-C059-4755-9C76-9F35D70521A0";
paths = (
{
closed = 1;
nodes = (
"315 0 LINE",
"451 1470 LINE",
"289 1470 LINE",
"238 734 LINE",
"237 638 LINE",
"229 638 LINE",
"228 735 LINE",
"177 1470 LINE",
"15 1470 LINE",
"151 0 LINE"
);
}
);
width = 466;
}
);
leftKerningGroup = V;
rightKerningGroup = V;
unicode = 0056;
},
{
color = 6;
glyphname = W;
lastChange = "2021-11-24 16:09:43 +0000";
layers = (
{
anchors = (
{
name = bottom;
position = "{512, 0}";
},
{
name = top;
position = "{512, 1470}";
}
);
layerId = "1AB499B8-18A8-432D-A211-B6882CCB886D";
paths = (
{
closed = 1;
nodes = (
"396 0 LINE",
"496 696 LINE",
"508 782 LINE",
"516 782 LINE",
"528 696 LINE",
"628 0 LINE",
"796 0 LINE",
"994 1470 LINE",
"794 1470 LINE",
"708 706 LINE",
"704 658 LINE",
"688 658 LINE",
"682 706 LINE",
"590 1470 LINE",
"434 1470 LINE",
"342 706 LINE",
"336 658 LINE",
"320 658 LINE",
"316 706 LINE",
"230 1470 LINE",
"30 1470 LINE",
"228 0 LINE"
);
}
);
width = 1024;
},
{
anchors = (
{
name = bottom;
position = "{345, 0}";
},
{
name = top;
position = "{371, 1470}";
}
);
layerId = "6463F33F-C059-4755-9C76-9F35D70521A0";
paths = (
{
closed = 1;
nodes = (
"277 0 LINE",
"334 696 LINE",
"342 782 LINE",
"347 782 LINE",
"356 696 LINE",
"411 0 LINE",
"562 0 LINE",
"674 1470 LINE",
"511 1470 LINE",
"484 706 LINE",
"482 658 LINE",
"472 658 LINE",
"467 706 LINE",
"416 1470 LINE",
"273 1470 LINE",
"222 706 LINE",
"218 658 LINE",
"207 658 LINE",
"204 706 LINE",
"178 1470 LINE",
"15 1470 LINE",
"126 0 LINE"
);
}
);
width = 689;
}
);
leftKerningGroup = V;
leftMetricsKey = V;
rightKerningGroup = V;
rightMetricsKey = V;
unicode = 0057;
},
{
color = 6;
glyphname = X;
lastChange = "2021-11-24 16:09:43 +0000";
layers = (
{
anchors = (
{
name = bottom;
position = "{374, 0}";
},
{
name = top;
position = "{374, 1470}";
}
);
layerId = "1AB499B8-18A8-432D-A211-B6882CCB886D";
paths = (
{
closed = 1;
nodes = (
"242 0 LINE",
"366 438 LINE",
"370 466 LINE",
"378 466 LINE",
"382 438 LINE",
"506 0 LINE",
"718 0 LINE",
"480 772 LINE",
"714 1470 LINE",
"502 1470 LINE",
"384 1098 LINE",
"378 1070 LINE",
"370 1070 LINE",
"364 1098 LINE",
"246 1470 LINE",
"34 1470 LINE",
"268 772 LINE",
"30 0 LINE"
);
}
);
width = 748;
},
{
anchors = (
{
name = bottom;
position = "{250, 0}";
},
{
name = top;
position = "{250, 1470}";
}
);
layerId = "6463F33F-C059-4755-9C76-9F35D70521A0";
paths = (
{
closed = 1;
nodes = (
"179 0 LINE",
"244 468 LINE",
"247 536 LINE",
"252 536 LINE",
"255 468 LINE",
"319 0 LINE",
"484 0 LINE",
"342 772 LINE",
"481 1470 LINE",
"317 1470 LINE",
"256 1068 LINE",
"252 1000 LINE",
"247 1000 LINE",
"243 1068 LINE",
"182 1470 LINE",
"18 1470 LINE",
"157 772 LINE",
"15 0 LINE"
);
}
);
width = 499;
}
);
leftKerningGroup = X;
leftMetricsKey = V;
rightKerningGroup = X;
rightMetricsKey = V;
unicode = 0058;
},
{
color = 6;
glyphname = Y;
lastChange = "2021-11-24 16:09:43 +0000";
layers = (
{
anchors = (
{
name = bottom;
position = "{358, 0}";
},
{
name = top;
position = "{358, 1470}";
},
{
name = topleft;
position = "{45, 1470}";
}
);
layerId = "1AB499B8-18A8-432D-A211-B6882CCB886D";
paths = (
{
closed = 1;
nodes = (
"466 0 LINE",
"466 626 LINE",
"686 1470 LINE",
"474 1470 LINE",
"368 1000 LINE",
"361 936 LINE",
"355 936 LINE",
"348 1000 LINE",
"242 1470 LINE",
"30 1470 LINE",
"250 626 LINE",
"250 0 LINE"
);
}
);
width = 716;
},
{
anchors = (
{
name = bottom;
position = "{261, 0}";
},
{
name = top;
position = "{258, 1470}";
},
{
name = topleft;
position = "{35, 1470}";
}
);
layerId = "6463F33F-C059-4755-9C76-9F35D70521A0";
paths = (
{
closed = 1;
nodes = (
"342 0 LINE",
"342 626 LINE",
"507 1470 LINE",
"327 1470 LINE",
"269 1000 LINE",
"263 936 LINE",
"258 936 LINE",
"253 1000 LINE",
"193 1470 LINE",
"15 1470 LINE",
"180 626 LINE",
"180 0 LINE"
);
}
);
width = 522;
}
);
leftKerningGroup = Y;
leftMetricsKey = V;
rightKerningGroup = Y;
rightMetricsKey = V;
unicode = 0059;
},
{
color = 6;
glyphname = Z;
lastChange = "2021-11-24 16:09:43 +0000";
layers = (
{
anchors = (
{
name = bottom;
position = "{316, 0}";
},
{
name = center;
position = "{316, 735}";
},
{
name = top;
position = "{316, 1470}";
}
);
layerId = "1AB499B8-18A8-432D-A211-B6882CCB886D";
paths = (
{
closed = 1;
nodes = (
"602 0 LINE",
"602 214 LINE",
"258 214 LINE",
"602 1256 LINE",
"602 1470 LINE",
"78 1470 LINE",
"78 1256 LINE",
"368 1256 LINE",
"30 232 LINE",
"30 0 LINE"
);
}
);
width = 632;
},
{
anchors = (
{
name = bottom;
position = "{235, 0}";
},
{
name = center;
position = "{235, 735}";
},
{
name = top;
position = "{235, 1470}";
}
);
layerId = "6463F33F-C059-4755-9C76-9F35D70521A0";
paths = (
{
closed = 1;
nodes = (
"395 0 LINE",
"395 214 LINE",
"187 214 LINE",
"395 1256 LINE",
"395 1470 LINE",
"43 1470 LINE",
"43 1256 LINE",
"217 1256 LINE",
"15 232 LINE",
"15 0 LINE"
);
}
);
width = 410;
}
);
unicode = 005A;
},
{
color = 6;
glyphname = a;
lastChange = "2021-11-24 16:09:43 +0000";
layers = (
{
anchors = (
{
name = bottom;
position = "{310, 0}";
},
{
name = ogonek;
position = "{589, 0}";
},
{
name = top;
position = "{321, 1094}";
}
);
layerId = "1AB499B8-18A8-432D-A211-B6882CCB886D";
paths = (
{
closed = 1;
nodes = (
"274 -16 OFFCURVE",
"325 27 OFFCURVE",
"359 88 CURVE",
"373 88 LINE",
"373 74 OFFCURVE",
"374 21 OFFCURVE",
"391 0 CURVE",
"589 0 LINE",
"581 48 OFFCURVE",
"575 92 OFFCURVE",
"575 190 CURVE SMOOTH",
"575 842 LINE SMOOTH",
"575 998 OFFCURVE",
"478 1110 OFFCURVE",
"329 1110 CURVE SMOOTH",
"172 1110 OFFCURVE",
"57 998 OFFCURVE",
"57 818 CURVE SMOOTH",
"57 772 LINE",
"259 772 LINE",
"259 824 LINE SMOOTH",
"259 886 OFFCURVE",
"271 934 OFFCURVE",
"317 934 CURVE SMOOTH",
"366 934 OFFCURVE",
"373 889 OFFCURVE",
"373 834 CURVE SMOOTH",
"373 714 LINE",
"365 695 OFFCURVE",
"327 674 OFFCURVE",
"277 648 CURVE SMOOTH",
"115 564 OFFCURVE",
"35 460 OFFCURVE",
"35 272 CURVE SMOOTH",
"35 77 OFFCURVE",
"114 -16 OFFCURVE",
"207 -16 CURVE SMOOTH"
);
},
{
closed = 1;
nodes = (
"249 182 OFFCURVE",
"233 238 OFFCURVE",
"233 284 CURVE SMOOTH",
"233 388 OFFCURVE",
"275 476 OFFCURVE",
"373 518 CURVE",
"373 258 LINE SMOOTH",
"373 220 OFFCURVE",
"335 182 OFFCURVE",
"289 182 CURVE SMOOTH"
);
}
);
width = 639;
},
{
anchors = (
{
name = bottom;
position = "{224, 0}";
},
{
name = ogonek;
position = "{404, 0}";
},
{
name = top;
position = "{250, 1094}";
}
);
layerId = "6463F33F-C059-4755-9C76-9F35D70521A0";
paths = (
{
closed = 1;
nodes = (
"202 -16 OFFCURVE",
"230 24 OFFCURVE",
"246 66 CURVE",
"251 66 LINE",
"251 39 OFFCURVE",
"266 7 OFFCURVE",
"270 0 CURVE",
"404 0 LINE",
"398 27 OFFCURVE",
"394 77 OFFCURVE",
"394 150 CURVE SMOOTH",
"394 862 LINE SMOOTH",
"394 964 OFFCURVE",
"348 1110 OFFCURVE",
"226 1110 CURVE SMOOTH",
"94 1110 OFFCURVE",
"40 970 OFFCURVE",
"40 848 CURVE SMOOTH",
"40 772 LINE",
"192 772 LINE",
"192 844 LINE SMOOTH",
"192 875 OFFCURVE",
"193 936 OFFCURVE",
"220 936 CURVE SMOOTH",
"245 936 OFFCURVE",
"246 878 OFFCURVE",
"246 844 CURVE SMOOTH",
"246 726 LINE",
"240 704 OFFCURVE",
"208 670 OFFCURVE",
"182 648 CURVE SMOOTH",
"71 552 OFFCURVE",
"20 436 OFFCURVE",
"20 284 CURVE SMOOTH",
"20 116 OFFCURVE",
"69 -16 OFFCURVE",
"154 -16 CURVE SMOOTH"
);
},
{
closed = 1;
nodes = (
"181 174 OFFCURVE",
"174 225 OFFCURVE",
"174 286 CURVE SMOOTH",
"174 374 OFFCURVE",
"208 456 OFFCURVE",
"244 502 CURVE",
"244 248 LINE SMOOTH",
"244 210 OFFCURVE",
"233 174 OFFCURVE",
"207 174 CURVE SMOOTH"
);
}
);
width = 444;
}
);
leftKerningGroup = a;
rightKerningGroup = n;
rightMetricsKey = n;
unicode = 0061;
},
{
color = 6;
glyphname = a.ss01;
lastChange = "2021-11-24 16:09:43 +0000";
layers = (
{
anchors = (
{
name = bottom;
position = "{219, 0}";
},
{
name = center;
position = "{220, 548}";
},
{
name = ogonek;
position = "{392, 0}";
},
{
name = top;
position = "{216, 1094}";
}
);
layerId = "6463F33F-C059-4755-9C76-9F35D70521A0";
paths = (
{
closed = 1;
nodes = (
"186 -16 OFFCURVE",
"224 46 OFFCURVE",
"234 70 CURVE",
"244 0 LINE",
"392 0 LINE",
"392 1094 LINE",
"234 1094 LINE",
"234 1048 LINE",
"218 1074 OFFCURVE",
"170 1110 OFFCURVE",
"132 1110 CURVE SMOOTH",
"50 1110 OFFCURVE",
"30 986 OFFCURVE",
"30 896 CURVE SMOOTH",
"30 198 LINE SMOOTH",
"30 120 OFFCURVE",
"54 -16 OFFCURVE",
"134 -16 CURVE SMOOTH"
);
},
{
closed = 1;
nodes = (
"184 174 OFFCURVE",
"178 210 OFFCURVE",
"178 250 CURVE SMOOTH",
"178 862 LINE SMOOTH",
"178 900 OFFCURVE",
"188 934 OFFCURVE",
"206 934 CURVE SMOOTH",
"226 934 OFFCURVE",
"234 894 OFFCURVE",
"234 862 CURVE SMOOTH",
"234 250 LINE SMOOTH",
"234 212 OFFCURVE",
"226 174 OFFCURVE",
"206 174 CURVE SMOOTH"
);
}
);
width = 432;
},
{
anchors = (
{
name = bottom;
position = "{305, 0}";
},
{
name = center;
position = "{306, 548}";
},
{
name = ogonek;
position = "{558, 0}";
},
{
name = top;
position = "{304, 1094}";
}
);
layerId = "1AB499B8-18A8-432D-A211-B6882CCB886D";
paths = (
{
closed = 1;
nodes = (
"252 -16 OFFCURVE",
"303 25 OFFCURVE",
"356 72 CURVE",
"356 0 LINE",
"558 0 LINE",
"558 1094 LINE",
"356 1094 LINE",
"356 1022 LINE",
"305 1070 OFFCURVE",
"247 1110 OFFCURVE",
"196 1110 CURVE SMOOTH",
"93 1110 OFFCURVE",
"40 1001 OFFCURVE",
"40 896 CURVE SMOOTH",
"40 198 LINE SMOOTH",
"40 91 OFFCURVE",
"96 -16 OFFCURVE",
"196 -16 CURVE SMOOTH"
);
},
{
closed = 1;
nodes = (
"262 174 OFFCURVE",
"242 202 OFFCURVE",
"242 240 CURVE SMOOTH",
"242 854 LINE SMOOTH",
"242 892 OFFCURVE",
"262 920 OFFCURVE",
"292 920 CURVE SMOOTH",
"322 920 OFFCURVE",
"356 886 OFFCURVE",
"356 854 CURVE SMOOTH",
"356 240 LINE SMOOTH",
"356 202 OFFCURVE",
"322 174 OFFCURVE",
"292 174 CURVE SMOOTH"
);
}
);
width = 608;
}
);
leftKerningGroup = o;
leftMetricsKey = o;
rightMetricsKey = n;
},
{
color = 3;
glyphname = ae;
lastChange = "2021-11-24 16:09:43 +0000";
layers = (
{
anchors = (
{
name = bottom;
position = "{326, 0}";
},
{
name = top;
position = "{326, 1094}";
}
);
components = (
{
name = e;
transform = "{1, 0, 0, 1, 220, 0}";
}
);
layerId = "6463F33F-C059-4755-9C76-9F35D70521A0";
paths = (
{
closed = 1;
nodes = (
"300 -16 OFFCURVE",
"394 44 OFFCURVE",
"394 196 CURVE",
"394 862 LINE SMOOTH",
"394 964 OFFCURVE",
"348 1110 OFFCURVE",
"226 1110 CURVE SMOOTH",
"94 1110 OFFCURVE",
"40 970 OFFCURVE",
"40 848 CURVE SMOOTH",
"40 772 LINE",
"192 772 LINE",
"192 844 LINE SMOOTH",
"192 875 OFFCURVE",
"193 936 OFFCURVE",
"220 936 CURVE SMOOTH",
"245 936 OFFCURVE",
"246 878 OFFCURVE",
"246 844 CURVE SMOOTH",
"246 696 LINE",
"240 674 OFFCURVE",
"208 640 OFFCURVE",
"182 618 CURVE SMOOTH",
"71 522 OFFCURVE",
"20 436 OFFCURVE",
"20 284 CURVE SMOOTH",
"20 39 OFFCURVE",
"129 -16 OFFCURVE",
"214 -16 CURVE SMOOTH"
);
},
{
closed = 1;
nodes = (
"181 174 OFFCURVE",
"174 225 OFFCURVE",
"174 286 CURVE SMOOTH",
"174 374 OFFCURVE",
"208 426 OFFCURVE",
"244 472 CURVE",
"244 248 LINE SMOOTH",
"244 210 OFFCURVE",
"233 174 OFFCURVE",
"207 174 CURVE SMOOTH"
);
}
);
width = 652;
},
{
anchors = (
{
name = bottom;
position = "{478, 0}";
},
{
name = top;
position = "{478, 1094}";
}
);
components = (
{
name = e;
transform = "{1, 0, 0, 1, 343, 0}";
}
);
layerId = "1AB499B8-18A8-432D-A211-B6882CCB886D";
paths = (
{
closed = 1;
nodes = (
"461 -16 OFFCURVE",
"565 82 OFFCURVE",
"565 230 CURVE",
"565 842 LINE SMOOTH",
"565 998 OFFCURVE",
"478 1110 OFFCURVE",
"329 1110 CURVE SMOOTH",
"172 1110 OFFCURVE",
"57 998 OFFCURVE",
"57 818 CURVE SMOOTH",
"57 772 LINE",
"259 772 LINE",
"259 824 LINE SMOOTH",
"259 886 OFFCURVE",
"271 934 OFFCURVE",
"317 934 CURVE SMOOTH",
"366 934 OFFCURVE",
"373 889 OFFCURVE",
"373 834 CURVE SMOOTH",
"373 694 LINE",
"365 675 OFFCURVE",
"327 654 OFFCURVE",
"277 628 CURVE SMOOTH",
"115 544 OFFCURVE",
"35 460 OFFCURVE",
"35 272 CURVE SMOOTH",
"35 77 OFFCURVE",
"158 -16 OFFCURVE",
"307 -16 CURVE SMOOTH"
);
},
{
closed = 1;
nodes = (
"249 182 OFFCURVE",
"233 238 OFFCURVE",
"233 284 CURVE SMOOTH",
"233 388 OFFCURVE",
"275 456 OFFCURVE",
"373 498 CURVE",
"373 258 LINE SMOOTH",
"373 220 OFFCURVE",
"335 182 OFFCURVE",
"289 182 CURVE SMOOTH"
);
}
);
width = 945;
}
);
leftKerningGroup = a;
leftMetricsKey = a;
rightKerningGroup = e;
rightMetricsKey = e;
unicode = 00E6;
},
{
color = 6;
glyphname = b;
lastChange = "2021-11-24 16:09:43 +0000";
layers = (
{
anchors = (
{
name = bottom;
position = "{305, 0}";
},
{
name = top;
position = "{145, 1470}";
}
);
layerId = "1AB499B8-18A8-432D-A211-B6882CCB886D";
paths = (
{
closed = 1;
nodes = (
"512 -16 OFFCURVE",
"568 91 OFFCURVE",
"568 198 CURVE SMOOTH",
"568 896 LINE SMOOTH",
"568 1001 OFFCURVE",
"515 1110 OFFCURVE",
"412 1110 CURVE SMOOTH",
"361 1110 OFFCURVE",
"303 1070 OFFCURVE",
"252 1022 CURVE",
"252 1470 LINE",
"50 1470 LINE",
"50 0 LINE",
"252 0 LINE",
"252 72 LINE",
"305 25 OFFCURVE",
"356 -16 OFFCURVE",
"412 -16 CURVE SMOOTH"
);
},
{
closed = 1;
nodes = (
"286 174 OFFCURVE",
"252 202 OFFCURVE",
"252 240 CURVE SMOOTH",
"252 854 LINE SMOOTH",
"252 886 OFFCURVE",
"286 920 OFFCURVE",
"316 920 CURVE SMOOTH",
"346 920 OFFCURVE",
"366 892 OFFCURVE",
"366 854 CURVE SMOOTH",
"366 240 LINE SMOOTH",
"366 202 OFFCURVE",
"346 174 OFFCURVE",
"316 174 CURVE SMOOTH"
);
}
);
width = 608;
},
{
anchors = (
{
name = bottom;
position = "{241, 0}";
},
{
name = top;
position = "{112, 1470}";
}
);
layerId = "6463F33F-C059-4755-9C76-9F35D70521A0";
paths = (
{
closed = 1;
nodes = (
"378 -16 OFFCURVE",
"402 120 OFFCURVE",
"402 198 CURVE SMOOTH",
"402 896 LINE SMOOTH",
"402 986 OFFCURVE",
"382 1110 OFFCURVE",
"290 1110 CURVE SMOOTH",
"252 1110 OFFCURVE",
"214 1074 OFFCURVE",
"198 1048 CURVE",
"198 1470 LINE",
"40 1470 LINE",
"40 0 LINE",
"188 0 LINE",
"198 70 LINE",
"208 46 OFFCURVE",
"246 -16 OFFCURVE",
"298 -16 CURVE SMOOTH"
);
},
{
closed = 1;
nodes = (
"206 174 OFFCURVE",
"198 212 OFFCURVE",
"198 250 CURVE SMOOTH",
"198 862 LINE SMOOTH",
"198 894 OFFCURVE",
"206 934 OFFCURVE",
"226 934 CURVE SMOOTH",
"244 934 OFFCURVE",
"254 900 OFFCURVE",
"254 862 CURVE SMOOTH",
"254 250 LINE SMOOTH",
"254 210 OFFCURVE",
"248 174 OFFCURVE",
"226 174 CURVE SMOOTH"
);
}
);
width = 432;
}
);
leftKerningGroup = h;
leftMetricsKey = h;
rightKerningGroup = o;
rightMetricsKey = o;
unicode = 0062;
},
{
color = 6;
glyphname = c;
lastChange = "2021-11-24 16:09:43 +0000";
layers = (
{
anchors = (
{
name = bottom;
position = "{297, 0}";
},
{
name = top;
position = "{297, 1094}";
}
);
layerId = "1AB499B8-18A8-432D-A211-B6882CCB886D";
paths = (
{
closed = 1;
nodes = (
"475 -15 OFFCURVE",
"558 102 OFFCURVE",
"558 299 CURVE SMOOTH",
"558 385 LINE",
"356 385 LINE",
"356 273 LINE SMOOTH",
"356 212 OFFCURVE",
"343 165 OFFCURVE",
"298 165 CURVE SMOOTH",
"253 165 OFFCURVE",
"242 213 OFFCURVE",
"242 273 CURVE SMOOTH",
"242 822 LINE SMOOTH",
"242 882 OFFCURVE",
"253 930 OFFCURVE",
"298 930 CURVE SMOOTH",
"343 930 OFFCURVE",
"356 883 OFFCURVE",
"356 822 CURVE SMOOTH",
"356 710 LINE",
"558 710 LINE",
"558 796 LINE SMOOTH",
"558 993 OFFCURVE",
"475 1110 OFFCURVE",
"298 1110 CURVE SMOOTH",
"121 1110 OFFCURVE",
"40 994 OFFCURVE",
"40 796 CURVE SMOOTH",
"40 299 LINE SMOOTH",
"40 101 OFFCURVE",
"121 -15 OFFCURVE",
"298 -15 CURVE SMOOTH"
);
}
);
width = 598;
},
{
anchors = (
{
name = bottom;
position = "{214, 0}";
},
{
name = top;
position = "{214, 1094}";
}
);
layerId = "6463F33F-C059-4755-9C76-9F35D70521A0";
paths = (
{
closed = 1;
nodes = (
"346 -15 OFFCURVE",
"402 97 OFFCURVE",
"402 239 CURVE SMOOTH",
"402 385 LINE",
"250 385 LINE",
"250 241 LINE SMOOTH",
"250 191 OFFCURVE",
"248 161 OFFCURVE",
"220 161 CURVE SMOOTH",
"192 161 OFFCURVE",
"188 191 OFFCURVE",
"188 241 CURVE SMOOTH",
"188 854 LINE SMOOTH",
"188 904 OFFCURVE",
"192 934 OFFCURVE",
"220 934 CURVE SMOOTH",
"248 934 OFFCURVE",
"250 904 OFFCURVE",
"250 854 CURVE SMOOTH",
"250 710 LINE",
"402 710 LINE",
"402 856 LINE SMOOTH",
"402 998 OFFCURVE",
"346 1110 OFFCURVE",
"216 1110 CURVE SMOOTH",
"86 1110 OFFCURVE",
"30 992 OFFCURVE",
"30 856 CURVE SMOOTH",
"30 239 LINE SMOOTH",
"30 103 OFFCURVE",
"86 -15 OFFCURVE",
"216 -15 CURVE SMOOTH"
);
}
);
width = 432;
}
);
leftKerningGroup = o;
leftMetricsKey = o;
rightKerningGroup = o;
rightMetricsKey = o;
unicode = 0063;
},
{
color = 6;
glyphname = d;
lastChange = "2021-11-24 16:09:43 +0000";
layers = (
{
anchors = (
{
name = bottom;
position = "{305, 0}";
},
{
name = center;
position = "{306, 548}";
},
{
name = top;
position = "{305, 1470}";
},
{
name = topright;
position = "{620, 1094}";
}
);
layerId = "1AB499B8-18A8-432D-A211-B6882CCB886D";
paths = (
{
closed = 1;
nodes = (
"252 -16 OFFCURVE",
"303 25 OFFCURVE",
"356 72 CURVE",
"356 0 LINE",
"558 0 LINE",
"558 1470 LINE",
"356 1470 LINE",
"356 1022 LINE",
"305 1070 OFFCURVE",
"247 1110 OFFCURVE",
"196 1110 CURVE SMOOTH",
"93 1110 OFFCURVE",
"40 1001 OFFCURVE",
"40 896 CURVE SMOOTH",
"40 198 LINE SMOOTH",
"40 91 OFFCURVE",
"96 -16 OFFCURVE",
"196 -16 CURVE SMOOTH"
);
},
{
closed = 1;
nodes = (
"262 174 OFFCURVE",
"242 202 OFFCURVE",
"242 240 CURVE SMOOTH",
"242 854 LINE SMOOTH",
"242 892 OFFCURVE",
"262 920 OFFCURVE",
"292 920 CURVE SMOOTH",
"322 920 OFFCURVE",
"356 886 OFFCURVE",
"356 854 CURVE SMOOTH",
"356 240 LINE SMOOTH",
"356 202 OFFCURVE",
"322 174 OFFCURVE",
"292 174 CURVE SMOOTH"
);
}
);
width = 640;
},
{
anchors = (
{
name = bottom;
position = "{219, 0}";
},
{
name = center;
position = "{220, 548}";
},
{
name = top;
position = "{219, 1470}";
},
{
name = topright;
position = "{430, 1094}";
}
);
layerId = "6463F33F-C059-4755-9C76-9F35D70521A0";
paths = (
{
closed = 1;
nodes = (
"186 -16 OFFCURVE",
"224 46 OFFCURVE",
"234 70 CURVE",
"244 0 LINE",
"392 0 LINE",
"392 1470 LINE",
"234 1470 LINE",
"234 1048 LINE",
"218 1074 OFFCURVE",
"170 1110 OFFCURVE",
"132 1110 CURVE SMOOTH",
"50 1110 OFFCURVE",
"30 986 OFFCURVE",
"30 896 CURVE SMOOTH",
"30 198 LINE SMOOTH",
"30 120 OFFCURVE",
"54 -16 OFFCURVE",
"134 -16 CURVE SMOOTH"
);
},
{
closed = 1;
nodes = (
"184 174 OFFCURVE",
"178 210 OFFCURVE",
"178 250 CURVE SMOOTH",
"178 862 LINE SMOOTH",
"178 900 OFFCURVE",
"188 934 OFFCURVE",
"206 934 CURVE SMOOTH",
"226 934 OFFCURVE",
"234 894 OFFCURVE",
"234 862 CURVE SMOOTH",
"234 250 LINE SMOOTH",
"234 212 OFFCURVE",
"226 174 OFFCURVE",
"206 174 CURVE SMOOTH"
);
}
);
width = 432;
}
);
leftKerningGroup = o;
leftMetricsKey = o;
unicode = 0064;
},
{
color = 6;
glyphname = eth;
lastChange = "2021-11-24 16:09:43 +0000";
layers = (
{
layerId = "1AB499B8-18A8-432D-A211-B6882CCB886D";
paths = (
{
closed = 1;
nodes = (
"462 -16 OFFCURVE",
"558 102 OFFCURVE",
"558 266 CURVE SMOOTH",
"558 906 LINE SMOOTH",
"558 1106 OFFCURVE",
"498 1246 OFFCURVE",
"436 1342 CURVE",
"534 1428 LINE",
"480 1492 LINE",
"388 1412 LINE",
"376 1428 OFFCURVE",
"347 1461 OFFCURVE",
"336 1472 CURVE",
"230 1374 LINE",
"245 1353 OFFCURVE",
"267 1321 OFFCURVE",
"274 1310 CURVE",
"176 1224 LINE",
"230 1162 LINE",
"310 1232 LINE",
"332 1182 OFFCURVE",
"350 1116 OFFCURVE",
"360 1034 CURVE",
"306 1080 OFFCURVE",
"254 1110 OFFCURVE",
"208 1110 CURVE SMOOTH",
"78 1110 OFFCURVE",
"40 982 OFFCURVE",
"40 838 CURVE SMOOTH",
"40 272 LINE SMOOTH",
"40 112 OFFCURVE",
"138 -16 OFFCURVE",
"298 -16 CURVE SMOOTH"
);
},
{
closed = 1;
nodes = (
"245 162 OFFCURVE",
"230 214 OFFCURVE",
"230 272 CURVE SMOOTH",
"230 822 LINE SMOOTH",
"230 875 OFFCURVE",
"246 934 OFFCURVE",
"298 934 CURVE SMOOTH",
"351 934 OFFCURVE",
"368 888 OFFCURVE",
"368 822 CURVE SMOOTH",
"368 272 LINE SMOOTH",
"368 213 OFFCURVE",
"354 162 OFFCURVE",
"298 162 CURVE SMOOTH"
);
}
);
width = 598;
},
{
layerId = "6463F33F-C059-4755-9C76-9F35D70521A0";
paths = (
{
closed = 1;
nodes = (
"352 -16 OFFCURVE",
"398 152 OFFCURVE",
"398 266 CURVE SMOOTH",
"398 906 LINE SMOOTH",
"398 1100 OFFCURVE",
"350 1246 OFFCURVE",
"314 1342 CURVE",
"370 1428 LINE",
"326 1516 LINE",
"272 1436 LINE",
"264 1458 OFFCURVE",
"247 1490 OFFCURVE",
"240 1502 CURVE",
"156 1374 LINE",
"165 1361 OFFCURVE",
"178 1342 OFFCURVE",
"188 1314 CURVE",
"124 1224 LINE",
"168 1138 LINE",
"210 1200 LINE",
"217 1168 OFFCURVE",
"226 1118 OFFCURVE",
"230 1076 CURVE",
"208 1096 OFFCURVE",
"182 1110 OFFCURVE",
"160 1110 CURVE SMOOTH",
"42 1110 OFFCURVE",
"30 936 OFFCURVE",
"30 838 CURVE SMOOTH",
"30 272 LINE SMOOTH",
"30 150 OFFCURVE",
"68 -16 OFFCURVE",
"214 -16 CURVE SMOOTH"
);
},
{
closed = 1;
nodes = (
"190 162 OFFCURVE",
"180 208 OFFCURVE",
"180 252 CURVE SMOOTH",
"180 842 LINE SMOOTH",
"180 894 OFFCURVE",
"192 934 OFFCURVE",
"214 934 CURVE SMOOTH",
"236 934 OFFCURVE",
"248 892 OFFCURVE",
"248 842 CURVE SMOOTH",
"248 252 LINE SMOOTH",
"248 220 OFFCURVE",
"232 162 OFFCURVE",
"214 162 CURVE SMOOTH"
);
}
);
width = 428;
}
);
leftKerningGroup = o;
leftMetricsKey = o;
rightKerningGroup = o;
rightMetricsKey = o;
unicode = 00F0;
},
{
color = 3;
glyphname = dcroat;
lastChange = "2021-11-24 16:09:43 +0000";
layers = (
{
components = (
{
name = d;
}
);
layerId = "6463F33F-C059-4755-9C76-9F35D70521A0";
paths = (
{
closed = 1;
nodes = (
"431 1220 LINE",
"431 1362 LINE",
"116 1362 LINE",
"116 1220 LINE"
);
}
);
width = 432;
},
{
components = (
{
name = d;
}
);
layerId = "1AB499B8-18A8-432D-A211-B6882CCB886D";
paths = (
{
closed = 1;
nodes = (
"636 1220 LINE",
"636 1362 LINE",
"237 1362 LINE",
"237 1220 LINE"
);
}
);
width = 640;
}
);
unicode = 0111;
},
{
color = 6;
glyphname = e;
lastChange = "2021-11-24 16:09:43 +0000";
layers = (
{
anchors = (
{
name = bottom;
position = "{298, 0}";
},
{
name = ogonek;
position = "{556, 20}";
},
{
name = top;
position = "{298, 1094}";
}
);
layerId = "1AB499B8-18A8-432D-A211-B6882CCB886D";
paths = (
{
closed = 1;
nodes = (
"466 -16 OFFCURVE",
"562 96 OFFCURVE",
"562 266 CURVE SMOOTH",
"562 392 LINE",
"374 392 LINE",
"374 272 LINE SMOOTH",
"374 211 OFFCURVE",
"354 162 OFFCURVE",
"302 162 CURVE SMOOTH",
"252 162 OFFCURVE",
"228 217 OFFCURVE",
"228 272 CURVE SMOOTH",
"228 510 LINE",
"562 510 LINE",
"562 828 LINE SMOOTH",
"562 989 OFFCURVE",
"464 1110 OFFCURVE",
"302 1110 CURVE SMOOTH",
"136 1110 OFFCURVE",
"40 992 OFFCURVE",
"40 822 CURVE SMOOTH",
"40 272 LINE SMOOTH",
"40 111 OFFCURVE",
"138 -16 OFFCURVE",
"300 -16 CURVE SMOOTH"
);
},
{
closed = 1;
nodes = (
"228 822 LINE SMOOTH",
"228 879 OFFCURVE",
"251 934 OFFCURVE",
"302 934 CURVE SMOOTH",
"357 934 OFFCURVE",
"374 882 OFFCURVE",
"374 822 CURVE SMOOTH",
"374 668 LINE",
"228 668 LINE"
);
}
);
width = 602;
},
{
anchors = (
{
name = bottom;
position = "{234, 0}";
},
{
name = ogonek;
position = "{412, 20}";
},
{
name = top;
position = "{234, 1094}";
}
);
layerId = "6463F33F-C059-4755-9C76-9F35D70521A0";
paths = (
{
closed = 1;
nodes = (
"344 -16 OFFCURVE",
"402 82 OFFCURVE",
"402 244 CURVE SMOOTH",
"402 392 LINE",
"252 392 LINE",
"252 243 LINE SMOOTH",
"252 193 OFFCURVE",
"245 162 OFFCURVE",
"216 162 CURVE SMOOTH",
"188 162 OFFCURVE",
"184 192 OFFCURVE",
"184 242 CURVE SMOOTH",
"184 510 LINE",
"402 510 LINE",
"402 836 LINE SMOOTH",
"402 982 OFFCURVE",
"344 1110 OFFCURVE",
"214 1110 CURVE SMOOTH",
"84 1110 OFFCURVE",
"30 986 OFFCURVE",
"30 836 CURVE SMOOTH",
"30 247 LINE SMOOTH",
"30 85 OFFCURVE",
"84 -16 OFFCURVE",
"214 -16 CURVE SMOOTH"
);
},
{
closed = 1;
nodes = (
"184 852 LINE SMOOTH",
"184 904 OFFCURVE",
"190 934 OFFCURVE",
"216 934 CURVE SMOOTH",
"250 934 OFFCURVE",
"252 906 OFFCURVE",
"252 852 CURVE SMOOTH",
"252 668 LINE",
"184 668 LINE"
);
}
);
width = 432;
}
);
leftKerningGroup = c;
leftMetricsKey = o;
rightKerningGroup = c;
rightMetricsKey = o;
unicode = 0065;
},
{
color = 6;
glyphname = f;
lastChange = "2021-11-24 16:09:43 +0000";
layers = (
{
layerId = "1AB499B8-18A8-432D-A211-B6882CCB886D";
paths = (
{
closed = 1;
nodes = (
"314 0 LINE",
"314 912 LINE",
"436 912 LINE",
"436 1094 LINE",
"314 1094 LINE",
"314 1180 LINE SMOOTH",
"314 1259 OFFCURVE",
"359 1299 OFFCURVE",
"398 1299 CURVE SMOOTH",
"428 1299 OFFCURVE",
"446 1293 OFFCURVE",
"458 1284 CURVE",
"458 1460 LINE",
"439 1471 OFFCURVE",
"409 1478 OFFCURVE",
"374 1478 CURVE SMOOTH",
"218 1478 OFFCURVE",
"112 1361 OFFCURVE",
"112 1154 CURVE SMOOTH",
"112 1094 LINE",
"10 1094 LINE",
"10 912 LINE",
"112 912 LINE",
"112 0 LINE"
);
}
);
width = 468;
},
{
layerId = "6463F33F-C059-4755-9C76-9F35D70521A0";
paths = (
{
closed = 1;
nodes = (
"223 0 LINE",
"223 912 LINE",
"295 912 LINE",
"295 1094 LINE",
"223 1094 LINE",
"223 1200 LINE SMOOTH",
"223 1263 OFFCURVE",
"235 1302 OFFCURVE",
"274 1302 CURVE SMOOTH",
"284 1302 OFFCURVE",
"296 1299 OFFCURVE",
"307 1292 CURVE",
"307 1458 LINE",
"283 1472 OFFCURVE",
"249 1478 OFFCURVE",
"223 1478 CURVE SMOOTH",
"127 1478 OFFCURVE",
"67 1392 OFFCURVE",
"67 1208 CURVE SMOOTH",
"67 1094 LINE",
"10 1094 LINE",
"10 912 LINE",
"67 912 LINE",
"67 0 LINE"
);
}
);
width = 317;
}
);
unicode = 0066;
},
{
color = 6;
glyphname = g;
lastChange = "2021-11-24 16:09:43 +0000";
layers = (
{
anchors = (
{
name = bottom;
position = "{345, -530}";
},
{
name = top;
position = "{345, 1094}";
}
);
layerId = "1AB499B8-18A8-432D-A211-B6882CCB886D";
paths = (
{
closed = 1;
nodes = (
"509 -392 OFFCURVE",
"675 -305 OFFCURVE",
"675 -112 CURVE SMOOTH",
"675 52 OFFCURVE",
"557 116 OFFCURVE",
"385 142 CURVE SMOOTH",
"303 154 OFFCURVE",
"251 167 OFFCURVE",
"251 210 CURVE SMOOTH",
"251 228 OFFCURVE",
"261 244 OFFCURVE",
"279 260 CURVE",
"284 259 OFFCURVE",
"301 258 OFFCURVE",
"317 258 CURVE SMOOTH",
"474 258 OFFCURVE",
"577 373 OFFCURVE",
"577 528 CURVE SMOOTH",
"577 838 LINE SMOOTH",
"577 860 OFFCURVE",
"571 897 OFFCURVE",
"567 906 CURVE",
"591 920 OFFCURVE",
"631 930 OFFCURVE",
"685 930 CURVE",
"685 1110 LINE",
"633 1110 OFFCURVE",
"557 1075 OFFCURVE",
"519 1010 CURVE",
"481 1064 OFFCURVE",
"419 1110 OFFCURVE",
"317 1110 CURVE SMOOTH",
"158 1110 OFFCURVE",
"61 996 OFFCURVE",
"61 832 CURVE SMOOTH",
"61 534 LINE SMOOTH",
"61 421 OFFCURVE",
"103 344 OFFCURVE",
"177 296 CURVE",
"116 264 OFFCURVE",
"51 214 OFFCURVE",
"51 132 CURVE SMOOTH",
"51 46 OFFCURVE",
"107 4 OFFCURVE",
"173 -14 CURVE",
"126 -27 OFFCURVE",
"15 -95 OFFCURVE",
"15 -200 CURVE SMOOTH",
"15 -339 OFFCURVE",
"169 -392 OFFCURVE",
"339 -392 CURVE SMOOTH"
);
},
{
closed = 1;
nodes = (
"249 -222 OFFCURVE",
"211 -188 OFFCURVE",
"211 -146 CURVE SMOOTH",
"211 -104 OFFCURVE",
"243 -74 OFFCURVE",
"285 -50 CURVE",
"369 -70 LINE SMOOTH",
"439 -87 OFFCURVE",
"467 -97 OFFCURVE",
"467 -148 CURVE SMOOTH",
"467 -199 OFFCURVE",
"409 -222 OFFCURVE",
"343 -222 CURVE SMOOTH"
);
},
{
closed = 1;
nodes = (
"276 426 OFFCURVE",
"259 455 OFFCURVE",
"259 514 CURVE SMOOTH",
"259 834 LINE SMOOTH",
"259 885 OFFCURVE",
"274 924 OFFCURVE",
"319 924 CURVE SMOOTH",
"364 924 OFFCURVE",
"379 887 OFFCURVE",
"379 834 CURVE SMOOTH",
"379 514 LINE SMOOTH",
"379 455 OFFCURVE",
"362 426 OFFCURVE",
"319 426 CURVE SMOOTH"
);
}
);
width = 690;
},
{
anchors = (
{
name = bottom;
position = "{265, -530}";
},
{
name = top;
position = "{227, 1094}";
}
);
layerId = "6463F33F-C059-4755-9C76-9F35D70521A0";
paths = (
{
closed = 1;
nodes = (
"386 -392 OFFCURVE",
"468 -248 OFFCURVE",
"468 -102 CURVE SMOOTH",
"468 40 OFFCURVE",
"384 95 OFFCURVE",
"278 122 CURVE SMOOTH",
"229 134 OFFCURVE",
"186 148 OFFCURVE",
"186 198 CURVE SMOOTH",
"186 218 OFFCURVE",
"192 233 OFFCURVE",
"198 243 CURVE",
"204 240 OFFCURVE",
"213 238 OFFCURVE",
"228 238 CURVE SMOOTH",
"334 238 OFFCURVE",
"402 342 OFFCURVE",
"402 478 CURVE SMOOTH",
"402 858 LINE SMOOTH",
"402 870 OFFCURVE",
"398 898 OFFCURVE",
"394 906 CURVE",
"404 920 OFFCURVE",
"430 930 OFFCURVE",
"468 930 CURVE",
"468 1110 LINE",
"414 1110 OFFCURVE",
"376 1082 OFFCURVE",
"342 1042 CURVE",
"318 1086 OFFCURVE",
"278 1110 OFFCURVE",
"218 1110 CURVE SMOOTH",
"104 1110 OFFCURVE",
"36 1008 OFFCURVE",
"36 852 CURVE SMOOTH",
"36 484 LINE SMOOTH",
"36 352 OFFCURVE",
"72 308 OFFCURVE",
"112 276 CURVE",
"70 238 OFFCURVE",
"30 182 OFFCURVE",
"30 122 CURVE SMOOTH",
"30 53 OFFCURVE",
"60 23 OFFCURVE",
"114 -4 CURVE",
"62 -32 OFFCURVE",
"0 -94 OFFCURVE",
"0 -190 CURVE SMOOTH",
"0 -298 OFFCURVE",
"84 -392 OFFCURVE",
"222 -392 CURVE SMOOTH"
);
},
{
closed = 1;
nodes = (
"180 -222 OFFCURVE",
"162 -188 OFFCURVE",
"162 -146 CURVE SMOOTH",
"162 -94 OFFCURVE",
"178 -54 OFFCURVE",
"196 -34 CURVE",
"244 -49 LINE SMOOTH",
"270 -57 OFFCURVE",
"298 -80 OFFCURVE",
"298 -138 CURVE SMOOTH",
"298 -188 OFFCURVE",
"268 -222 OFFCURVE",
"224 -222 CURVE SMOOTH"
);
},
{
closed = 1;
nodes = (
"192 406 OFFCURVE",
"192 456 OFFCURVE",
"192 494 CURVE SMOOTH",
"192 844 LINE SMOOTH",
"192 888 OFFCURVE",
"192 934 OFFCURVE",
"220 934 CURVE SMOOTH",
"248 934 OFFCURVE",
"248 888 OFFCURVE",
"248 844 CURVE SMOOTH",
"248 494 LINE SMOOTH",
"248 455 OFFCURVE",
"248 406 OFFCURVE",
"220 406 CURVE SMOOTH"
);
}
);
width = 478;
}
);
unicode = 0067;
},
{
color = 3;
glyphname = g.ss01;
lastChange = "2021-11-24 16:09:43 +0000";
layers = (
{
anchors = (
{
name = bottom;
position = "{216, -376}";
},
{
name = top;
position = "{216, 1094}";
}
);
components = (
{
name = a.ss01;
}
);
layerId = "6463F33F-C059-4755-9C76-9F35D70521A0";
paths = (
{
closed = 1;
nodes = (
"325 -376 OFFCURVE",
"392 -249 OFFCURVE",
"392 -74 CURVE SMOOTH",
"392 129 LINE",
"234 129 LINE",
"234 -92 LINE SMOOTH",
"234 -169 OFFCURVE",
"213 -197 OFFCURVE",
"177 -197 CURVE SMOOTH",
"136 -197 OFFCURVE",
"103 -188 OFFCURVE",
"74 -173 CURVE",
"74 -353 LINE",
"93 -363 OFFCURVE",
"131 -376 OFFCURVE",
"184 -376 CURVE SMOOTH"
);
}
);
width = 432;
},
{
anchors = (
{
name = bottom;
position = "{292, -376}";
},
{
name = top;
position = "{304, 1094}";
}
);
components = (
{
name = a.ss01;
}
);
layerId = "1AB499B8-18A8-432D-A211-B6882CCB886D";
paths = (
{
closed = 1;
nodes = (
"426 -376 OFFCURVE",
"558 -259 OFFCURVE",
"558 -74 CURVE SMOOTH",
"558 129 LINE",
"355 129 LINE",
"355 -72 LINE SMOOTH",
"355 -159 OFFCURVE",
"314 -197 OFFCURVE",
"228 -197 CURVE SMOOTH",
"167 -197 OFFCURVE",
"124 -188 OFFCURVE",
"95 -173 CURVE",
"95 -353 LINE",
"114 -363 OFFCURVE",
"162 -376 OFFCURVE",
"235 -376 CURVE SMOOTH"
);
}
);
width = 608;
}
);
},
{
color = 6;
glyphname = h;
lastChange = "2021-11-24 16:09:43 +0000";
layers = (
{
anchors = (
{
name = bottom;
position = "{312, 0}";
},
{
name = center;
position = "{308, 548}";
},
{
name = top;
position = "{308, 1094}";
}
);
layerId = "1AB499B8-18A8-432D-A211-B6882CCB886D";
paths = (
{
closed = 1;
nodes = (
"252 0 LINE",
"252 845 LINE SMOOTH",
"252 883 OFFCURVE",
"303 921 OFFCURVE",
"331 921 CURVE SMOOTH",
"355 921 OFFCURVE",
"376 894 OFFCURVE",
"376 854 CURVE SMOOTH",
"376 0 LINE",
"578 0 LINE",
"578 896 LINE SMOOTH",
"578 1014 OFFCURVE",
"526 1110 OFFCURVE",
"426 1110 CURVE SMOOTH",
"364 1110 OFFCURVE",
"287 1055 OFFCURVE",
"252 1019 CURVE",
"252 1470 LINE",
"50 1470 LINE",
"50 0 LINE"
);
}
);
width = 628;
},
{
anchors = (
{
name = bottom;
position = "{218, 0}";
},
{
name = center;
position = "{240, 548}";
},
{
name = top;
position = "{240, 1094}";
}
);
layerId = "6463F33F-C059-4755-9C76-9F35D70521A0";
paths = (
{
closed = 1;
nodes = (
"198 0 LINE",
"198 862 LINE SMOOTH",
"198 888 OFFCURVE",
"210 934 OFFCURVE",
"232 934 CURVE SMOOTH",
"252 934 OFFCURVE",
"255 886 OFFCURVE",
"255 862 CURVE SMOOTH",
"255 0 LINE",
"405 0 LINE",
"405 896 LINE SMOOTH",
"405 962 OFFCURVE",
"403 1110 OFFCURVE",
"303 1110 CURVE SMOOTH",
"269 1110 OFFCURVE",
"219 1074 OFFCURVE",
"198 1048 CURVE",
"198 1470 LINE",
"40 1470 LINE",
"40 0 LINE"
);
}
);
width = 435;
}
);
rightKerningGroup = b;
unicode = 0068;
},
{
color = 3;
glyphname = hbar;
lastChange = "2021-11-24 16:09:43 +0000";
layers = (
{
components = (
{
name = h;
}
);
layerId = "6463F33F-C059-4755-9C76-9F35D70521A0";
paths = (
{
closed = 1;
nodes = (
"315 1220 LINE",
"315 1362 LINE",
"0 1362 LINE",
"0 1220 LINE"
);
}
);
width = 435;
},
{
components = (
{
name = h;
}
);
layerId = "1AB499B8-18A8-432D-A211-B6882CCB886D";
paths = (
{
closed = 1;
nodes = (
"399 1220 LINE",
"399 1362 LINE",
"0 1362 LINE",
"0 1220 LINE"
);
}
);
width = 618;
}
);
unicode = 0127;
},
{
color = 6;
glyphname = i;
lastChange = "2021-11-24 16:09:43 +0000";
layers = (
{
anchors = (
{
name = bottom;
position = "{161, 0}";
}
);
layerId = "1AB499B8-18A8-432D-A211-B6882CCB886D";
paths = (
{
closed = 1;
nodes = (
"262 0 LINE",
"262 1094 LINE",
"60 1094 LINE",
"60 0 LINE"
);
},
{
closed = 1;
nodes = (
"262 1268 LINE",
"262 1470 LINE",
"60 1470 LINE",
"60 1268 LINE"
);
}
);
width = 322;
},
{
anchors = (
{
name = bottom;
position = "{119, 0}";
}
);
layerId = "6463F33F-C059-4755-9C76-9F35D70521A0";
paths = (
{
closed = 1;
nodes = (
"198 0 LINE",
"198 1094 LINE",
"40 1094 LINE",
"40 0 LINE"
);
},
{
closed = 1;
nodes = (
"198 1268 LINE",
"198 1470 LINE",
"40 1470 LINE",
"40 1268 LINE"
);
}
);
width = 238;
}
);
leftKerningGroup = l;
rightKerningGroup = l;
unicode = 0069;
},
{
color = 6;
glyphname = idotless;
lastChange = "2021-11-24 16:09:43 +0000";
layers = (
{
anchors = (
{
name = bottom;
position = "{119, 0}";
},
{
name = ogonek;
position = "{198, 0}";
},
{
name = top;
position = "{119, 1094}";
}
);
layerId = "6463F33F-C059-4755-9C76-9F35D70521A0";
paths = (
{
closed = 1;
nodes = (
"198 0 LINE",
"198 1094 LINE",
"40 1094 LINE",
"40 0 LINE"
);
}
);
width = 238;
},
{
anchors = (
{
name = bottom;
position = "{181, 0}";
},
{
name = ogonek;
position = "{282, 0}";
},
{
name = top;
position = "{181, 1094}";
}
);
layerId = "1AB499B8-18A8-432D-A211-B6882CCB886D";
paths = (
{
closed = 1;
nodes = (
"282 0 LINE",
"282 1094 LINE",
"80 1094 LINE",
"80 0 LINE"
);
}
);
width = 362;
}
);
unicode = 0131;
},
{
color = 6;
glyphname = ij;
lastChange = "2021-11-24 16:09:43 +0000";
layers = (
{
layerId = "1AB499B8-18A8-432D-A211-B6882CCB886D";
paths = (
{
closed = 1;
nodes = (
"596 -376 OFFCURVE",
"638 -234 OFFCURVE",
"638 -28 CURVE SMOOTH",
"638 1094 LINE",
"436 1094 LINE",
"436 -26 LINE SMOOTH",
"436 -112 OFFCURVE",
"434 -186 OFFCURVE",
"374 -186 CURVE SMOOTH",
"363 -186 OFFCURVE",
"326 -181 OFFCURVE",
"318 -178 CURVE",
"318 -364 LINE",
"347 -374 OFFCURVE",
"371 -376 OFFCURVE",
"406 -376 CURVE SMOOTH"
);
},
{
closed = 1;
nodes = (
"282 0 LINE",
"282 1094 LINE",
"80 1094 LINE",
"80 0 LINE"
);
},
{
closed = 1;
nodes = (
"282 1268 LINE",
"282 1470 LINE",
"80 1470 LINE",
"80 1268 LINE"
);
},
{
closed = 1;
nodes = (
"638 1268 LINE",
"638 1470 LINE",
"436 1470 LINE",
"436 1268 LINE"
);
}
);
width = 718;
},
{
layerId = "6463F33F-C059-4755-9C76-9F35D70521A0";
paths = (
{
closed = 1;
nodes = (
"387 -376 OFFCURVE",
"404 -203 OFFCURVE",
"404 -28 CURVE SMOOTH",
"404 1094 LINE",
"246 1094 LINE",
"246 -72 LINE SMOOTH",
"246 -112 OFFCURVE",
"241 -182 OFFCURVE",
"203 -182 CURVE SMOOTH",
"196 -182 OFFCURVE",
"189 -181 OFFCURVE",
"180 -178 CURVE",
"176 -360 LINE",
"206 -374 OFFCURVE",
"224 -376 OFFCURVE",
"246 -376 CURVE SMOOTH"
);
},
{
closed = 1;
nodes = (
"188 0 LINE",
"188 1094 LINE",
"30 1094 LINE",
"30 0 LINE"
);
},
{
closed = 1;
nodes = (
"188 1268 LINE",
"188 1470 LINE",
"30 1470 LINE",
"30 1268 LINE"
);
},
{
closed = 1;
nodes = (
"404 1268 LINE",
"404 1470 LINE",
"246 1470 LINE",
"246 1268 LINE"
);
}
);
width = 490;
}
);
unicode = 0133;
},
{
color = 6;
glyphname = imacron;
lastChange = "2021-11-24 16:09:43 +0000";
layers = (
{
layerId = "1AB499B8-18A8-432D-A211-B6882CCB886D";
paths = (
{
closed = 1;
nodes = (
"282 0 LINE",
"282 1094 LINE",
"80 1094 LINE",
"80 0 LINE"
);
},
{
closed = 1;
nodes = (
"378 1284 LINE",
"378 1442 LINE",
"-10 1442 LINE",
"-10 1284 LINE"
);
}
);
width = 362;
},
{
layerId = "6463F33F-C059-4755-9C76-9F35D70521A0";
paths = (
{
closed = 1;
nodes = (
"188 0 LINE",
"188 1094 LINE",
"30 1094 LINE",
"30 0 LINE"
);
},
{
closed = 1;
nodes = (
"244 1284 LINE",
"244 1442 LINE",
"-24 1442 LINE",
"-24 1284 LINE"
);
}
);
width = 278;
}
);
unicode = 012B;
},
{
color = 6;
glyphname = j;
lastChange = "2021-11-24 16:09:43 +0000";
layers = (
{
layerId = "1AB499B8-18A8-432D-A211-B6882CCB886D";
paths = (
{
closed = 1;
nodes = (
"234 -376 OFFCURVE",
"276 -234 OFFCURVE",
"276 -28 CURVE SMOOTH",
"276 1094 LINE",
"74 1094 LINE",
"74 -26 LINE SMOOTH",
"74 -107 OFFCURVE",
"74 -186 OFFCURVE",
"12 -186 CURVE SMOOTH",
"-10 -186 OFFCURVE",
"-36 -181 OFFCURVE",
"-44 -176 CURVE",
"-44 -362 LINE",
"-25 -371 OFFCURVE",
"7 -376 OFFCURVE",
"44 -376 CURVE SMOOTH"
);
},
{
closed = 1;
nodes = (
"276 1268 LINE",
"276 1470 LINE",
"74 1470 LINE",
"74 1268 LINE"
);
}
);
width = 336;
},
{
layerId = "6463F33F-C059-4755-9C76-9F35D70521A0";
paths = (
{
closed = 1;
nodes = (
"167 -376 OFFCURVE",
"184 -203 OFFCURVE",
"184 -28 CURVE SMOOTH",
"184 1094 LINE",
"26 1094 LINE",
"26 -72 LINE SMOOTH",
"26 -112 OFFCURVE",
"25 -190 OFFCURVE",
"-11 -190 CURVE SMOOTH",
"-25 -190 OFFCURVE",
"-40 -181 OFFCURVE",
"-44 -178 CURVE",
"-44 -360 LINE",
"-14 -374 OFFCURVE",
"4 -376 OFFCURVE",
"26 -376 CURVE SMOOTH"
);
},
{
closed = 1;
nodes = (
"184 1268 LINE",
"184 1470 LINE",
"26 1470 LINE",
"26 1268 LINE"
);
}
);
width = 224;
}
);
rightMetricsKey = i;
unicode = 006A;
},
{
color = 6;
glyphname = k;
lastChange = "2021-11-24 16:09:43 +0000";
layers = (
{
anchors = (
{
name = bottom;
position = "{284, 0}";
}
);
layerId = "1AB499B8-18A8-432D-A211-B6882CCB886D";
paths = (
{
closed = 1;
nodes = (
"252 0 LINE",
"252 378 LINE",
"284 458 LINE",
"286 458 LINE",
"288 442 LINE",
"388 0 LINE",
"592 0 LINE",
"408 738 LINE",
"564 1094 LINE",
"372 1094 LINE",
"274 808 LINE",
"262 772 LINE",
"252 772 LINE",
"252 808 LINE",
"252 1470 LINE",
"50 1470 LINE",
"50 0 LINE"
);
}
);
width = 607;
},
{
anchors = (
{
name = bottom;
position = "{228, 0}";
}
);
layerId = "6463F33F-C059-4755-9C76-9F35D70521A0";
paths = (
{
closed = 1;
nodes = (
"192 0 LINE",
"192 368 LINE",
"216 458 LINE",
"218 458 LINE",
"219 442 LINE",
"295 0 LINE",
"448 0 LINE",
"320 738 LINE",
"427 1094 LINE",
"283 1094 LINE",
"209 808 LINE",
"200 772 LINE",
"192 772 LINE",
"192 808 LINE",
"192 1470 LINE",
"40 1470 LINE",
"40 0 LINE"
);
}
);
width = 458;
}
);
leftMetricsKey = h;
unicode = 006B;
},
{
color = 6;
glyphname = l;
lastChange = "2021-11-24 16:09:43 +0000";
layers = (
{
anchors = (
{
name = bottom;
position = "{162, 0}";
},
{
name = center;
position = "{161, 735}";
},
{
name = top;
position = "{162, 1470}";
},
{
name = topright;
position = "{302, 1094}";
}
);
layerId = "1AB499B8-18A8-432D-A211-B6882CCB886D";
paths = (
{
closed = 1;
nodes = (
"262 0 LINE",
"262 1470 LINE",
"60 1470 LINE",
"60 0 LINE"
);
}
);
width = 322;
},
{
anchors = (
{
name = bottom;
position = "{148, 0}";
},
{
name = center;
position = "{119, 735}";
},
{
name = top;
position = "{112, 1470}";
},
{
name = topright;
position = "{244, 1094}";
}
);
layerId = "6463F33F-C059-4755-9C76-9F35D70521A0";
paths = (
{
closed = 1;
nodes = (
"198 0 LINE",
"198 1470 LINE",
"40 1470 LINE",
"40 0 LINE"
);
}
);
width = 238;
}
);
leftKerningGroup = l;
rightKerningGroup = l;
unicode = 006C;
},
{
color = 3;
glyphname = lslash;
lastChange = "2021-11-24 16:09:43 +0000";
layers = (
{
components = (
{
name = l;
}
);
layerId = "6463F33F-C059-4755-9C76-9F35D70521A0";
paths = (
{
closed = 1;
nodes = (
"9 553 LINE",
"311 817 LINE",
"229 918 LINE",
"-73 654 LINE"
);
}
);
width = 238;
},
{
components = (
{
name = l;
}
);
layerId = "1AB499B8-18A8-432D-A211-B6882CCB886D";
paths = (
{
closed = 1;
nodes = (
"45 539 LINE",
"410 790 LINE",
"322 923 LINE",
"-43 672 LINE"
);
}
);
width = 362;
}
);
unicode = 0142;
},
{
color = 6;
glyphname = m;
lastChange = "2021-11-24 16:09:43 +0000";
layers = (
{
anchors = (
{
name = bottom;
position = "{469, 0}";
},
{
name = top;
position = "{469, 1094}";
}
);
layerId = "1AB499B8-18A8-432D-A211-B6882CCB886D";
paths = (
{
closed = 1;
nodes = (
"252 0 LINE",
"252 862 LINE",
"266 885 OFFCURVE",
"297 914 OFFCURVE",
"328 914 CURVE SMOOTH",
"358 914 OFFCURVE",
"382 898 OFFCURVE",
"382 856 CURVE SMOOTH",
"382 0 LINE",
"572 0 LINE",
"572 862 LINE",
"586 885 OFFCURVE",
"617 914 OFFCURVE",
"648 914 CURVE SMOOTH",
"678 914 OFFCURVE",
"702 898 OFFCURVE",
"702 856 CURVE SMOOTH",
"702 0 LINE",
"892 0 LINE",
"892 896 LINE SMOOTH",
"892 999 OFFCURVE",
"840 1110 OFFCURVE",
"740 1110 CURVE SMOOTH",
"676 1110 OFFCURVE",
"613 1047 OFFCURVE",
"556 988 CURVE",
"534 1052 OFFCURVE",
"492 1110 OFFCURVE",
"420 1110 CURVE SMOOTH",
"369 1110 OFFCURVE",
"317 1062 OFFCURVE",
"252 1002 CURVE",
"252 1094 LINE",
"50 1094 LINE",
"50 0 LINE"
);
}
);
width = 942;
},
{
anchors = (
{
name = bottom;
position = "{339, 0}";
},
{
name = top;
position = "{339, 1094}";
}
);
layerId = "6463F33F-C059-4755-9C76-9F35D70521A0";
paths = (
{
closed = 1;
nodes = (
"198 0 LINE",
"198 862 LINE SMOOTH",
"198 900 OFFCURVE",
"208 934 OFFCURVE",
"226 934 CURVE SMOOTH",
"246 934 OFFCURVE",
"256 908 OFFCURVE",
"256 866 CURVE SMOOTH",
"256 0 LINE",
"400 0 LINE",
"400 862 LINE SMOOTH",
"400 886 OFFCURVE",
"408 934 OFFCURVE",
"430 934 CURVE SMOOTH",
"452 934 OFFCURVE",
"460 904 OFFCURVE",
"460 862 CURVE SMOOTH",
"460 0 LINE",
"606 0 LINE",
"606 896 LINE SMOOTH",
"606 962 OFFCURVE",
"606 1110 OFFCURVE",
"506 1110 CURVE SMOOTH",
"462 1110 OFFCURVE",
"402 1074 OFFCURVE",
"382 1030 CURVE",
"378 1070 OFFCURVE",
"350 1110 OFFCURVE",
"306 1110 CURVE SMOOTH",
"268 1110 OFFCURVE",
"222 1076 OFFCURVE",
"198 1036 CURVE",
"198 1094 LINE",
"40 1094 LINE",
"40 0 LINE"
);
}
);
width = 646;
}
);
leftKerningGroup = n;
leftMetricsKey = h;
rightKerningGroup = n;
rightMetricsKey = n;
unicode = 006D;
},
{
color = 6;
glyphname = n;
lastChange = "2021-11-24 16:09:43 +0000";
layers = (
{
anchors = (
{
name = bottom;
position = "{308, 0}";
},
{
name = top;
position = "{308, 1094}";
}
);
layerId = "1AB499B8-18A8-432D-A211-B6882CCB886D";
paths = (
{
closed = 1;
nodes = (
"252 0 LINE",
"252 862 LINE",
"269 890 OFFCURVE",
"289 914 OFFCURVE",
"318 914 CURVE SMOOTH",
"352 914 OFFCURVE",
"366 898 OFFCURVE",
"366 856 CURVE SMOOTH",
"366 0 LINE",
"568 0 LINE",
"568 896 LINE SMOOTH",
"568 999 OFFCURVE",
"516 1110 OFFCURVE",
"416 1110 CURVE SMOOTH",
"365 1110 OFFCURVE",
"300 1048 OFFCURVE",
"252 1002 CURVE",
"252 1094 LINE",
"50 1094 LINE",
"50 0 LINE"
);
}
);
width = 618;
},
{
anchors = (
{
name = bottom;
position = "{242, 0}";
},
{
name = top;
position = "{242, 1094}";
}
);
layerId = "6463F33F-C059-4755-9C76-9F35D70521A0";
paths = (
{
closed = 1;
nodes = (
"198 0 LINE",
"198 862 LINE SMOOTH",
"198 904 OFFCURVE",
"206 934 OFFCURVE",
"226 934 CURVE SMOOTH",
"246 934 OFFCURVE",
"256 906 OFFCURVE",
"256 864 CURVE SMOOTH",
"256 0 LINE",
"412 0 LINE",
"412 896 LINE SMOOTH",
"412 962 OFFCURVE",
"404 1110 OFFCURVE",
"304 1110 CURVE SMOOTH",
"270 1110 OFFCURVE",
"218 1068 OFFCURVE",
"198 1038 CURVE",
"198 1094 LINE",
"40 1094 LINE",
"40 0 LINE"
);
}
);
width = 452;
}
);
leftKerningGroup = n;
leftMetricsKey = h;
rightKerningGroup = n;
unicode = 006E;
},
{
color = 3;
glyphname = eng;
lastChange = "2021-11-24 16:09:43 +0000";
layers = (
{
components = (
{
name = n;
}
);
layerId = "6463F33F-C059-4755-9C76-9F35D70521A0";
paths = (
{
closed = 1;
nodes = (
"383 -376 OFFCURVE",
"412 -234 OFFCURVE",
"412 -28 CURVE SMOOTH",
"412 113 LINE",
"256 113 LINE",
"256 -26 LINE SMOOTH",
"256 -107 OFFCURVE",
"256 -186 OFFCURVE",
"206 -186 CURVE SMOOTH",
"188 -186 OFFCURVE",
"168 -181 OFFCURVE",
"161 -176 CURVE",
"161 -362 LINE",
"176 -371 OFFCURVE",
"202 -376 OFFCURVE",
"232 -376 CURVE SMOOTH"
);
}
);
width = 452;
},
{
components = (
{
name = n;
}
);
layerId = "1AB499B8-18A8-432D-A211-B6882CCB886D";
paths = (
{
closed = 1;
nodes = (
"526 -376 OFFCURVE",
"568 -234 OFFCURVE",
"568 -28 CURVE SMOOTH",
"568 113 LINE",
"366 113 LINE",
"366 -26 LINE SMOOTH",
"366 -107 OFFCURVE",
"366 -186 OFFCURVE",
"304 -186 CURVE SMOOTH",
"282 -186 OFFCURVE",
"256 -181 OFFCURVE",
"248 -176 CURVE",
"248 -362 LINE",
"267 -371 OFFCURVE",
"299 -376 OFFCURVE",
"336 -376 CURVE SMOOTH"
);
}
);
width = 618;
}
);
unicode = 014B;
},
{
color = 6;
glyphname = o;
lastChange = "2021-11-24 16:09:43 +0000";
layers = (
{
anchors = (
{
name = bottom;
position = "{299, 0}";
},
{
name = center;
position = "{299, 547}";
},
{
name = ogonek;
position = "{476, 59}";
},
{
name = top;
position = "{300, 1094}";
},
{
name = topright;
position = "{398, 1081}";
}
);
layerId = "1AB499B8-18A8-432D-A211-B6882CCB886D";
paths = (
{
closed = 1;
nodes = (
"459 -14 OFFCURVE",
"558 107 OFFCURVE",
"558 274 CURVE SMOOTH",
"558 822 LINE SMOOTH",
"558 989 OFFCURVE",
"459 1110 OFFCURVE",
"299 1110 CURVE SMOOTH",
"138 1110 OFFCURVE",
"40 989 OFFCURVE",
"40 822 CURVE SMOOTH",
"40 274 LINE SMOOTH",
"40 107 OFFCURVE",
"138 -14 OFFCURVE",
"299 -14 CURVE SMOOTH"
);
},
{
closed = 1;
nodes = (
"247 162 OFFCURVE",
"230 207 OFFCURVE",
"230 274 CURVE SMOOTH",
"230 822 LINE SMOOTH",
"230 889 OFFCURVE",
"247 934 OFFCURVE",
"299 934 CURVE SMOOTH",
"351 934 OFFCURVE",
"368 888 OFFCURVE",
"368 822 CURVE SMOOTH",
"368 274 LINE SMOOTH",
"368 208 OFFCURVE",
"351 162 OFFCURVE",
"299 162 CURVE SMOOTH"
);
}
);
width = 598;
},
{
anchors = (
{
name = bottom;
position = "{215, 0}";
},
{
name = center;
position = "{215, 547}";
},
{
name = ogonek;
position = "{346, 46}";
},
{
name = top;
position = "{234, 1094}";
},
{
name = topright;
position = "{276, 1081}";
}
);
layerId = "6463F33F-C059-4755-9C76-9F35D70521A0";
paths = (
{
closed = 1;
nodes = (
"345 -14 OFFCURVE",
"400 96 OFFCURVE",
"400 248 CURVE SMOOTH",
"400 848 LINE SMOOTH",
"400 1000 OFFCURVE",
"345 1110 OFFCURVE",
"215 1110 CURVE SMOOTH",
"85 1110 OFFCURVE",
"30 1000 OFFCURVE",
"30 848 CURVE SMOOTH",
"30 248 LINE SMOOTH",
"30 96 OFFCURVE",
"85 -14 OFFCURVE",
"215 -14 CURVE SMOOTH"
);
},
{
closed = 1;
nodes = (
"187 162 OFFCURVE",
"180 194 OFFCURVE",
"180 254 CURVE SMOOTH",
"180 842 LINE SMOOTH",
"180 902 OFFCURVE",
"187 934 OFFCURVE",
"216 934 CURVE SMOOTH",
"245 934 OFFCURVE",
"250 902 OFFCURVE",
"250 842 CURVE SMOOTH",
"250 254 LINE SMOOTH",
"250 194 OFFCURVE",
"245 162 OFFCURVE",
"216 162 CURVE SMOOTH"
);
}
);
width = 430;
}
);
leftKerningGroup = o;
rightKerningGroup = o;
unicode = 006F;
},
{
color = 3;
glyphname = oslash;
lastChange = "2021-11-24 16:09:43 +0000";
layers = (
{
anchors = (
{
name = top;
position = "{215, 1094}";
}
);
components = (
{
name = o;
}
);
layerId = "6463F33F-C059-4755-9C76-9F35D70521A0";
paths = (
{
closed = 1;
nodes = (
"108 -27 LINE",
"400 1087 LINE",
"306 1124 LINE",
"9 10 LINE"
);
}
);
width = 430;
},
{
anchors = (
{
name = top;
position = "{299, 1094}";
}
);
components = (
{
name = o;
}
);
layerId = "1AB499B8-18A8-432D-A211-B6882CCB886D";
paths = (
{
closed = 1;
nodes = (
"188 -36 LINE",
"540 1093 LINE",
"426 1143 LINE",
"69 14 LINE"
);
}
);
width = 598;
}
);
leftKerningGroup = o;
rightKerningGroup = o;
unicode = 00F8;
},
{
color = 3;
glyphname = oe;
lastChange = "2021-11-24 16:09:43 +0000";
layers = (
{
anchors = (
{
name = bottom;
position = "{327, 0}";
},
{
name = top;
position = "{327, 1094}";
}
);
components = (
{
name = e;
transform = "{1, 0, 0, 1, 221, 0}";
}
);
layerId = "6463F33F-C059-4755-9C76-9F35D70521A0";
paths = (
{
closed = 1;
nodes = (
"345 -14 OFFCURVE",
"400 96 OFFCURVE",
"400 248 CURVE SMOOTH",
"400 848 LINE SMOOTH",
"400 1000 OFFCURVE",
"345 1110 OFFCURVE",
"215 1110 CURVE SMOOTH",
"85 1110 OFFCURVE",
"30 1000 OFFCURVE",
"30 848 CURVE SMOOTH",
"30 248 LINE SMOOTH",
"30 96 OFFCURVE",
"85 -14 OFFCURVE",
"215 -14 CURVE SMOOTH"
);
},
{
closed = 1;
nodes = (
"187 162 OFFCURVE",
"180 194 OFFCURVE",
"180 254 CURVE SMOOTH",
"180 842 LINE SMOOTH",
"180 902 OFFCURVE",
"187 934 OFFCURVE",
"216 934 CURVE SMOOTH",
"245 934 OFFCURVE",
"250 902 OFFCURVE",
"250 842 CURVE SMOOTH",
"250 254 LINE SMOOTH",
"250 194 OFFCURVE",
"245 162 OFFCURVE",
"216 162 CURVE SMOOTH"
);
}
);
width = 653;
},
{
anchors = (
{
name = bottom;
position = "{467, 0}";
},
{
name = top;
position = "{467, 1094}";
}
);
components = (
{
name = e;
transform = "{1, 0, 0, 1, 331, 0}";
}
);
layerId = "1AB499B8-18A8-432D-A211-B6882CCB886D";
paths = (
{
closed = 1;
nodes = (
"459 -14 OFFCURVE",
"558 107 OFFCURVE",
"558 274 CURVE SMOOTH",
"558 822 LINE SMOOTH",
"558 989 OFFCURVE",
"459 1110 OFFCURVE",
"299 1110 CURVE SMOOTH",
"138 1110 OFFCURVE",
"40 989 OFFCURVE",
"40 822 CURVE SMOOTH",
"40 274 LINE SMOOTH",
"40 107 OFFCURVE",
"138 -14 OFFCURVE",
"299 -14 CURVE SMOOTH"
);
},
{
closed = 1;
nodes = (
"247 162 OFFCURVE",
"230 207 OFFCURVE",
"230 274 CURVE SMOOTH",
"230 822 LINE SMOOTH",
"230 889 OFFCURVE",
"247 934 OFFCURVE",
"299 934 CURVE SMOOTH",
"351 934 OFFCURVE",
"368 888 OFFCURVE",
"368 822 CURVE SMOOTH",
"368 274 LINE SMOOTH",
"368 208 OFFCURVE",
"351 162 OFFCURVE",
"299 162 CURVE SMOOTH"
);
}
);
width = 933;
}
);
leftKerningGroup = o;
leftMetricsKey = o;
rightKerningGroup = e;
rightMetricsKey = e;
unicode = 0153;
},
{
color = 6;
glyphname = p;
lastChange = "2021-11-24 16:09:43 +0000";
layers = (
{
anchors = (
{
name = bottom;
position = "{305, 0}";
},
{
name = top;
position = "{305, 1094}";
}
);
layerId = "1AB499B8-18A8-432D-A211-B6882CCB886D";
paths = (
{
closed = 1;
nodes = (
"252 -376 LINE",
"252 72 LINE",
"303 25 OFFCURVE",
"356 -16 OFFCURVE",
"412 -16 CURVE SMOOTH",
"512 -16 OFFCURVE",
"568 91 OFFCURVE",
"568 198 CURVE SMOOTH",
"568 896 LINE SMOOTH",
"568 1001 OFFCURVE",
"515 1110 OFFCURVE",
"412 1110 CURVE SMOOTH",
"361 1110 OFFCURVE",
"303 1070 OFFCURVE",
"252 1022 CURVE",
"252 1094 LINE",
"50 1094 LINE",
"50 -376 LINE"
);
},
{
closed = 1;
nodes = (
"292 174 OFFCURVE",
"252 208 OFFCURVE",
"252 240 CURVE SMOOTH",
"252 854 LINE SMOOTH",
"252 892 OFFCURVE",
"292 920 OFFCURVE",
"322 920 CURVE SMOOTH",
"352 920 OFFCURVE",
"366 894 OFFCURVE",
"366 844 CURVE SMOOTH",
"366 230 LINE SMOOTH",
"366 192 OFFCURVE",
"352 174 OFFCURVE",
"322 174 CURVE SMOOTH"
);
}
);
width = 608;
},
{
anchors = (
{
name = bottom;
position = "{241, 0}";
},
{
name = top;
position = "{241, 1094}";
}
);
layerId = "6463F33F-C059-4755-9C76-9F35D70521A0";
paths = (
{
closed = 1;
nodes = (
"198 -376 LINE",
"198 64 LINE",
"218 20 OFFCURVE",
"266 -16 OFFCURVE",
"302 -16 CURVE SMOOTH",
"400 -16 OFFCURVE",
"412 120 OFFCURVE",
"412 198 CURVE SMOOTH",
"412 906 LINE SMOOTH",
"412 1026 OFFCURVE",
"385 1110 OFFCURVE",
"312 1110 CURVE SMOOTH",
"276 1110 OFFCURVE",
"220 1073 OFFCURVE",
"198 1038 CURVE",
"198 1094 LINE",
"40 1094 LINE",
"40 -376 LINE"
);
},
{
closed = 1;
nodes = (
"213 174 OFFCURVE",
"198 189 OFFCURVE",
"198 235 CURVE SMOOTH",
"198 870 LINE SMOOTH",
"198 908 OFFCURVE",
"211 934 OFFCURVE",
"233 934 CURVE SMOOTH",
"255 934 OFFCURVE",
"256 898 OFFCURVE",
"256 860 CURVE SMOOTH",
"256 240 LINE SMOOTH",
"256 196 OFFCURVE",
"253 174 OFFCURVE",
"233 174 CURVE SMOOTH"
);
}
);
width = 442;
}
);
leftKerningGroup = n;
leftMetricsKey = n;
rightKerningGroup = o;
rightMetricsKey = o;
unicode = 0070;
},
{
color = 3;
glyphname = thorn;
lastChange = "2021-11-24 16:09:43 +0000";
layers = (
{
components = (
{
name = p;
}
);
layerId = "1AB499B8-18A8-432D-A211-B6882CCB886D";
paths = (
{
closed = 1;
nodes = (
"50 1069 LINE",
"252 1069 LINE",
"252 1470 LINE",
"50 1470 LINE"
);
}
);
width = 608;
},
{
components = (
{
name = p;
}
);
layerId = "6463F33F-C059-4755-9C76-9F35D70521A0";
paths = (
{
closed = 1;
nodes = (
"40 1069 LINE",
"198 1069 LINE",
"198 1470 LINE",
"40 1470 LINE"
);
}
);
width = 442;
}
);
leftKerningGroup = p;
rightKerningGroup = o;
unicode = 00FE;
},
{
color = 6;
glyphname = q;
lastChange = "2021-11-24 16:09:43 +0000";
layers = (
{
anchors = (
{
name = bottom;
position = "{303, 0}";
},
{
name = top;
position = "{303, 1094}";
}
);
layerId = "1AB499B8-18A8-432D-A211-B6882CCB886D";
paths = (
{
closed = 1;
nodes = (
"558 -376 LINE",
"558 1094 LINE",
"356 1094 LINE",
"356 1022 LINE",
"305 1070 OFFCURVE",
"247 1110 OFFCURVE",
"196 1110 CURVE SMOOTH",
"93 1110 OFFCURVE",
"40 1001 OFFCURVE",
"40 896 CURVE SMOOTH",
"40 198 LINE SMOOTH",
"40 91 OFFCURVE",
"96 -16 OFFCURVE",
"196 -16 CURVE SMOOTH",
"252 -16 OFFCURVE",
"305 25 OFFCURVE",
"356 72 CURVE",
"356 -376 LINE"
);
},
{
closed = 1;
nodes = (
"256 174 OFFCURVE",
"242 192 OFFCURVE",
"242 230 CURVE SMOOTH",
"242 844 LINE SMOOTH",
"242 894 OFFCURVE",
"256 920 OFFCURVE",
"286 920 CURVE SMOOTH",
"316 920 OFFCURVE",
"356 892 OFFCURVE",
"356 854 CURVE SMOOTH",
"356 240 LINE SMOOTH",
"356 208 OFFCURVE",
"316 174 OFFCURVE",
"286 174 CURVE SMOOTH"
);
}
);
width = 608;
},
{
anchors = (
{
name = bottom;
position = "{231, 0}";
},
{
name = top;
position = "{231, 1094}";
}
);
layerId = "6463F33F-C059-4755-9C76-9F35D70521A0";
paths = (
{
closed = 1;
nodes = (
"402 -376 LINE",
"402 1094 LINE",
"244 1094 LINE",
"244 1038 LINE",
"222 1073 OFFCURVE",
"166 1110 OFFCURVE",
"130 1110 CURVE SMOOTH",
"57 1110 OFFCURVE",
"30 1026 OFFCURVE",
"30 906 CURVE SMOOTH",
"30 198 LINE SMOOTH",
"30 120 OFFCURVE",
"42 -16 OFFCURVE",
"140 -16 CURVE SMOOTH",
"176 -16 OFFCURVE",
"224 20 OFFCURVE",
"244 64 CURVE",
"244 -376 LINE"
);
},
{
closed = 1;
nodes = (
"189 174 OFFCURVE",
"186 196 OFFCURVE",
"186 240 CURVE SMOOTH",
"186 860 LINE SMOOTH",
"186 898 OFFCURVE",
"187 934 OFFCURVE",
"209 934 CURVE SMOOTH",
"231 934 OFFCURVE",
"244 908 OFFCURVE",
"244 870 CURVE SMOOTH",
"244 235 LINE SMOOTH",
"244 189 OFFCURVE",
"229 174 OFFCURVE",
"209 174 CURVE SMOOTH"
);
}
);
width = 442;
}
);
leftKerningGroup = o;
leftMetricsKey = o;
rightMetricsKey = n;
unicode = 0071;
},
{
color = 6;
glyphname = r;
lastChange = "2021-11-24 16:09:43 +0000";
layers = (
{
anchors = (
{
name = bottom;
position = "{216, 0}";
},
{
name = top;
position = "{281, 1094}";
}
);
layerId = "1AB499B8-18A8-432D-A211-B6882CCB886D";
paths = (
{
closed = 1;
nodes = (
"252 0 LINE",
"252 760 LINE SMOOTH",
"252 842 OFFCURVE",
"310 894 OFFCURVE",
"398 894 CURVE SMOOTH",
"416 894 OFFCURVE",
"436 892 OFFCURVE",
"454 886 CURVE",
"454 1110 LINE",
"364 1110 OFFCURVE",
"263 1051 OFFCURVE",
"252 972 CURVE",
"252 1094 LINE",
"50 1094 LINE",
"50 0 LINE"
);
}
);
width = 474;
},
{
anchors = (
{
name = bottom;
position = "{188, 0}";
},
{
name = top;
position = "{194, 1094}";
}
);
layerId = "6463F33F-C059-4755-9C76-9F35D70521A0";
paths = (
{
closed = 1;
nodes = (
"194 0 LINE",
"194 760 LINE SMOOTH",
"194 828 OFFCURVE",
"243 877 OFFCURVE",
"291 877 CURVE SMOOTH",
"304 877 OFFCURVE",
"316 875 OFFCURVE",
"328 870 CURVE",
"328 1110 LINE",
"260 1110 OFFCURVE",
"216 1045 OFFCURVE",
"194 1007 CURVE",
"194 1094 LINE",
"40 1094 LINE",
"40 0 LINE"
);
}
);
width = 343;
}
);
leftKerningGroup = n;
leftMetricsKey = n;
rightKerningGroup = r;
unicode = 0072;
},
{
color = 6;
glyphname = s;
lastChange = "2021-11-24 16:09:43 +0000";
layers = (
{
anchors = (
{
name = bottom;
position = "{302, 0}";
},
{
name = top;
position = "{302, 1094}";
}
);
layerId = "1AB499B8-18A8-432D-A211-B6882CCB886D";
paths = (
{
closed = 1;
nodes = (
"474 -16 OFFCURVE",
"570 108 OFFCURVE",
"570 284 CURVE SMOOTH",
"570 418 OFFCURVE",
"467 531 OFFCURVE",
"363 633 CURVE SMOOTH",
"280 714 OFFCURVE",
"248 760 OFFCURVE",
"248 834 CURVE SMOOTH",
"248 897 OFFCURVE",
"266 942 OFFCURVE",
"314 942 CURVE SMOOTH",
"373 942 OFFCURVE",
"380 883 OFFCURVE",
"380 814 CURVE",
"568 814 LINE",
"568 1006 OFFCURVE",
"503 1110 OFFCURVE",
"310 1110 CURVE SMOOTH",
"150 1110 OFFCURVE",
"60 999 OFFCURVE",
"60 834 CURVE SMOOTH",
"60 694 OFFCURVE",
"140 600 OFFCURVE",
"248 493 CURVE SMOOTH",
"310 431 OFFCURVE",
"382 348 OFFCURVE",
"382 274 CURVE SMOOTH",
"382 210 OFFCURVE",
"370 152 OFFCURVE",
"312 152 CURVE SMOOTH",
"244 152 OFFCURVE",
"218 228 OFFCURVE",
"218 318 CURVE",
"30 318 LINE",
"30 119 OFFCURVE",
"122 -16 OFFCURVE",
"312 -16 CURVE SMOOTH"
);
}
);
width = 600;
},
{
anchors = (
{
name = bottom;
position = "{232, 0}";
},
{
name = top;
position = "{232, 1094}";
}
);
layerId = "6463F33F-C059-4755-9C76-9F35D70521A0";
paths = (
{
closed = 1;
nodes = (
"358 -16 OFFCURVE",
"384 154 OFFCURVE",
"384 248 CURVE SMOOTH",
"384 400 OFFCURVE",
"310 520 OFFCURVE",
"254 608 CURVE SMOOTH",
"218 664 OFFCURVE",
"182 742 OFFCURVE",
"182 828 CURVE SMOOTH",
"182 890 OFFCURVE",
"193 942 OFFCURVE",
"217 942 CURVE SMOOTH",
"247 942 OFFCURVE",
"252 888 OFFCURVE",
"252 814 CURVE",
"388 814 LINE",
"388 922 OFFCURVE",
"376 1110 OFFCURVE",
"212 1110 CURVE SMOOTH",
"92 1110 OFFCURVE",
"34 990 OFFCURVE",
"34 850 CURVE SMOOTH",
"34 708 OFFCURVE",
"85 603 OFFCURVE",
"147 499 CURVE SMOOTH",
"195 419 OFFCURVE",
"234 344 OFFCURVE",
"234 274 CURVE SMOOTH",
"234 200 OFFCURVE",
"230 152 OFFCURVE",
"202 152 CURVE SMOOTH",
"174 152 OFFCURVE",
"164 228 OFFCURVE",
"164 318 CURVE",
"20 318 LINE",
"20 170 OFFCURVE",
"32 -16 OFFCURVE",
"202 -16 CURVE SMOOTH"
);
}
);
width = 408;
}
);
leftKerningGroup = s;
unicode = 0073;
},
{
color = 6;
glyphname = germandbls;
lastChange = "2021-11-24 16:09:43 +0000";
layers = (
{
anchors = (
{
name = bottom;
position = "{354, 0}";
},
{
name = top;
position = "{354, 1094}";
}
);
layerId = "1AB499B8-18A8-432D-A211-B6882CCB886D";
paths = (
{
closed = 1;
nodes = (
"262 0 LINE",
"262 1206 LINE SMOOTH",
"262 1260 OFFCURVE",
"288 1306 OFFCURVE",
"338 1306 CURVE SMOOTH",
"396 1306 OFFCURVE",
"418 1262 OFFCURVE",
"418 1208 CURVE SMOOTH",
"418 1138 OFFCURVE",
"380 1094 OFFCURVE",
"334 1094 CURVE",
"334 956 LINE",
"374 956 OFFCURVE",
"408 942 OFFCURVE",
"428 886 CURVE SMOOTH",
"448 830 OFFCURVE",
"458 732 OFFCURVE",
"458 562 CURVE SMOOTH",
"458 402 OFFCURVE",
"448 308 OFFCURVE",
"428 254 CURVE SMOOTH",
"408 200 OFFCURVE",
"374 188 OFFCURVE",
"334 188 CURVE",
"334 0 LINE",
"438 0 OFFCURVE",
"520 18 OFFCURVE",
"576 98 CURVE SMOOTH",
"632 178 OFFCURVE",
"660 320 OFFCURVE",
"660 562 CURVE SMOOTH",
"660 708 OFFCURVE",
"646 816 OFFCURVE",
"620 892 CURVE SMOOTH",
"594 968 OFFCURVE",
"558 1012 OFFCURVE",
"512 1038 CURVE",
"566 1078 OFFCURVE",
"598 1136 OFFCURVE",
"598 1208 CURVE SMOOTH",
"598 1372 OFFCURVE",
"504 1486 OFFCURVE",
"334 1486 CURVE SMOOTH",
"169 1486 OFFCURVE",
"60 1381 OFFCURVE",
"60 1206 CURVE SMOOTH",
"60 0 LINE"
);
}
);
width = 700;
},
{
anchors = (
{
name = bottom;
position = "{277, 0}";
},
{
name = top;
position = "{277, 1094}";
}
);
layerId = "6463F33F-C059-4755-9C76-9F35D70521A0";
paths = (
{
closed = 1;
nodes = (
"198 0 LINE",
"198 1206 LINE SMOOTH",
"198 1266 OFFCURVE",
"212 1306 OFFCURVE",
"242 1306 CURVE SMOOTH",
"276 1306 OFFCURVE",
"296 1262 OFFCURVE",
"296 1208 CURVE SMOOTH",
"296 1138 OFFCURVE",
"272 1094 OFFCURVE",
"244 1094 CURVE",
"244 956 LINE",
"268 956 OFFCURVE",
"290 942 OFFCURVE",
"302 886 CURVE SMOOTH",
"314 830 OFFCURVE",
"320 732 OFFCURVE",
"320 562 CURVE SMOOTH",
"320 402 OFFCURVE",
"314 308 OFFCURVE",
"302 254 CURVE SMOOTH",
"290 200 OFFCURVE",
"268 188 OFFCURVE",
"244 188 CURVE",
"244 0 LINE",
"330 0 OFFCURVE",
"392 18 OFFCURVE",
"426 98 CURVE SMOOTH",
"460 178 OFFCURVE",
"476 320 OFFCURVE",
"476 562 CURVE SMOOTH",
"476 708 OFFCURVE",
"469 816 OFFCURVE",
"452 892 CURVE SMOOTH",
"438 956 OFFCURVE",
"412 1006 OFFCURVE",
"382 1038 CURVE",
"418 1082 OFFCURVE",
"440 1142 OFFCURVE",
"440 1208 CURVE SMOOTH",
"440 1334 OFFCURVE",
"398 1486 OFFCURVE",
"242 1486 CURVE SMOOTH",
"100 1486 OFFCURVE",
"40 1348 OFFCURVE",
"40 1206 CURVE SMOOTH",
"40 0 LINE"
);
}
);
width = 506;
}
);
leftKerningGroup = l;
leftMetricsKey = l;
rightKerningGroup = o;
rightMetricsKey = o;
unicode = 00DF;
},
{
color = 6;
glyphname = longs;
lastChange = "2021-11-24 16:09:43 +0000";
layers = (
{
layerId = "1AB499B8-18A8-432D-A211-B6882CCB886D";
paths = (
{
closed = 1;
nodes = (
"190 0 LINE",
"190 1130 LINE SMOOTH",
"190 1256 OFFCURVE",
"226 1290 OFFCURVE",
"322 1290 CURVE SMOOTH",
"352 1290 OFFCURVE",
"380 1288 OFFCURVE",
"408 1282 CURVE",
"432 1438 LINE",
"380 1448 OFFCURVE",
"332 1454 OFFCURVE",
"290 1454 CURVE SMOOTH",
"140 1454 OFFCURVE",
"36 1388 OFFCURVE",
"36 1146 CURVE SMOOTH",
"36 0 LINE"
);
}
);
width = 464;
},
{
layerId = "6463F33F-C059-4755-9C76-9F35D70521A0";
paths = (
{
closed = 1;
nodes = (
"132 0 LINE",
"132 1130 LINE SMOOTH",
"132 1256 OFFCURVE",
"148 1290 OFFCURVE",
"194 1290 CURVE SMOOTH",
"212 1290 OFFCURVE",
"232 1286 OFFCURVE",
"262 1274 CURVE",
"278 1434 LINE",
"238 1448 OFFCURVE",
"204 1454 OFFCURVE",
"174 1454 CURVE SMOOTH",
"72 1454 OFFCURVE",
"4 1388 OFFCURVE",
"4 1146 CURVE SMOOTH",
"4 0 LINE"
);
}
);
width = 338;
}
);
unicode = 017F;
},
{
color = 6;
glyphname = t;
lastChange = "2021-11-24 16:09:43 +0000";
layers = (
{
anchors = (
{
name = bottom;
position = "{298, 0}";
},
{
name = center;
position = "{226, 669}";
},
{
name = top;
position = "{235, 1363}";
},
{
name = topright;
position = "{460, 1094}";
}
);
layerId = "1AB499B8-18A8-432D-A211-B6882CCB886D";
paths = (
{
closed = 1;
nodes = (
"399 -16 OFFCURVE",
"425 -8 OFFCURVE",
"452 3 CURVE",
"452 188 LINE",
"440 183 OFFCURVE",
"420 178 OFFCURVE",
"395 178 CURVE SMOOTH",
"337 178 OFFCURVE",
"314 217 OFFCURVE",
"314 303 CURVE SMOOTH",
"314 912 LINE",
"453 912 LINE",
"453 1094 LINE",
"314 1094 LINE",
"314 1364 LINE",
"112 1364 LINE",
"112 1094 LINE",
"10 1094 LINE",
"10 912 LINE",
"112 912 LINE",
"112 332 LINE SMOOTH",
"112 115 OFFCURVE",
"154 -16 OFFCURVE",
"344 -16 CURVE SMOOTH"
);
}
);
width = 463;
},
{
anchors = (
{
name = bottom;
position = "{267, 0}";
},
{
name = center;
position = "{191, 671}";
},
{
name = top;
position = "{175, 1365}";
},
{
name = topright;
position = "{374, 1094}";
}
);
layerId = "6463F33F-C059-4755-9C76-9F35D70521A0";
paths = (
{
closed = 1;
nodes = (
"320 -16 OFFCURVE",
"341 -8 OFFCURVE",
"363 3 CURVE",
"363 188 LINE",
"353 183 OFFCURVE",
"337 178 OFFCURVE",
"317 178 CURVE SMOOTH",
"269 178 OFFCURVE",
"260 217 OFFCURVE",
"260 303 CURVE SMOOTH",
"260 912 LINE",
"374 912 LINE",
"374 1094 LINE",
"260 1094 LINE",
"260 1364 LINE",
"94 1364 LINE",
"94 1094 LINE",
"10 1094 LINE",
"10 912 LINE",
"94 912 LINE",
"94 312 LINE SMOOTH",
"94 95 OFFCURVE",
"148 -16 OFFCURVE",
"275 -16 CURVE SMOOTH"
);
}
);
width = 384;
}
);
leftMetricsKey = f;
rightMetricsKey = f;
unicode = 0074;
},
{
color = 3;
glyphname = tbar;
lastChange = "2021-11-24 16:09:43 +0000";
layers = (
{
components = (
{
name = t;
}
);
layerId = "6463F33F-C059-4755-9C76-9F35D70521A0";
paths = (
{
closed = 1;
nodes = (
"344 589 LINE",
"344 743 LINE",
"40 743 LINE",
"40 589 LINE"
);
}
);
width = 414;
},
{
components = (
{
name = t;
}
);
layerId = "1AB499B8-18A8-432D-A211-B6882CCB886D";
paths = (
{
closed = 1;
nodes = (
"430 589 LINE",
"430 743 LINE",
"50 743 LINE",
"50 589 LINE"
);
}
);
width = 493;
}
);
unicode = 0167;
},
{
color = 6;
glyphname = u;
lastChange = "2021-11-24 16:09:43 +0000";
layers = (
{
anchors = (
{
name = bottom;
position = "{309, 0}";
},
{
name = ogonek;
position = "{568, 0}";
},
{
name = top;
position = "{312, 1094}";
},
{
name = topright;
position = "{526, 1094}";
}
);
layerId = "1AB499B8-18A8-432D-A211-B6882CCB886D";
paths = (
{
closed = 1;
nodes = (
"253 -16 OFFCURVE",
"318 46 OFFCURVE",
"366 92 CURVE",
"366 0 LINE",
"568 0 LINE",
"568 1094 LINE",
"366 1094 LINE",
"366 232 LINE",
"349 204 OFFCURVE",
"329 180 OFFCURVE",
"300 180 CURVE SMOOTH",
"266 180 OFFCURVE",
"252 196 OFFCURVE",
"252 238 CURVE SMOOTH",
"252 1094 LINE",
"50 1094 LINE",
"50 198 LINE SMOOTH",
"50 95 OFFCURVE",
"102 -16 OFFCURVE",
"202 -16 CURVE SMOOTH"
);
}
);
width = 618;
},
{
anchors = (
{
name = bottom;
position = "{250, 0}";
},
{
name = ogonek;
position = "{412, 0}";
},
{
name = top;
position = "{250, 1094}";
},
{
name = topright;
position = "{369, 1094}";
}
);
layerId = "6463F33F-C059-4755-9C76-9F35D70521A0";
paths = (
{
closed = 1;
nodes = (
"182 -16 OFFCURVE",
"234 26 OFFCURVE",
"254 56 CURVE",
"254 0 LINE",
"412 0 LINE",
"412 1094 LINE",
"254 1094 LINE",
"254 232 LINE SMOOTH",
"254 190 OFFCURVE",
"246 160 OFFCURVE",
"226 160 CURVE SMOOTH",
"206 160 OFFCURVE",
"196 188 OFFCURVE",
"196 230 CURVE SMOOTH",
"196 1094 LINE",
"40 1094 LINE",
"40 198 LINE SMOOTH",
"40 132 OFFCURVE",
"48 -16 OFFCURVE",
"148 -16 CURVE SMOOTH"
);
}
);
width = 452;
}
);
leftKerningGroup = o;
leftMetricsKey = n;
rightKerningGroup = u;
rightMetricsKey = n;
unicode = 0075;
},
{
color = 6;
glyphname = v;
lastChange = "2021-11-24 16:09:43 +0000";
layers = (
{
anchors = (
{
name = bottom;
position = "{293, 0}";
},
{
name = top;
position = "{293, 1094}";
}
);
layerId = "1AB499B8-18A8-432D-A211-B6882CCB886D";
paths = (
{
closed = 1;
nodes = (
"393 0 LINE",
"571 1094 LINE",
"375 1094 LINE",
"307 460 LINE",
"301 350 LINE",
"285 350 LINE",
"279 460 LINE",
"211 1094 LINE",
"15 1094 LINE",
"193 0 LINE"
);
}
);
width = 586;
},
{
anchors = (
{
name = bottom;
position = "{200, 0}";
},
{
name = top;
position = "{200, 1094}";
}
);
layerId = "6463F33F-C059-4755-9C76-9F35D70521A0";
paths = (
{
closed = 1;
nodes = (
"277 0 LINE",
"395 1094 LINE",
"247 1094 LINE",
"203 474 LINE",
"201 412 LINE",
"197 412 LINE",
"195 474 LINE",
"153 1094 LINE",
"5 1094 LINE",
"121 0 LINE"
);
}
);
width = 400;
}
);
leftKerningGroup = v;
rightKerningGroup = v;
unicode = 0076;
},
{
color = 6;
glyphname = w;
lastChange = "2021-11-24 16:09:43 +0000";
layers = (
{
anchors = (
{
name = bottom;
position = "{437, 0}";
},
{
name = top;
position = "{437, 1094}";
}
);
layerId = "1AB499B8-18A8-432D-A211-B6882CCB886D";
paths = (
{
closed = 1;
nodes = (
"345 0 LINE",
"423 522 LINE",
"433 624 LINE",
"441 624 LINE",
"451 522 LINE",
"529 0 LINE",
"697 0 LINE",
"859 1094 LINE",
"665 1094 LINE",
"611 522 LINE",
"603 410 LINE",
"591 410 LINE",
"581 522 LINE",
"497 1094 LINE",
"377 1094 LINE",
"293 522 LINE",
"283 410 LINE",
"271 410 LINE",
"263 522 LINE",
"209 1094 LINE",
"15 1094 LINE",
"177 0 LINE"
);
}
);
width = 874;
},
{
anchors = (
{
name = bottom;
position = "{276, 0}";
},
{
name = top;
position = "{280, 1094}";
}
);
layerId = "6463F33F-C059-4755-9C76-9F35D70521A0";
paths = (
{
closed = 1;
nodes = (
"231 0 LINE",
"270 499 LINE",
"273 570 LINE",
"277 570 LINE",
"280 499 LINE",
"321 0 LINE",
"461 0 LINE",
"547 1094 LINE",
"395 1094 LINE",
"379 626 LINE",
"377 542 LINE",
"373 542 LINE",
"369 626 LINE",
"325 1094 LINE",
"229 1094 LINE",
"183 626 LINE",
"179 542 LINE",
"175 542 LINE",
"173 626 LINE",
"157 1094 LINE",
"5 1094 LINE",
"93 0 LINE"
);
}
);
width = 552;
}
);
leftKerningGroup = v;
leftMetricsKey = v;
rightKerningGroup = v;
rightMetricsKey = v;
unicode = 0077;
},
{
color = 6;
glyphname = x;
lastChange = "2021-11-24 16:09:43 +0000";
layers = (
{
anchors = (
{
name = bottom;
position = "{301, 0}";
},
{
name = top;
position = "{301, 1094}";
}
);
layerId = "1AB499B8-18A8-432D-A211-B6882CCB886D";
paths = (
{
closed = 1;
nodes = (
"211 0 LINE",
"293 286 LINE",
"299 326 LINE",
"303 326 LINE",
"309 286 LINE",
"391 0 LINE",
"587 0 LINE",
"399 564 LINE",
"571 1094 LINE",
"381 1094 LINE",
"309 828 LINE",
"303 788 LINE",
"299 788 LINE",
"293 828 LINE",
"221 1094 LINE",
"31 1094 LINE",
"203 564 LINE",
"15 0 LINE"
);
}
);
width = 602;
},
{
anchors = (
{
name = bottom;
position = "{205, 0}";
},
{
name = top;
position = "{205, 1094}";
}
);
layerId = "6463F33F-C059-4755-9C76-9F35D70521A0";
paths = (
{
closed = 1;
nodes = (
"173 0 LINE",
"194 244 LINE",
"201 336 LINE",
"205 336 LINE",
"212 244 LINE",
"237 0 LINE",
"393 0 LINE",
"291 564 LINE",
"405 1094 LINE",
"247 1094 LINE",
"213 863 LINE",
"205 780 LINE",
"201 780 LINE",
"193 863 LINE",
"163 1094 LINE",
"5 1094 LINE",
"117 564 LINE",
"15 0 LINE"
);
}
);
width = 410;
}
);
leftKerningGroup = x;
leftMetricsKey = v;
rightKerningGroup = x;
rightMetricsKey = v;
unicode = 0078;
},
{
color = 6;
glyphname = y;
lastChange = "2021-11-24 16:09:43 +0000";
layers = (
{
anchors = (
{
name = bottom;
position = "{533, 0}";
},
{
name = top;
position = "{301, 1094}";
}
);
layerId = "1AB499B8-18A8-432D-A211-B6882CCB886D";
paths = (
{
closed = 1;
nodes = (
"265 -392 OFFCURVE",
"370 -259 OFFCURVE",
"393 -82 CURVE",
"587 1094 LINE",
"389 1094 LINE",
"309 412 LINE",
"305 336 LINE",
"297 336 LINE",
"293 412 LINE",
"213 1094 LINE",
"15 1094 LINE",
"201 -32 LINE",
"201 -52 OFFCURVE",
"201 -82 OFFCURVE",
"195 -102 CURVE SMOOTH",
"176 -169 OFFCURVE",
"131 -212 OFFCURVE",
"56 -212 CURVE SMOOTH",
"51 -212 OFFCURVE",
"27 -210 OFFCURVE",
"23 -208 CURVE",
"23 -387 LINE",
"46 -391 OFFCURVE",
"71 -392 OFFCURVE",
"89 -392 CURVE SMOOTH"
);
}
);
width = 602;
},
{
anchors = (
{
name = bottom;
position = "{413, 0}";
},
{
name = top;
position = "{218, 1094}";
}
);
layerId = "6463F33F-C059-4755-9C76-9F35D70521A0";
paths = (
{
closed = 1;
nodes = (
"217 -396 OFFCURVE",
"270 -243 OFFCURVE",
"289 -82 CURVE SMOOTH",
"425 1094 LINE",
"269 1094 LINE",
"222 492 LINE",
"219 398 LINE",
"215 398 LINE",
"211 492 LINE",
"159 1094 LINE",
"5 1094 LINE",
"137 -32 LINE",
"137 -82 OFFCURVE",
"132 -149 OFFCURVE",
"101 -197 CURVE SMOOTH",
"92 -210 OFFCURVE",
"78 -215 OFFCURVE",
"62 -215 CURVE SMOOTH",
"53 -215 OFFCURVE",
"42 -213 OFFCURVE",
"31 -208 CURVE",
"31 -386 LINE",
"49 -393 OFFCURVE",
"67 -396 OFFCURVE",
"84 -396 CURVE SMOOTH"
);
}
);
width = 430;
}
);
leftKerningGroup = v;
leftMetricsKey = v;
rightKerningGroup = v;
rightMetricsKey = v;
unicode = 0079;
},
{
color = 6;
glyphname = z;
lastChange = "2021-11-24 16:09:43 +0000";
layers = (
{
anchors = (
{
name = bottom;
position = "{298, 0}";
},
{
name = center;
position = "{298, 547}";
},
{
name = top;
position = "{298, 1094}";
}
);
layerId = "1AB499B8-18A8-432D-A211-B6882CCB886D";
paths = (
{
closed = 1;
nodes = (
"542 0 LINE",
"542 184 LINE",
"264 184 LINE",
"542 930 LINE",
"542 1094 LINE",
"94 1094 LINE",
"94 910 LINE",
"328 910 LINE",
"50 164 LINE",
"50 0 LINE"
);
}
);
width = 592;
},
{
anchors = (
{
name = bottom;
position = "{236, 0}";
},
{
name = center;
position = "{236, 547}";
},
{
name = top;
position = "{236, 1094}";
}
);
layerId = "6463F33F-C059-4755-9C76-9F35D70521A0";
paths = (
{
closed = 1;
nodes = (
"370 0 LINE",
"370 184 LINE",
"204 184 LINE",
"370 930 LINE",
"370 1094 LINE",
"66 1094 LINE",
"66 910 LINE",
"206 910 LINE",
"40 164 LINE",
"40 0 LINE"
);
}
);
width = 410;
}
);
leftMetricsKey = n;
rightMetricsKey = n;
unicode = 007A;
},
{
color = 3;
glyphname = fi;
lastChange = "2021-11-24 16:09:43 +0000";
layers = (
{
anchors = (
{
name = caret_1;
position = "{377, 0}";
}
);
components = (
{
name = f;
}
);
layerId = "1AB499B8-18A8-432D-A211-B6882CCB886D";
paths = (
{
closed = 1;
nodes = (
"405 1094 LINE",
"405 912 LINE",
"472 912 LINE",
"472 0 LINE",
"674 0 LINE",
"674 1094 LINE"
);
}
);
width = 734;
},
{
anchors = (
{
name = caret_1;
position = "{256, 0}";
}
);
components = (
{
name = f;
}
);
layerId = "6463F33F-C059-4755-9C76-9F35D70521A0";
paths = (
{
closed = 1;
nodes = (
"250 1094 LINE",
"250 912 LINE",
"274 912 LINE",
"274 0 LINE",
"430 0 LINE",
"430 1094 LINE"
);
}
);
width = 470;
}
);
leftKerningGroup = f;
leftMetricsKey = f;
rightKerningGroup = i;
rightMetricsKey = i;
unicode = FB01;
},
{
color = 6;
glyphname = fl;
lastChange = "2021-11-24 16:09:43 +0000";
layers = (
{
anchors = (
{
name = caret_1;
position = "{367, 0}";
}
);
layerId = "1AB499B8-18A8-432D-A211-B6882CCB886D";
paths = (
{
closed = 1;
nodes = (
"314 0 LINE",
"314 912 LINE",
"416 912 LINE",
"416 1094 LINE",
"314 1094 LINE",
"314 1172 LINE SMOOTH",
"314 1238 OFFCURVE",
"336 1302 OFFCURVE",
"396 1302 CURVE SMOOTH",
"426 1302 OFFCURVE",
"444 1300 OFFCURVE",
"462 1298 CURVE",
"462 0 LINE",
"664 0 LINE",
"664 1470 LINE",
"504 1470 LINE",
"478 1477 OFFCURVE",
"418 1484 OFFCURVE",
"360 1484 CURVE SMOOTH",
"158 1484 OFFCURVE",
"112 1342 OFFCURVE",
"112 1124 CURVE SMOOTH",
"112 1094 LINE",
"10 1094 LINE",
"10 912 LINE",
"112 912 LINE",
"112 0 LINE"
);
}
);
width = 724;
},
{
anchors = (
{
name = caret_1;
position = "{244, 0}";
}
);
layerId = "6463F33F-C059-4755-9C76-9F35D70521A0";
paths = (
{
closed = 1;
nodes = (
"228 0 LINE",
"228 912 LINE",
"304 912 LINE",
"304 1094 LINE",
"228 1094 LINE",
"228 1180 LINE SMOOTH",
"228 1243 OFFCURVE",
"233 1301 OFFCURVE",
"269 1301 CURVE SMOOTH",
"276 1301 OFFCURVE",
"283 1300 OFFCURVE",
"290 1298 CURVE",
"290 0 LINE",
"448 0 LINE",
"448 1470 LINE",
"290 1470 LINE",
"279 1474 OFFCURVE",
"257 1478 OFFCURVE",
"238 1478 CURVE SMOOTH",
"116 1478 OFFCURVE",
"72 1328 OFFCURVE",
"72 1194 CURVE SMOOTH",
"72 1094 LINE",
"10 1094 LINE",
"10 912 LINE",
"72 912 LINE",
"72 0 LINE"
);
}
);
width = 488;
}
);
leftKerningGroup = f;
leftMetricsKey = f;
rightKerningGroup = l;
rightMetricsKey = l;
unicode = FB02;
},
{
color = 6;
glyphname = ordfeminine;
lastChange = "2021-11-24 16:09:43 +0000";
layers = (
{
layerId = "6463F33F-C059-4755-9C76-9F35D70521A0";
paths = (
{
closed = 1;
nodes = (
"89 539 OFFCURVE",
"109 556 OFFCURVE",
"118 580 CURVE",
"119 580 LINE",
"119 576 OFFCURVE",
"127 553 OFFCURVE",
"130 547 CURVE",
"197 547 LINE",
"193 589 OFFCURVE",
"192 612 OFFCURVE",
"192 642 CURVE SMOOTH",
"192 978 LINE SMOOTH",
"192 1051 OFFCURVE",
"157 1102 OFFCURVE",
"108 1102 CURVE SMOOTH",
"56 1102 OFFCURVE",
"15 1043 OFFCURVE",
"15 966 CURVE SMOOTH",
"15 933 LINE",
"91 933 LINE",
"91 986 OFFCURVE",
"96 1015 OFFCURVE",
"105 1015 CURVE SMOOTH",
"113 1015 OFFCURVE",
"118 996 OFFCURVE",
"118 969 CURVE SMOOTH",
"118 910 LINE",
"109 894 OFFCURVE",
"100 883 OFFCURVE",
"86 871 CURVE SMOOTH",
"34 827 OFFCURVE",
"10 766 OFFCURVE",
"10 674 CURVE SMOOTH",
"10 588 OFFCURVE",
"31 539 OFFCURVE",
"67 539 CURVE SMOOTH"
);
},
{
closed = 1;
nodes = (
"87 634 OFFCURVE",
"82 649 OFFCURVE",
"82 675 CURVE SMOOTH",
"82 720 OFFCURVE",
"98 775 OFFCURVE",
"117 798 CURVE",
"117 671 LINE SMOOTH",
"117 652 OFFCURVE",
"107 634 OFFCURVE",
"96 634 CURVE SMOOTH"
);
}
);
width = 273;
},
{
layerId = "1AB499B8-18A8-432D-A211-B6882CCB886D";
paths = (
{
closed = 1;
nodes = (
"163 539 OFFCURVE",
"191 558 OFFCURVE",
"210 591 CURVE",
"217 591 LINE",
"217 571 OFFCURVE",
"221 554 OFFCURVE",
"226 547 CURVE",
"325 547 LINE",
"320 585 OFFCURVE",
"318 609 OFFCURVE",
"318 642 CURVE SMOOTH",
"318 978 LINE SMOOTH",
"318 1048 OFFCURVE",
"264 1102 OFFCURVE",
"195 1102 CURVE SMOOTH",
"120 1102 OFFCURVE",
"59 1037 OFFCURVE",
"59 956 CURVE SMOOTH",
"59 933 LINE",
"160 933 LINE",
"160 998 OFFCURVE",
"166 1014 OFFCURVE",
"189 1014 CURVE SMOOTH",
"210 1014 OFFCURVE",
"217 1001 OFFCURVE",
"217 964 CURVE SMOOTH",
"217 904 LINE",
"204 892 OFFCURVE",
"189 881 OFFCURVE",
"169 871 CURVE SMOOTH",
"85 828 OFFCURVE",
"48 768 OFFCURVE",
"48 674 CURVE SMOOTH",
"48 586 OFFCURVE",
"76 539 OFFCURVE",
"129 539 CURVE SMOOTH"
);
},
{
closed = 1;
nodes = (
"155 638 OFFCURVE",
"147 653 OFFCURVE",
"147 689 CURVE SMOOTH",
"147 745 OFFCURVE",
"175 791 OFFCURVE",
"217 810 CURVE",
"217 671 LINE SMOOTH",
"217 654 OFFCURVE",
"197 638 OFFCURVE",
"175 638 CURVE SMOOTH"
);
}
);
width = 369;
}
);
unicode = 00AA;
},
{
color = 6;
glyphname = ordmasculine;
lastChange = "2021-11-24 16:09:43 +0000";
layers = (
{
layerId = "6463F33F-C059-4755-9C76-9F35D70521A0";
paths = (
{
closed = 1;
nodes = (
"250 920 OFFCURVE",
"286 994 OFFCURVE",
"286 1095 CURVE SMOOTH",
"286 1305 LINE SMOOTH",
"286 1406 OFFCURVE",
"250 1480 OFFCURVE",
"163 1480 CURVE SMOOTH",
"76 1480 OFFCURVE",
"40 1406 OFFCURVE",
"40 1305 CURVE SMOOTH",
"40 1095 LINE SMOOTH",
"40 994 OFFCURVE",
"76 920 OFFCURVE",
"163 920 CURVE SMOOTH"
);
},
{
closed = 1;
nodes = (
"144 1038 OFFCURVE",
"140 1059 OFFCURVE",
"140 1099 CURVE SMOOTH",
"140 1301 LINE SMOOTH",
"140 1341 OFFCURVE",
"144 1362 OFFCURVE",
"164 1362 CURVE SMOOTH",
"183 1362 OFFCURVE",
"186 1341 OFFCURVE",
"186 1301 CURVE SMOOTH",
"186 1099 LINE SMOOTH",
"186 1059 OFFCURVE",
"183 1038 OFFCURVE",
"164 1038 CURVE SMOOTH"
);
}
);
width = 326;
},
{
layerId = "1AB499B8-18A8-432D-A211-B6882CCB886D";
paths = (
{
closed = 1;
nodes = (
"330 930 OFFCURVE",
"396 1011 OFFCURVE",
"396 1122 CURVE SMOOTH",
"396 1288 LINE SMOOTH",
"396 1399 OFFCURVE",
"330 1480 OFFCURVE",
"223 1480 CURVE SMOOTH",
"116 1480 OFFCURVE",
"50 1399 OFFCURVE",
"50 1288 CURVE SMOOTH",
"50 1122 LINE SMOOTH",
"50 1011 OFFCURVE",
"116 930 OFFCURVE",
"223 930 CURVE SMOOTH"
);
},
{
closed = 1;
nodes = (
"188 1048 OFFCURVE",
"177 1078 OFFCURVE",
"177 1122 CURVE SMOOTH",
"177 1288 LINE SMOOTH",
"177 1332 OFFCURVE",
"188 1362 OFFCURVE",
"223 1362 CURVE SMOOTH",
"258 1362 OFFCURVE",
"269 1332 OFFCURVE",
"269 1288 CURVE SMOOTH",
"269 1122 LINE SMOOTH",
"269 1078 OFFCURVE",
"258 1048 OFFCURVE",
"223 1048 CURVE SMOOTH"
);
}
);
width = 446;
}
);
unicode = 00BA;
},
{
color = 6;
glyphname = zero;
lastChange = "2021-11-24 16:09:43 +0000";
layers = (
{
layerId = "1AB499B8-18A8-432D-A211-B6882CCB886D";
paths = (
{
closed = 1;
nodes = (
"532 -16 OFFCURVE",
"642 123 OFFCURVE",
"642 302 CURVE SMOOTH",
"642 1168 LINE SMOOTH",
"642 1345 OFFCURVE",
"534 1486 OFFCURVE",
"354 1486 CURVE SMOOTH",
"175 1486 OFFCURVE",
"66 1348 OFFCURVE",
"66 1168 CURVE SMOOTH",
"66 302 LINE SMOOTH",
"66 123 OFFCURVE",
"170 -16 OFFCURVE",
"354 -16 CURVE SMOOTH"
);
},
{
closed = 1;
nodes = (
"303 194 OFFCURVE",
"282 245 OFFCURVE",
"282 302 CURVE SMOOTH",
"282 1168 LINE SMOOTH",
"282 1223 OFFCURVE",
"303 1276 OFFCURVE",
"354 1276 CURVE SMOOTH",
"405 1276 OFFCURVE",
"426 1227 OFFCURVE",
"426 1168 CURVE SMOOTH",
"426 302 LINE SMOOTH",
"426 245 OFFCURVE",
"405 194 OFFCURVE",
"354 194 CURVE SMOOTH"
);
}
);
width = 708;
},
{
layerId = "6463F33F-C059-4755-9C76-9F35D70521A0";
paths = (
{
closed = 1;
nodes = (
"384 -16 OFFCURVE",
"432 130 OFFCURVE",
"432 282 CURVE SMOOTH",
"432 1188 LINE SMOOTH",
"432 1308 OFFCURVE",
"392 1486 OFFCURVE",
"232 1486 CURVE SMOOTH",
"82 1486 OFFCURVE",
"30 1340 OFFCURVE",
"30 1188 CURVE SMOOTH",
"30 282 LINE SMOOTH",
"30 142 OFFCURVE",
"76 -16 OFFCURVE",
"232 -16 CURVE SMOOTH"
);
},
{
closed = 1;
nodes = (
"216 194 OFFCURVE",
"200 228 OFFCURVE",
"200 282 CURVE SMOOTH",
"200 1188 LINE SMOOTH",
"200 1236 OFFCURVE",
"212 1276 OFFCURVE",
"234 1276 CURVE SMOOTH",
"256 1276 OFFCURVE",
"266 1234 OFFCURVE",
"266 1188 CURVE SMOOTH",
"266 282 LINE SMOOTH",
"266 236 OFFCURVE",
"254 194 OFFCURVE",
"234 194 CURVE SMOOTH"
);
}
);
width = 462;
}
);
unicode = 0030;
},
{
color = 6;
glyphname = one;
lastChange = "2021-11-24 16:09:43 +0000";
layers = (
{
layerId = "1AB499B8-18A8-432D-A211-B6882CCB886D";
paths = (
{
closed = 1;
nodes = (
"400 0 LINE",
"400 1470 LINE",
"270 1470 LINE",
"225 1373 OFFCURVE",
"141 1310 OFFCURVE",
"40 1290 CURVE",
"40 1152 LINE",
"184 1152 LINE",
"184 0 LINE"
);
}
);
width = 480;
},
{
layerId = "6463F33F-C059-4755-9C76-9F35D70521A0";
paths = (
{
closed = 1;
nodes = (
"272 0 LINE",
"272 1470 LINE",
"158 1470 LINE",
"139 1388 OFFCURVE",
"88 1311 OFFCURVE",
"20 1286 CURVE",
"20 1152 LINE",
"106 1152 LINE",
"106 0 LINE"
);
}
);
width = 312;
}
);
unicode = 0031;
},
{
color = 6;
glyphname = two;
lastChange = "2021-11-24 16:09:43 +0000";
layers = (
{
layerId = "1AB499B8-18A8-432D-A211-B6882CCB886D";
paths = (
{
closed = 1;
nodes = (
"656 0 LINE",
"656 214 LINE",
"314 214 LINE",
"478 490 OFFCURVE",
"652 856 OFFCURVE",
"652 1120 CURVE SMOOTH",
"652 1342 OFFCURVE",
"575 1486 OFFCURVE",
"364 1486 CURVE SMOOTH",
"154 1486 OFFCURVE",
"76 1341 OFFCURVE",
"76 1106 CURVE SMOOTH",
"76 1004 LINE",
"292 1004 LINE",
"292 1106 LINE SMOOTH",
"292 1195 OFFCURVE",
"303 1286 OFFCURVE",
"364 1286 CURVE SMOOTH",
"425 1286 OFFCURVE",
"436 1194 OFFCURVE",
"436 1106 CURVE SMOOTH",
"436 857 OFFCURVE",
"253 497 OFFCURVE",
"70 214 CURVE",
"70 0 LINE"
);
}
);
width = 726;
},
{
layerId = "6463F33F-C059-4755-9C76-9F35D70521A0";
paths = (
{
closed = 1;
nodes = (
"428 0 LINE",
"428 214 LINE",
"222 214 LINE",
"312 456 OFFCURVE",
"438 854 OFFCURVE",
"438 1120 CURVE SMOOTH",
"438 1248 OFFCURVE",
"430 1486 OFFCURVE",
"244 1486 CURVE SMOOTH",
"64 1486 OFFCURVE",
"44 1252 OFFCURVE",
"44 1106 CURVE SMOOTH",
"44 1004 LINE",
"210 1004 LINE",
"210 1106 LINE SMOOTH",
"210 1200 OFFCURVE",
"212 1286 OFFCURVE",
"244 1286 CURVE SMOOTH",
"272 1286 OFFCURVE",
"278 1202 OFFCURVE",
"278 1106 CURVE SMOOTH",
"278 832 OFFCURVE",
"160 525 OFFCURVE",
"40 214 CURVE",
"40 0 LINE"
);
}
);
width = 478;
}
);
unicode = 0032;
},
{
color = 6;
glyphname = three;
lastChange = "2021-11-24 16:09:43 +0000";
layers = (
{
layerId = "1AB499B8-18A8-432D-A211-B6882CCB886D";
paths = (
{
closed = 1;
nodes = (
"547 -16 OFFCURVE",
"644 174 OFFCURVE",
"644 376 CURVE SMOOTH",
"644 546 OFFCURVE",
"594 688 OFFCURVE",
"500 760 CURVE",
"585 815 OFFCURVE",
"626 959 OFFCURVE",
"626 1160 CURVE SMOOTH",
"626 1339 OFFCURVE",
"528 1486 OFFCURVE",
"346 1486 CURVE SMOOTH",
"120 1486 OFFCURVE",
"60 1303 OFFCURVE",
"60 1046 CURVE",
"272 1046 LINE",
"272 1175 OFFCURVE",
"283 1296 OFFCURVE",
"346 1296 CURVE SMOOTH",
"411 1296 OFFCURVE",
"414 1204 OFFCURVE",
"414 1106 CURVE SMOOTH",
"414 909 OFFCURVE",
"392 852 OFFCURVE",
"240 844 CURVE",
"240 664 LINE",
"391 653 OFFCURVE",
"432 600 OFFCURVE",
"432 360 CURVE SMOOTH",
"432 268 OFFCURVE",
"421 174 OFFCURVE",
"354 174 CURVE SMOOTH",
"285 174 OFFCURVE",
"280 295 OFFCURVE",
"280 424 CURVE",
"68 424 LINE",
"68 173 OFFCURVE",
"126 -16 OFFCURVE",
"354 -16 CURVE SMOOTH"
);
}
);
width = 704;
},
{
layerId = "6463F33F-C059-4755-9C76-9F35D70521A0";
paths = (
{
closed = 1;
nodes = (
"404 -16 OFFCURVE",
"430 184 OFFCURVE",
"430 376 CURVE SMOOTH",
"430 590 OFFCURVE",
"394 704 OFFCURVE",
"326 750 CURVE",
"404 844 OFFCURVE",
"426 944 OFFCURVE",
"426 1158 CURVE SMOOTH",
"426 1272 OFFCURVE",
"390 1486 OFFCURVE",
"228 1486 CURVE SMOOTH",
"44 1486 OFFCURVE",
"30 1194 OFFCURVE",
"30 1046 CURVE",
"194 1046 LINE",
"194 1130 OFFCURVE",
"198 1290 OFFCURVE",
"230 1290 CURVE SMOOTH",
"260 1290 OFFCURVE",
"261 1154 OFFCURVE",
"261 1096 CURVE SMOOTH",
"261 974 OFFCURVE",
"246 846 OFFCURVE",
"150 842 CURVE",
"150 664 LINE",
"246 658 OFFCURVE",
"268 596 OFFCURVE",
"268 374 CURVE SMOOTH",
"268 310 OFFCURVE",
"266 174 OFFCURVE",
"234 174 CURVE SMOOTH",
"200 174 OFFCURVE",
"198 336 OFFCURVE",
"198 424 CURVE",
"36 424 LINE",
"36 302 OFFCURVE",
"38 -16 OFFCURVE",
"234 -16 CURVE SMOOTH"
);
}
);
width = 460;
}
);
unicode = 0033;
},
{
color = 6;
glyphname = four;
lastChange = "2021-11-24 16:09:43 +0000";
layers = (
{
layerId = "1AB499B8-18A8-432D-A211-B6882CCB886D";
paths = (
{
closed = 1;
nodes = (
"567 0 LINE",
"567 320 LINE",
"667 320 LINE",
"667 510 LINE",
"567 510 LINE",
"567 1470 LINE",
"341 1470 LINE",
"35 490 LINE",
"35 320 LINE",
"369 320 LINE",
"369 0 LINE"
);
},
{
closed = 1;
nodes = (
"345 970 LINE",
"357 1014 LINE",
"369 1014 LINE",
"369 970 LINE",
"369 510 LINE",
"219 510 LINE"
);
}
);
width = 702;
},
{
layerId = "6463F33F-C059-4755-9C76-9F35D70521A0";
paths = (
{
closed = 1;
nodes = (
"410 0 LINE",
"410 320 LINE",
"485 320 LINE",
"485 510 LINE",
"410 510 LINE",
"410 1470 LINE",
"238 1470 LINE",
"20 510 LINE",
"20 320 LINE",
"251 320 LINE",
"251 0 LINE"
);
},
{
closed = 1;
nodes = (
"253 970 LINE",
"262 1014 LINE",
"251 1014 LINE",
"251 970 LINE",
"251 510 LINE",
"162 510 LINE"
);
}
);
width = 505;
}
);
unicode = 0034;
},
{
color = 6;
glyphname = five;
lastChange = "2021-11-24 16:09:43 +0000";
layers = (
{
layerId = "1AB499B8-18A8-432D-A211-B6882CCB886D";
paths = (
{
closed = 1;
nodes = (
"568 -16 OFFCURVE",
"624 160 OFFCURVE",
"624 368 CURVE SMOOTH",
"624 696 LINE SMOOTH",
"624 886 OFFCURVE",
"543 1000 OFFCURVE",
"393 1000 CURVE SMOOTH",
"322 1000 OFFCURVE",
"285 970 OFFCURVE",
"260 940 CURVE",
"260 1256 LINE",
"596 1256 LINE",
"596 1470 LINE",
"74 1470 LINE",
"74 696 LINE",
"271 696 LINE",
"278 755 OFFCURVE",
"305 804 OFFCURVE",
"350 804 CURVE SMOOTH",
"396 804 OFFCURVE",
"408 758 OFFCURVE",
"408 696 CURVE SMOOTH",
"408 368 LINE SMOOTH",
"408 270 OFFCURVE",
"402 172 OFFCURVE",
"342 172 CURVE SMOOTH",
"280 172 OFFCURVE",
"276 261 OFFCURVE",
"276 370 CURVE SMOOTH",
"276 428 LINE",
"60 428 LINE",
"60 158 OFFCURVE",
"112 -16 OFFCURVE",
"342 -16 CURVE SMOOTH"
);
}
);
width = 684;
},
{
layerId = "6463F33F-C059-4755-9C76-9F35D70521A0";
paths = (
{
closed = 1;
nodes = (
"411 -16 OFFCURVE",
"427 200 OFFCURVE",
"427 348 CURVE SMOOTH",
"427 696 LINE SMOOTH",
"427 845 OFFCURVE",
"400 1000 OFFCURVE",
"277 1000 CURVE SMOOTH",
"230 1000 OFFCURVE",
"205 972 OFFCURVE",
"196 935 CURVE",
"196 1256 LINE",
"391 1256 LINE",
"391 1470 LINE",
"35 1470 LINE",
"35 696 LINE",
"187 696 LINE",
"187 752 OFFCURVE",
"201 804 OFFCURVE",
"233 804 CURVE SMOOTH",
"261 804 OFFCURVE",
"265 758 OFFCURVE",
"265 696 CURVE SMOOTH",
"265 328 LINE SMOOTH",
"265 232 OFFCURVE",
"257 172 OFFCURVE",
"229 172 CURVE SMOOTH",
"201 172 OFFCURVE",
"199 236 OFFCURVE",
"199 330 CURVE SMOOTH",
"199 428 LINE",
"35 428 LINE",
"35 254 OFFCURVE",
"51 -16 OFFCURVE",
"231 -16 CURVE SMOOTH"
);
}
);
width = 462;
}
);
unicode = 0035;
},
{
color = 6;
glyphname = six;
lastChange = "2021-11-24 16:09:43 +0000";
layers = (
{
layerId = "1AB499B8-18A8-432D-A211-B6882CCB886D";
paths = (
{
closed = 1;
nodes = (
"526 -16 OFFCURVE",
"624 116 OFFCURVE",
"624 302 CURVE SMOOTH",
"624 662 LINE SMOOTH",
"624 850 OFFCURVE",
"536 952 OFFCURVE",
"394 952 CURVE SMOOTH",
"336 952 OFFCURVE",
"295 927 OFFCURVE",
"276 902 CURVE",
"276 1128 LINE SMOOTH",
"276 1216 OFFCURVE",
"282 1298 OFFCURVE",
"342 1298 CURVE SMOOTH",
"402 1298 OFFCURVE",
"408 1207 OFFCURVE",
"408 1066 CURVE",
"624 1066 LINE",
"624 1138 LINE SMOOTH",
"624 1349 OFFCURVE",
"546 1486 OFFCURVE",
"342 1486 CURVE SMOOTH",
"139 1486 OFFCURVE",
"60 1341 OFFCURVE",
"60 1128 CURVE SMOOTH",
"60 302 LINE SMOOTH",
"60 117 OFFCURVE",
"155 -16 OFFCURVE",
"342 -16 CURVE SMOOTH"
);
},
{
closed = 1;
nodes = (
"292 172 OFFCURVE",
"276 228 OFFCURVE",
"276 278 CURVE SMOOTH",
"276 674 LINE SMOOTH",
"276 726 OFFCURVE",
"297 774 OFFCURVE",
"343 774 CURVE SMOOTH",
"389 774 OFFCURVE",
"408 724 OFFCURVE",
"408 676 CURVE SMOOTH",
"408 278 LINE SMOOTH",
"408 228 OFFCURVE",
"388 172 OFFCURVE",
"342 172 CURVE SMOOTH"
);
}
);
width = 684;
},
{
layerId = "6463F33F-C059-4755-9C76-9F35D70521A0";
paths = (
{
closed = 1;
nodes = (
"394 -16 OFFCURVE",
"435 150 OFFCURVE",
"435 282 CURVE SMOOTH",
"435 682 LINE SMOOTH",
"435 786 OFFCURVE",
"425 952 OFFCURVE",
"271 952 CURVE SMOOTH",
"232 952 OFFCURVE",
"206 922 OFFCURVE",
"201 908 CURVE",
"201 1150 LINE SMOOTH",
"201 1168 OFFCURVE",
"201 1298 OFFCURVE",
"233 1298 CURVE SMOOTH",
"269 1298 OFFCURVE",
"269 1152 OFFCURVE",
"269 1086 CURVE",
"429 1086 LINE",
"429 1150 LINE SMOOTH",
"429 1270 OFFCURVE",
"409 1486 OFFCURVE",
"233 1486 CURVE SMOOTH",
"63 1486 OFFCURVE",
"35 1294 OFFCURVE",
"35 1150 CURVE SMOOTH",
"35 282 LINE SMOOTH",
"35 153 OFFCURVE",
"80 -16 OFFCURVE",
"237 -16 CURVE SMOOTH"
);
},
{
closed = 1;
nodes = (
"207 172 OFFCURVE",
"201 216 OFFCURVE",
"201 258 CURVE SMOOTH",
"201 700 LINE SMOOTH",
"201 741 OFFCURVE",
"208 784 OFFCURVE",
"238 784 CURVE SMOOTH",
"270 784 OFFCURVE",
"275 738 OFFCURVE",
"275 700 CURVE SMOOTH",
"275 259 LINE SMOOTH",
"275 218 OFFCURVE",
"267 172 OFFCURVE",
"237 172 CURVE SMOOTH"
);
}
);
width = 470;
}
);
unicode = 0036;
},
{
color = 6;
glyphname = seven;
lastChange = "2021-11-24 16:09:43 +0000";
layers = (
{
layerId = "1AB499B8-18A8-432D-A211-B6882CCB886D";
paths = (
{
closed = 1;
nodes = (
"363 0 LINE",
"579 1254 LINE",
"579 1470 LINE",
"35 1470 LINE",
"35 1256 LINE",
"359 1256 LINE",
"139 0 LINE"
);
}
);
width = 614;
},
{
layerId = "6463F33F-C059-4755-9C76-9F35D70521A0";
paths = (
{
closed = 1;
nodes = (
"254 0 LINE",
"384 1254 LINE",
"384 1470 LINE",
"20 1470 LINE",
"20 1256 LINE",
"216 1256 LINE",
"84 0 LINE"
);
}
);
width = 404;
}
);
unicode = 0037;
},
{
color = 6;
glyphname = eight;
lastChange = "2021-11-24 16:09:43 +0000";
layers = (
{
layerId = "1AB499B8-18A8-432D-A211-B6882CCB886D";
paths = (
{
closed = 1;
nodes = (
"527 -16 OFFCURVE",
"628 105 OFFCURVE",
"628 294 CURVE SMOOTH",
"628 556 LINE SMOOTH",
"628 666 OFFCURVE",
"590 726 OFFCURVE",
"516 776 CURVE",
"582 822 OFFCURVE",
"616 874 OFFCURVE",
"616 976 CURVE SMOOTH",
"616 1210 LINE SMOOTH",
"616 1390 OFFCURVE",
"523 1486 OFFCURVE",
"340 1486 CURVE SMOOTH",
"162 1486 OFFCURVE",
"64 1390 OFFCURVE",
"64 1210 CURVE SMOOTH",
"64 976 LINE SMOOTH",
"64 874 OFFCURVE",
"98 822 OFFCURVE",
"164 776 CURVE",
"90 726 OFFCURVE",
"52 666 OFFCURVE",
"52 556 CURVE SMOOTH",
"52 294 LINE SMOOTH",
"52 107 OFFCURVE",
"152 -16 OFFCURVE",
"340 -16 CURVE SMOOTH"
);
},
{
closed = 1;
nodes = (
"310 182 OFFCURVE",
"277 202 OFFCURVE",
"272 240 CURVE SMOOTH",
"267 278 OFFCURVE",
"263 353 OFFCURVE",
"263 419 CURVE SMOOTH",
"263 483 OFFCURVE",
"267 558 OFFCURVE",
"274 596 CURVE SMOOTH",
"280 638 OFFCURVE",
"302 660 OFFCURVE",
"340 660 CURVE SMOOTH",
"378 660 OFFCURVE",
"400 638 OFFCURVE",
"408 596 CURVE SMOOTH",
"414 554 OFFCURVE",
"418 482 OFFCURVE",
"418 420 CURVE SMOOTH",
"418 352 OFFCURVE",
"414 278 OFFCURVE",
"408 240 CURVE SMOOTH",
"402 202 OFFCURVE",
"378 182 OFFCURVE",
"340 182 CURVE SMOOTH"
);
},
{
closed = 1;
nodes = (
"312 872 OFFCURVE",
"294 890 OFFCURVE",
"288 926 CURVE SMOOTH",
"281 958 OFFCURVE",
"277 1016 OFFCURVE",
"277 1076 CURVE SMOOTH",
"277 1147 OFFCURVE",
"282 1220 OFFCURVE",
"292 1252 CURVE SMOOTH",
"300 1282 OFFCURVE",
"316 1296 OFFCURVE",
"340 1296 CURVE SMOOTH",
"368 1296 OFFCURVE",
"386 1280 OFFCURVE",
"394 1246 CURVE SMOOTH",
"400 1212 OFFCURVE",
"404 1162 OFFCURVE",
"404 1094 CURVE SMOOTH",
"404 1016 OFFCURVE",
"400 960 OFFCURVE",
"394 926 CURVE SMOOTH",
"386 890 OFFCURVE",
"368 872 OFFCURVE",
"340 872 CURVE SMOOTH"
);
}
);
width = 680;
},
{
layerId = "6463F33F-C059-4755-9C76-9F35D70521A0";
paths = (
{
closed = 1;
nodes = (
"366 -16 OFFCURVE",
"420 130 OFFCURVE",
"420 254 CURVE SMOOTH",
"420 566 LINE SMOOTH",
"420 670 OFFCURVE",
"388 746 OFFCURVE",
"336 776 CURVE",
"388 820 OFFCURVE",
"414 870 OFFCURVE",
"414 966 CURVE SMOOTH",
"414 1250 LINE SMOOTH",
"414 1366 OFFCURVE",
"364 1486 OFFCURVE",
"224 1486 CURVE SMOOTH",
"84 1486 OFFCURVE",
"34 1364 OFFCURVE",
"34 1250 CURVE SMOOTH",
"34 966 LINE SMOOTH",
"34 870 OFFCURVE",
"66 822 OFFCURVE",
"112 776 CURVE",
"66 730 OFFCURVE",
"28 670 OFFCURVE",
"28 566 CURVE SMOOTH",
"28 254 LINE SMOOTH",
"28 132 OFFCURVE",
"82 -16 OFFCURVE",
"224 -16 CURVE SMOOTH"
);
},
{
closed = 1;
nodes = (
"208 178 OFFCURVE",
"190 206 OFFCURVE",
"190 244 CURVE SMOOTH",
"190 296 OFFCURVE",
"190 348 OFFCURVE",
"190 400 CURVE SMOOTH",
"190 460 OFFCURVE",
"190 520 OFFCURVE",
"190 580 CURVE SMOOTH",
"190 622 OFFCURVE",
"200 664 OFFCURVE",
"224 664 CURVE SMOOTH",
"248 664 OFFCURVE",
"258 622 OFFCURVE",
"258 580 CURVE SMOOTH",
"258 520 OFFCURVE",
"258 460 OFFCURVE",
"258 400 CURVE SMOOTH",
"258 348 OFFCURVE",
"258 296 OFFCURVE",
"258 244 CURVE SMOOTH",
"258 206 OFFCURVE",
"240 178 OFFCURVE",
"224 178 CURVE SMOOTH"
);
},
{
closed = 1;
nodes = (
"208 858 OFFCURVE",
"190 886 OFFCURVE",
"190 924 CURVE SMOOTH",
"190 969 OFFCURVE",
"190 1015 OFFCURVE",
"190 1060 CURVE SMOOTH",
"190 1113 OFFCURVE",
"190 1167 OFFCURVE",
"190 1220 CURVE SMOOTH",
"190 1262 OFFCURVE",
"200 1302 OFFCURVE",
"224 1302 CURVE SMOOTH",
"248 1302 OFFCURVE",
"258 1262 OFFCURVE",
"258 1220 CURVE SMOOTH",
"258 1167 OFFCURVE",
"258 1113 OFFCURVE",
"258 1060 CURVE SMOOTH",
"258 1015 OFFCURVE",
"258 969 OFFCURVE",
"258 924 CURVE SMOOTH",
"258 886 OFFCURVE",
"240 858 OFFCURVE",
"224 858 CURVE SMOOTH"
);
}
);
width = 468;
}
);
unicode = 0038;
},
{
color = 6;
glyphname = nine;
lastChange = "2021-11-24 16:09:43 +0000";
layers = (
{
layerId = "1AB499B8-18A8-432D-A211-B6882CCB886D";
paths = (
{
closed = 1;
nodes = (
"158 1486 OFFCURVE",
"60 1354 OFFCURVE",
"60 1168 CURVE SMOOTH",
"60 808 LINE SMOOTH",
"60 620 OFFCURVE",
"148 518 OFFCURVE",
"290 518 CURVE SMOOTH",
"348 518 OFFCURVE",
"389 543 OFFCURVE",
"408 568 CURVE",
"408 342 LINE SMOOTH",
"408 254 OFFCURVE",
"402 172 OFFCURVE",
"342 172 CURVE SMOOTH",
"282 172 OFFCURVE",
"276 263 OFFCURVE",
"276 404 CURVE",
"60 404 LINE",
"60 332 LINE SMOOTH",
"60 121 OFFCURVE",
"138 -16 OFFCURVE",
"342 -16 CURVE SMOOTH",
"545 -16 OFFCURVE",
"624 129 OFFCURVE",
"624 342 CURVE SMOOTH",
"624 1168 LINE SMOOTH",
"624 1353 OFFCURVE",
"529 1486 OFFCURVE",
"342 1486 CURVE SMOOTH"
);
},
{
closed = 1;
nodes = (
"392 1298 OFFCURVE",
"408 1242 OFFCURVE",
"408 1192 CURVE SMOOTH",
"408 796 LINE SMOOTH",
"408 744 OFFCURVE",
"387 696 OFFCURVE",
"341 696 CURVE SMOOTH",
"295 696 OFFCURVE",
"276 746 OFFCURVE",
"276 794 CURVE SMOOTH",
"276 1192 LINE SMOOTH",
"276 1242 OFFCURVE",
"296 1298 OFFCURVE",
"342 1298 CURVE SMOOTH"
);
}
);
width = 684;
},
{
layerId = "6463F33F-C059-4755-9C76-9F35D70521A0";
paths = (
{
closed = 1;
nodes = (
"81 1486 OFFCURVE",
"40 1320 OFFCURVE",
"40 1188 CURVE SMOOTH",
"40 788 LINE SMOOTH",
"40 684 OFFCURVE",
"50 518 OFFCURVE",
"204 518 CURVE SMOOTH",
"243 518 OFFCURVE",
"269 548 OFFCURVE",
"274 562 CURVE",
"274 320 LINE SMOOTH",
"274 302 OFFCURVE",
"274 172 OFFCURVE",
"242 172 CURVE SMOOTH",
"206 172 OFFCURVE",
"206 318 OFFCURVE",
"206 384 CURVE",
"46 384 LINE",
"46 320 LINE SMOOTH",
"46 200 OFFCURVE",
"66 -16 OFFCURVE",
"242 -16 CURVE SMOOTH",
"412 -16 OFFCURVE",
"440 176 OFFCURVE",
"440 320 CURVE SMOOTH",
"440 1188 LINE SMOOTH",
"440 1317 OFFCURVE",
"395 1486 OFFCURVE",
"238 1486 CURVE SMOOTH"
);
},
{
closed = 1;
nodes = (
"268 1298 OFFCURVE",
"274 1254 OFFCURVE",
"274 1212 CURVE SMOOTH",
"274 770 LINE SMOOTH",
"274 729 OFFCURVE",
"267 686 OFFCURVE",
"237 686 CURVE SMOOTH",
"205 686 OFFCURVE",
"200 732 OFFCURVE",
"200 770 CURVE SMOOTH",
"200 1211 LINE SMOOTH",
"200 1252 OFFCURVE",
"208 1298 OFFCURVE",
"238 1298 CURVE SMOOTH"
);
}
);
width = 480;
}
);
unicode = 0039;
},
{
color = 6;
glyphname = zero.dnom;
lastChange = "2021-11-24 16:09:43 +0000";
layers = (
{
layerId = "1AB499B8-18A8-432D-A211-B6882CCB886D";
paths = (
{
closed = 1;
nodes = (
"439 -9 OFFCURVE",
"526 60 OFFCURVE",
"526 184 CURVE SMOOTH",
"526 622 LINE SMOOTH",
"526 745 OFFCURVE",
"439 815 OFFCURVE",
"313 815 CURVE SMOOTH",
"187 815 OFFCURVE",
"100 745 OFFCURVE",
"100 622 CURVE SMOOTH",
"100 184 LINE SMOOTH",
"100 66 OFFCURVE",
"183 -9 OFFCURVE",
"313 -9 CURVE SMOOTH"
);
},
{
closed = 1;
nodes = (
"280 136 OFFCURVE",
"259 158 OFFCURVE",
"259 206 CURVE SMOOTH",
"259 600 LINE SMOOTH",
"259 646 OFFCURVE",
"279 671 OFFCURVE",
"313 671 CURVE SMOOTH",
"346 671 OFFCURVE",
"367 647 OFFCURVE",
"367 600 CURVE SMOOTH",
"367 206 LINE SMOOTH",
"367 161 OFFCURVE",
"346 136 OFFCURVE",
"313 136 CURVE SMOOTH"
);
}
);
width = 626;
},
{
associatedMasterId = "6463F33F-C059-4755-9C76-9F35D70521A0";
layerId = "E10EC336-1202-48FF-9A55-15876E80CDFD";
name = Italic;
paths = (
{
closed = 1;
nodes = (
"173 -9 OFFCURVE",
"274 60 OFFCURVE",
"301 184 CURVE SMOOTH",
"394 622 LINE SMOOTH",
"420 745 OFFCURVE",
"348 815 OFFCURVE",
"222 815 CURVE SMOOTH",
"96 815 OFFCURVE",
"-5 745 OFFCURVE",
"-32 622 CURVE SMOOTH",
"-125 184 LINE SMOOTH",
"-149 66 OFFCURVE",
"-83 -9 OFFCURVE",
"47 -9 CURVE SMOOTH"
);
},
{
closed = 1;
nodes = (
"44 136 OFFCURVE",
"28 158 OFFCURVE",
"38 206 CURVE SMOOTH",
"122 600 LINE SMOOTH",
"132 646 OFFCURVE",
"157 671 OFFCURVE",
"191 671 CURVE SMOOTH",
"225 671 OFFCURVE",
"240 647 OFFCURVE",
"230 600 CURVE SMOOTH",
"146 206 LINE SMOOTH",
"136 161 OFFCURVE",
"111 136 OFFCURVE",
"77 136 CURVE SMOOTH"
);
}
);
width = 499;
},
{
layerId = "6463F33F-C059-4755-9C76-9F35D70521A0";
paths = (
{
closed = 1;
nodes = (
"346 -9 OFFCURVE",
"401 56 OFFCURVE",
"401 169 CURVE SMOOTH",
"401 637 LINE SMOOTH",
"401 748 OFFCURVE",
"345 815 OFFCURVE",
"251 815 CURVE SMOOTH",
"157 815 OFFCURVE",
"100 748 OFFCURVE",
"100 637 CURVE SMOOTH",
"100 169 LINE SMOOTH",
"100 57 OFFCURVE",
"156 -9 OFFCURVE",
"251 -9 CURVE SMOOTH"
);
},
{
closed = 1;
nodes = (
"238 107 OFFCURVE",
"227 131 OFFCURVE",
"227 169 CURVE SMOOTH",
"227 637 LINE SMOOTH",
"227 675 OFFCURVE",
"237 700 OFFCURVE",
"253 700 CURVE SMOOTH",
"268 700 OFFCURVE",
"277 676 OFFCURVE",
"277 637 CURVE SMOOTH",
"277 169 LINE SMOOTH",
"277 133 OFFCURVE",
"267 107 OFFCURVE",
"253 107 CURVE SMOOTH"
);
}
);
width = 501;
},
{
associatedMasterId = "6463F33F-C059-4755-9C76-9F35D70521A0";
layerId = "76CB9AE8-0A57-41E1-8298-8A82D157DF6D";
name = "Semi Expanded";
paths = (
{
closed = 1;
nodes = (
"415 -9 OFFCURVE",
"521 60 OFFCURVE",
"521 192 CURVE SMOOTH",
"521 614 LINE SMOOTH",
"521 743 OFFCURVE",
"418 815 OFFCURVE",
"275 815 CURVE SMOOTH",
"132 815 OFFCURVE",
"30 743 OFFCURVE",
"30 614 CURVE SMOOTH",
"30 192 LINE SMOOTH",
"30 73 OFFCURVE",
"125 -9 OFFCURVE",
"276 -9 CURVE SMOOTH"
);
},
{
closed = 1;
nodes = (
"232 151 OFFCURVE",
"205 172 OFFCURVE",
"205 225 CURVE SMOOTH",
"205 581 LINE SMOOTH",
"205 631 OFFCURVE",
"231 656 OFFCURVE",
"274 656 CURVE SMOOTH",
"317 656 OFFCURVE",
"344 632 OFFCURVE",
"344 581 CURVE SMOOTH",
"344 225 LINE SMOOTH",
"344 176 OFFCURVE",
"317 151 OFFCURVE",
"274 151 CURVE SMOOTH"
);
}
);
width = 621;
},
{
associatedMasterId = "6463F33F-C059-4755-9C76-9F35D70521A0";
layerId = "A5A4D350-C0CB-4C36-867F-06890CC9F434";
name = "Semi Expanded Italic";
paths = (
{
closed = 1;
nodes = (
"220 -9 OFFCURVE",
"337 62 OFFCURVE",
"365 192 CURVE SMOOTH",
"455 614 LINE SMOOTH",
"482 739 OFFCURVE",
"399 815 OFFCURVE",
"252 815 CURVE SMOOTH",
"108 815 OFFCURVE",
"-8 742 OFFCURVE",
"-35 614 CURVE SMOOTH",
"-125 192 LINE SMOOTH",
"-151 71 OFFCURVE",
"-71 -9 OFFCURVE",
"79 -9 CURVE SMOOTH"
);
},
{
closed = 1;
nodes = (
"66 151 OFFCURVE",
"45 172 OFFCURVE",
"56 225 CURVE SMOOTH",
"132 581 LINE SMOOTH",
"143 631 OFFCURVE",
"173 656 OFFCURVE",
"217 656 CURVE SMOOTH",
"261 656 OFFCURVE",
"282 632 OFFCURVE",
"271 581 CURVE SMOOTH",
"195 225 LINE SMOOTH",
"185 178 OFFCURVE",
"156 151 OFFCURVE",
"109 151 CURVE SMOOTH"
);
}
);
width = 560;
}
);
},
{
color = 6;
glyphname = one.dnom;
lastChange = "2021-11-24 16:09:43 +0000";
layers = (
{
layerId = "1AB499B8-18A8-432D-A211-B6882CCB886D";
paths = (
{
closed = 1;
nodes = (
"370 0 LINE",
"370 803 LINE",
"273 803 LINE",
"268 794 OFFCURVE",
"252 777 OFFCURVE",
"236 763 CURVE SMOOTH",
"199 731 OFFCURVE",
"168 718 OFFCURVE",
"100 708 CURVE",
"100 629 LINE",
"208 629 LINE",
"208 0 LINE"
);
}
);
width = 470;
},
{
associatedMasterId = "6463F33F-C059-4755-9C76-9F35D70521A0";
layerId = "E10EC336-1202-48FF-9A55-15876E80CDFD";
name = Italic;
paths = (
{
closed = 1;
nodes = (
"262 0 LINE",
"432 803 LINE",
"335 803 LINE",
"329 794 OFFCURVE",
"313 780 OFFCURVE",
"290 763 CURVE SMOOTH",
"246 731 OFFCURVE",
"214 718 OFFCURVE",
"143 708 CURVE",
"126 629 LINE",
"234 629 LINE",
"100 0 LINE"
);
}
);
width = 532;
},
{
layerId = "6463F33F-C059-4755-9C76-9F35D70521A0";
paths = (
{
closed = 1;
nodes = (
"289 0 LINE",
"289 803 LINE",
"204 803 LINE",
"198 787 OFFCURVE",
"191 772 OFFCURVE",
"183 761 CURVE SMOOTH",
"165 736 OFFCURVE",
"132 714 OFFCURVE",
"100 705 CURVE",
"100 629 LINE",
"165 629 LINE",
"165 0 LINE"
);
}
);
width = 389;
},
{
associatedMasterId = "6463F33F-C059-4755-9C76-9F35D70521A0";
layerId = "76CB9AE8-0A57-41E1-8298-8A82D157DF6D";
name = "Semi Expanded";
paths = (
{
closed = 1;
nodes = (
"413 0 LINE",
"413 803 LINE",
"309 803 LINE",
"304 796 OFFCURVE",
"278 776 OFFCURVE",
"264 764 CURVE SMOOTH",
"212 723 OFFCURVE",
"172 719 OFFCURVE",
"100 710 CURVE",
"100 629 LINE",
"231 629 LINE",
"231 0 LINE"
);
}
);
width = 513;
},
{
associatedMasterId = "6463F33F-C059-4755-9C76-9F35D70521A0";
layerId = "A5A4D350-C0CB-4C36-867F-06890CC9F434";
name = "Semi Expanded Italic";
paths = (
{
closed = 1;
nodes = (
"282 0 LINE",
"452 803 LINE",
"348 803 LINE",
"345 801 OFFCURVE",
"344 796 OFFCURVE",
"296 765 CURVE SMOOTH",
"239 728 OFFCURVE",
"215 721 OFFCURVE",
"121 710 CURVE",
"103 629 LINE",
"234 629 LINE",
"100 0 LINE"
);
}
);
width = 552;
}
);
},
{
color = 6;
glyphname = two.dnom;
lastChange = "2021-11-24 16:09:43 +0000";
layers = (
{
layerId = "1AB499B8-18A8-432D-A211-B6882CCB886D";
paths = (
{
closed = 1;
nodes = (
"539 0 LINE",
"539 132 LINE",
"293 132 LINE",
"489 407 OFFCURVE",
"536 499 OFFCURVE",
"536 607 CURVE SMOOTH",
"536 746 OFFCURVE",
"464 815 OFFCURVE",
"320 815 CURVE SMOOTH",
"181 815 OFFCURVE",
"104 740 OFFCURVE",
"104 606 CURVE SMOOTH",
"104 551 LINE",
"266 551 LINE",
"266 606 LINE SMOOTH",
"266 663 OFFCURVE",
"280 683 OFFCURVE",
"320 683 CURVE SMOOTH",
"353 683 OFFCURVE",
"376 653 OFFCURVE",
"375 605 CURVE SMOOTH",
"370 482 OFFCURVE",
"295 347 OFFCURVE",
"100 117 CURVE",
"100 0 LINE"
);
}
);
width = 641;
},
{
associatedMasterId = "6463F33F-C059-4755-9C76-9F35D70521A0";
layerId = "E10EC336-1202-48FF-9A55-15876E80CDFD";
name = Italic;
paths = (
{
closed = 1;
nodes = (
"539 0 LINE",
"567 132 LINE",
"321 132 LINE",
"575 407 OFFCURVE",
"673 526 OFFCURVE",
"673 671 CURVE SMOOTH",
"673 767 OFFCURVE",
"613 815 OFFCURVE",
"493 815 CURVE SMOOTH",
"354 815 OFFCURVE",
"262 740 OFFCURVE",
"233 606 CURVE SMOOTH",
"221 551 LINE",
"383 551 LINE",
"395 606 LINE SMOOTH",
"406 656 OFFCURVE",
"420 683 OFFCURVE",
"465 683 CURVE SMOOTH",
"499 683 OFFCURVE",
"515 653 OFFCURVE",
"503 604 CURVE SMOOTH",
"473 482 OFFCURVE",
"366 344 OFFCURVE",
"124 117 CURVE",
"100 0 LINE"
);
}
);
width = 773;
},
{
layerId = "6463F33F-C059-4755-9C76-9F35D70521A0";
paths = (
{
closed = 1;
nodes = (
"391 0 LINE",
"391 117 LINE",
"236 117 LINE",
"335 352 OFFCURVE",
"398 516 OFFCURVE",
"398 641 CURVE SMOOTH",
"398 755 OFFCURVE",
"346 815 OFFCURVE",
"258 815 CURVE SMOOTH",
"157 815 OFFCURVE",
"104 737 OFFCURVE",
"104 606 CURVE SMOOTH",
"104 551 LINE",
"227 551 LINE",
"227 606 LINE SMOOTH",
"227 638 OFFCURVE",
"227 705 OFFCURVE",
"254 705 CURVE SMOOTH",
"269 705 OFFCURVE",
"278 686 OFFCURVE",
"278 644 CURVE SMOOTH",
"278 545 OFFCURVE",
"220 300 OFFCURVE",
"100 117 CURVE",
"100 0 LINE"
);
}
);
width = 498;
},
{
associatedMasterId = "6463F33F-C059-4755-9C76-9F35D70521A0";
layerId = "76CB9AE8-0A57-41E1-8298-8A82D157DF6D";
name = "Semi Expanded";
paths = (
{
closed = 1;
nodes = (
"617 0 LINE",
"617 140 LINE",
"323 140 LINE",
"570 436 OFFCURVE",
"608 490 OFFCURVE",
"608 591 CURVE SMOOTH",
"608 739 OFFCURVE",
"526 815 OFFCURVE",
"357 815 CURVE SMOOTH",
"191 815 OFFCURVE",
"104 742 OFFCURVE",
"104 606 CURVE SMOOTH",
"104 551 LINE",
"286 551 LINE",
"286 606 LINE SMOOTH",
"286 673 OFFCURVE",
"306 672 OFFCURVE",
"355 671 CURVE SMOOTH",
"399 670 OFFCURVE",
"425 642 OFFCURVE",
"425 581 CURVE SMOOTH",
"425 460 OFFCURVE",
"334 372 OFFCURVE",
"100 117 CURVE",
"100 0 LINE"
);
}
);
width = 717;
},
{
associatedMasterId = "6463F33F-C059-4755-9C76-9F35D70521A0";
layerId = "A5A4D350-C0CB-4C36-867F-06890CC9F434";
name = "Semi Expanded Italic";
paths = (
{
closed = 1;
nodes = (
"617 0 LINE",
"647 140 LINE",
"352 140 LINE",
"662 436 OFFCURVE",
"742 509 OFFCURVE",
"742 645 CURVE SMOOTH",
"742 762 OFFCURVE",
"674 815 OFFCURVE",
"531 815 CURVE SMOOTH",
"365 815 OFFCURVE",
"263 743 OFFCURVE",
"233 606 CURVE SMOOTH",
"221 551 LINE",
"403 551 LINE",
"415 606 LINE SMOOTH",
"423 644 OFFCURVE",
"430 671 OFFCURVE",
"486 671 CURVE SMOOTH",
"545 671 OFFCURVE",
"567 640 OFFCURVE",
"546 566 CURVE SMOOTH",
"512 446 OFFCURVE",
"419 379 OFFCURVE",
"124 117 CURVE",
"100 0 LINE"
);
}
);
width = 842;
}
);
},
{
color = 6;
glyphname = three.dnom;
lastChange = "2021-11-24 16:09:43 +0000";
layers = (
{
layerId = "1AB499B8-18A8-432D-A211-B6882CCB886D";
paths = (
{
closed = 1;
nodes = (
"455 -9 OFFCURVE",
"531 74 OFFCURVE",
"531 231 CURVE SMOOTH",
"531 321 OFFCURVE",
"506 374 OFFCURVE",
"438 433 CURVE",
"496 486 OFFCURVE",
"517 531 OFFCURVE",
"517 604 CURVE SMOOTH",
"517 740 OFFCURVE",
"442 815 OFFCURVE",
"307 815 CURVE SMOOTH",
"168 815 OFFCURVE",
"100 735 OFFCURVE",
"100 573 CURVE",
"259 573 LINE",
"259 657 OFFCURVE",
"271 683 OFFCURVE",
"310 683 CURVE SMOOTH",
"346 683 OFFCURVE",
"358 663 OFFCURVE",
"358 589 CURVE SMOOTH",
"358 500 OFFCURVE",
"341 479 OFFCURVE",
"235 464 CURVE",
"235 364 LINE",
"356 362 OFFCURVE",
"372 347 OFFCURVE",
"372 233 CURVE SMOOTH",
"372 156 OFFCURVE",
"364 123 OFFCURVE",
"319 123 CURVE SMOOTH",
"285 123 OFFCURVE",
"265 156 OFFCURVE",
"265 233 CURVE",
"106 233 LINE",
"106 68 OFFCURVE",
"172 -9 OFFCURVE",
"311 -9 CURVE SMOOTH"
);
}
);
width = 631;
},
{
associatedMasterId = "6463F33F-C059-4755-9C76-9F35D70521A0";
layerId = "E10EC336-1202-48FF-9A55-15876E80CDFD";
name = Italic;
paths = (
{
closed = 1;
nodes = (
"426 -9 OFFCURVE",
"543 121 OFFCURVE",
"543 299 CURVE SMOOTH",
"543 352 OFFCURVE",
"525 391 OFFCURVE",
"485 433 CURVE",
"521 461 OFFCURVE",
"608 530 OFFCURVE",
"608 666 CURVE SMOOTH",
"608 762 OFFCURVE",
"548 815 OFFCURVE",
"435 815 CURVE SMOOTH",
"297 815 OFFCURVE",
"211 735 OFFCURVE",
"177 573 CURVE",
"336 573 LINE",
"354 657 OFFCURVE",
"372 683 OFFCURVE",
"411 683 CURVE SMOOTH",
"435 683 OFFCURVE",
"446 674 OFFCURVE",
"446 645 CURVE SMOOTH",
"446 506 OFFCURVE",
"379 476 OFFCURVE",
"289 464 CURVE",
"267 364 LINE",
"356 362 OFFCURVE",
"387 353 OFFCURVE",
"387 304 CURVE SMOOTH",
"387 213 OFFCURVE",
"348 123 OFFCURVE",
"309 123 CURVE SMOOTH",
"267 123 OFFCURVE",
"253 156 OFFCURVE",
"270 233 CURVE",
"111 233 LINE",
"75 66 OFFCURVE",
"127 -9 OFFCURVE",
"264 -9 CURVE SMOOTH"
);
}
);
width = 708;
},
{
layerId = "6463F33F-C059-4755-9C76-9F35D70521A0";
paths = (
{
closed = 1;
nodes = (
"343 -9 OFFCURVE",
"400 77 OFFCURVE",
"400 221 CURVE SMOOTH",
"400 320 OFFCURVE",
"374 390 OFFCURVE",
"322 433 CURVE",
"375 489 OFFCURVE",
"397 550 OFFCURVE",
"397 632 CURVE SMOOTH",
"397 752 OFFCURVE",
"348 815 OFFCURVE",
"254 815 CURVE SMOOTH",
"149 815 OFFCURVE",
"100 737 OFFCURVE",
"100 573 CURVE",
"223 573 LINE",
"223 676 OFFCURVE",
"231 712 OFFCURVE",
"252 712 CURVE SMOOTH",
"268 712 OFFCURVE",
"273 689 OFFCURVE",
"273 614 CURVE SMOOTH",
"273 494 OFFCURVE",
"264 477 OFFCURVE",
"190 463 CURVE",
"190 364 LINE",
"267 360 OFFCURVE",
"279 338 OFFCURVE",
"279 203 CURVE SMOOTH",
"279 123 OFFCURVE",
"273 95 OFFCURVE",
"255 95 CURVE SMOOTH",
"235 95 OFFCURVE",
"226 136 OFFCURVE",
"226 233 CURVE",
"105 233 LINE",
"105 74 OFFCURVE",
"153 -9 OFFCURVE",
"247 -9 CURVE SMOOTH"
);
}
);
width = 500;
},
{
associatedMasterId = "6463F33F-C059-4755-9C76-9F35D70521A0";
layerId = "76CB9AE8-0A57-41E1-8298-8A82D157DF6D";
name = "Semi Expanded";
paths = (
{
closed = 1;
nodes = (
"514 -9 OFFCURVE",
"600 72 OFFCURVE",
"600 236 CURVE SMOOTH",
"600 322 OFFCURVE",
"576 366 OFFCURVE",
"499 433 CURVE",
"560 484 OFFCURVE",
"580 521 OFFCURVE",
"580 589 CURVE SMOOTH",
"580 734 OFFCURVE",
"492 815 OFFCURVE",
"335 815 CURVE SMOOTH",
"178 815 OFFCURVE",
"100 734 OFFCURVE",
"100 573 CURVE",
"278 573 LINE",
"278 647 OFFCURVE",
"292 668 OFFCURVE",
"341 668 CURVE SMOOTH",
"387 668 OFFCURVE",
"403 649 OFFCURVE",
"403 580 CURVE SMOOTH",
"403 502 OFFCURVE",
"382 480 OFFCURVE",
"259 465 CURVE",
"259 364 LINE",
"403 363 OFFCURVE",
"421 354 OFFCURVE",
"421 243 CURVE SMOOTH",
"421 159 OFFCURVE",
"412 138 OFFCURVE",
"366 138 CURVE SMOOTH",
"312 138 OFFCURVE",
"286 167 OFFCURVE",
"286 233 CURVE",
"107 233 LINE",
"107 65 OFFCURVE",
"182 -9 OFFCURVE",
"345 -9 CURVE SMOOTH"
);
}
);
width = 700;
},
{
associatedMasterId = "6463F33F-C059-4755-9C76-9F35D70521A0";
layerId = "A5A4D350-C0CB-4C36-867F-06890CC9F434";
name = "Semi Expanded Italic";
paths = (
{
closed = 1;
nodes = (
"486 -9 OFFCURVE",
"610 113 OFFCURVE",
"610 286 CURVE SMOOTH",
"610 349 OFFCURVE",
"590 384 OFFCURVE",
"544 433 CURVE",
"570 452 OFFCURVE",
"666 508 OFFCURVE",
"666 643 CURVE SMOOTH",
"666 758 OFFCURVE",
"594 815 OFFCURVE",
"462 815 CURVE SMOOTH",
"305 815 OFFCURVE",
"209 734 OFFCURVE",
"175 573 CURVE",
"353 573 LINE",
"369 647 OFFCURVE",
"389 668 OFFCURVE",
"438 668 CURVE SMOOTH",
"473 668 OFFCURVE",
"484 657 OFFCURVE",
"484 612 CURVE SMOOTH",
"484 497 OFFCURVE",
"413 477 OFFCURVE",
"311 465 CURVE",
"289 364 LINE",
"415 361 OFFCURVE",
"435 354 OFFCURVE",
"435 289 CURVE SMOOTH",
"435 199 OFFCURVE",
"397 138 OFFCURVE",
"338 138 CURVE SMOOTH",
"297 138 OFFCURVE",
"272 168 OFFCURVE",
"289 233 CURVE",
"110 233 LINE",
"74 71 OFFCURVE",
"131 -9 OFFCURVE",
"290 -9 CURVE SMOOTH"
);
}
);
width = 766;
}
);
},
{
color = 6;
glyphname = four.dnom;
lastChange = "2021-11-24 16:09:43 +0000";
layers = (
{
layerId = "1AB499B8-18A8-432D-A211-B6882CCB886D";
paths = (
{
closed = 1;
nodes = (
"424 0 LINE",
"424 175 LINE",
"499 175 LINE",
"499 293 LINE",
"424 293 LINE",
"424 803 LINE",
"262 803 LINE",
"25 278 LINE",
"25 175 LINE",
"276 175 LINE",
"276 0 LINE"
);
},
{
closed = 1;
nodes = (
"255 495 LINE",
"267 541 LINE",
"276 541 LINE",
"276 293 LINE",
"170 293 LINE"
);
}
);
width = 579;
},
{
associatedMasterId = "6463F33F-C059-4755-9C76-9F35D70521A0";
layerId = "E10EC336-1202-48FF-9A55-15876E80CDFD";
name = Italic;
paths = (
{
closed = 1;
nodes = (
"386 0 LINE",
"424 175 LINE",
"499 175 LINE",
"524 293 LINE",
"449 293 LINE",
"557 803 LINE",
"395 803 LINE",
"46 278 LINE",
"25 175 LINE",
"275 175 LINE",
"238 0 LINE"
);
},
{
closed = 1;
nodes = (
"322 495 LINE",
"344 541 LINE",
"353 541 LINE",
"301 293 LINE",
"195 293 LINE"
);
}
);
width = 657;
},
{
layerId = "6463F33F-C059-4755-9C76-9F35D70521A0";
paths = (
{
closed = 1;
nodes = (
"326 0 LINE",
"326 175 LINE",
"371 175 LINE",
"371 278 LINE",
"326 278 LINE",
"326 803 LINE",
"204 803 LINE",
"50 278 LINE",
"50 175 LINE",
"219 175 LINE",
"219 0 LINE"
);
},
{
closed = 1;
nodes = (
"220 535 LINE",
"221 563 LINE",
"222 563 LINE",
"222 278 LINE",
"155 278 LINE"
);
}
);
width = 471;
},
{
associatedMasterId = "6463F33F-C059-4755-9C76-9F35D70521A0";
layerId = "76CB9AE8-0A57-41E1-8298-8A82D157DF6D";
name = "Semi Expanded";
paths = (
{
closed = 1;
nodes = (
"464 0 LINE",
"464 175 LINE",
"555 175 LINE",
"555 301 LINE",
"464 301 LINE",
"464 803 LINE",
"281 803 LINE",
"0 278 LINE",
"0 175 LINE",
"295 175 LINE",
"295 0 LINE"
);
},
{
closed = 1;
nodes = (
"262 474 LINE",
"280 529 LINE",
"293 529 LINE",
"293 301 LINE",
"166 301 LINE"
);
}
);
width = 655;
},
{
associatedMasterId = "6463F33F-C059-4755-9C76-9F35D70521A0";
layerId = "A5A4D350-C0CB-4C36-867F-06890CC9F434";
name = "Semi Expanded Italic";
paths = (
{
closed = 1;
nodes = (
"450 0 LINE",
"489 175 LINE",
"579 175 LINE",
"606 301 LINE",
"515 301 LINE",
"621 803 LINE",
"438 803 LINE",
"45 278 LINE",
"25 175 LINE",
"317 175 LINE",
"281 0 LINE"
);
},
{
closed = 1;
nodes = (
"349 474 LINE",
"378 529 LINE",
"391 529 LINE",
"344 301 LINE",
"218 301 LINE"
);
}
);
width = 721;
}
);
},
{
color = 6;
glyphname = five.dnom;
lastChange = "2021-11-24 16:09:43 +0000";
layers = (
{
layerId = "1AB499B8-18A8-432D-A211-B6882CCB886D";
paths = (
{
closed = 1;
nodes = (
"441 -9 OFFCURVE",
"523 74 OFFCURVE",
"523 209 CURVE SMOOTH",
"523 377 LINE SMOOTH",
"523 473 OFFCURVE",
"450 546 OFFCURVE",
"354 546 CURVE SMOOTH",
"321 546 OFFCURVE",
"281 539 OFFCURVE",
"250 526 CURVE",
"250 671 LINE",
"502 671 LINE",
"502 803 LINE",
"111 803 LINE",
"111 365 LINE",
"247 365 LINE",
"247 399 OFFCURVE",
"272 424 OFFCURVE",
"304 424 CURVE SMOOTH",
"341 424 OFFCURVE",
"361 392 OFFCURVE",
"361 335 CURVE SMOOTH",
"361 254 LINE SMOOTH",
"361 167 OFFCURVE",
"345 124 OFFCURVE",
"312 124 CURVE SMOOTH",
"279 124 OFFCURVE",
"262 164 OFFCURVE",
"262 239 CURVE SMOOTH",
"262 249 LINE",
"100 249 LINE",
"100 79 OFFCURVE",
"171 -9 OFFCURVE",
"309 -9 CURVE SMOOTH"
);
}
);
width = 623;
},
{
associatedMasterId = "6463F33F-C059-4755-9C76-9F35D70521A0";
background = {
paths = (
{
closed = 1;
nodes = (
"480 -16 OFFCURVE",
"564 46 OFFCURVE",
"620 126 CURVE SMOOTH",
"674 204 OFFCURVE",
"698 298 OFFCURVE",
"714 368 CURVE SMOOTH",
"782 696 LINE",
"788 720 OFFCURVE",
"800 796 OFFCURVE",
"784 866 CURVE SMOOTH",
"766 936 OFFCURVE",
"720 1000 OFFCURVE",
"608 1000 CURVE SMOOTH",
"594 1002 OFFCURVE",
"578 1000 OFFCURVE",
"562 994 CURVE",
"530 984 OFFCURVE",
"502 968 OFFCURVE",
"472 950 CURVE",
"538 1256 LINE",
"874 1256 LINE",
"920 1470 LINE",
"398 1470 LINE",
"232 696 LINE",
"414 696 LINE",
"420 712 OFFCURVE",
"432 740 OFFCURVE",
"454 764 CURVE",
"476 786 OFFCURVE",
"498 804 OFFCURVE",
"522 804 CURVE SMOOTH",
"568 804 OFFCURVE",
"580 758 OFFCURVE",
"566 696 CURVE SMOOTH",
"498 368 LINE SMOOTH",
"490 330 OFFCURVE",
"482 300 OFFCURVE",
"474 274 CURVE",
"456 224 OFFCURVE",
"436 172 OFFCURVE",
"390 172 CURVE SMOOTH",
"364 172 OFFCURVE",
"350 186 OFFCURVE",
"346 216 CURVE SMOOTH",
"342 242 OFFCURVE",
"348 292 OFFCURVE",
"366 370 CURVE SMOOTH",
"378 428 LINE",
"162 428 LINE",
"140 330 OFFCURVE",
"120 220 OFFCURVE",
"142 134 CURVE",
"160 46 OFFCURVE",
"214 -16 OFFCURVE",
"350 -16 CURVE SMOOTH"
);
}
);
};
layerId = "E10EC336-1202-48FF-9A55-15876E80CDFD";
name = Italic;
paths = (
{
closed = 1;
nodes = (
"398 -9 OFFCURVE",
"498 74 OFFCURVE",
"526 209 CURVE SMOOTH",
"561 377 LINE SMOOTH",
"582 473 OFFCURVE",
"525 546 OFFCURVE",
"429 546 CURVE SMOOTH",
"396 546 OFFCURVE",
"354 539 OFFCURVE",
"320 526 CURVE",
"351 671 LINE",
"603 671 LINE",
"631 803 LINE",
"240 803 LINE",
"147 365 LINE",
"283 365 LINE",
"290 398 OFFCURVE",
"320 424 OFFCURVE",
"353 424 CURVE SMOOTH",
"389 424 OFFCURVE",
"402 392 OFFCURVE",
"390 335 CURVE SMOOTH",
"373 254 LINE SMOOTH",
"355 167 OFFCURVE",
"330 124 OFFCURVE",
"297 124 CURVE SMOOTH",
"264 124 OFFCURVE",
"254 164 OFFCURVE",
"271 239 CURVE SMOOTH",
"273 249 LINE",
"111 249 LINE",
"75 79 OFFCURVE",
"128 -9 OFFCURVE",
"265 -9 CURVE SMOOTH"
);
}
);
width = 731;
},
{
layerId = "6463F33F-C059-4755-9C76-9F35D70521A0";
paths = (
{
closed = 1;
nodes = (
"339 -9 OFFCURVE",
"394 67 OFFCURVE",
"394 205 CURVE SMOOTH",
"394 380 LINE SMOOTH",
"394 484 OFFCURVE",
"349 546 OFFCURVE",
"273 546 CURVE SMOOTH",
"241 546 OFFCURVE",
"218 536 OFFCURVE",
"217 520 CURVE",
"217 686 LINE",
"367 686 LINE",
"367 803 LINE",
"106 803 LINE",
"106 380 LINE",
"214 380 LINE",
"214 413 OFFCURVE",
"227 439 OFFCURVE",
"245 439 CURVE SMOOTH",
"262 439 OFFCURVE",
"272 416 OFFCURVE",
"272 380 CURVE SMOOTH",
"272 209 LINE SMOOTH",
"272 138 OFFCURVE",
"262 94 OFFCURVE",
"245 94 CURVE SMOOTH",
"229 94 OFFCURVE",
"223 129 OFFCURVE",
"223 209 CURVE SMOOTH",
"223 234 LINE",
"100 234 LINE",
"100 63 OFFCURVE",
"141 -9 OFFCURVE",
"239 -9 CURVE SMOOTH"
);
}
);
width = 494;
},
{
associatedMasterId = "6463F33F-C059-4755-9C76-9F35D70521A0";
layerId = "76CB9AE8-0A57-41E1-8298-8A82D157DF6D";
name = "Semi Expanded";
paths = (
{
closed = 1;
nodes = (
"495 -9 OFFCURVE",
"591 78 OFFCURVE",
"591 211 CURVE SMOOTH",
"591 375 LINE SMOOTH",
"591 467 OFFCURVE",
"505 546 OFFCURVE",
"392 546 CURVE SMOOTH",
"364 546 OFFCURVE",
"314 541 OFFCURVE",
"267 529 CURVE",
"267 663 LINE",
"573 663 LINE",
"573 803 LINE",
"114 803 LINE",
"114 357 LINE",
"264 357 LINE",
"264 392 OFFCURVE",
"296 416 OFFCURVE",
"335 416 CURVE SMOOTH",
"382 416 OFFCURVE",
"408 379 OFFCURVE",
"408 311 CURVE SMOOTH",
"408 278 LINE SMOOTH",
"408 237 OFFCURVE",
"408 140 OFFCURVE",
"346 140 CURVE SMOOTH",
"305 140 OFFCURVE",
"282 182 OFFCURVE",
"282 255 CURVE SMOOTH",
"282 257 LINE",
"100 257 LINE",
"100 87 OFFCURVE",
"187 -9 OFFCURVE",
"346 -9 CURVE SMOOTH"
);
}
);
width = 691;
},
{
associatedMasterId = "6463F33F-C059-4755-9C76-9F35D70521A0";
layerId = "A5A4D350-C0CB-4C36-867F-06890CC9F434";
name = "Semi Expanded Italic";
paths = (
{
closed = 1;
nodes = (
"450 -9 OFFCURVE",
"564 77 OFFCURVE",
"592 211 CURVE SMOOTH",
"626 375 LINE SMOOTH",
"645 467 OFFCURVE",
"578 546 OFFCURVE",
"465 546 CURVE SMOOTH",
"437 546 OFFCURVE",
"385 541 OFFCURVE",
"335 529 CURVE",
"364 663 LINE",
"670 663 LINE",
"699 803 LINE",
"240 803 LINE",
"145 357 LINE",
"296 357 LINE",
"303 390 OFFCURVE",
"339 416 OFFCURVE",
"380 416 CURVE SMOOTH",
"426 416 OFFCURVE",
"443 379 OFFCURVE",
"429 311 CURVE SMOOTH",
"422 278 LINE SMOOTH",
"414 239 OFFCURVE",
"393 140 OFFCURVE",
"333 140 CURVE SMOOTH",
"291 140 OFFCURVE",
"260 190 OFFCURVE",
"292 255 CURVE SMOOTH",
"293 257 LINE",
"110 257 LINE",
"74 87 OFFCURVE",
"141 -9 OFFCURVE",
"299 -9 CURVE SMOOTH"
);
}
);
width = 799;
}
);
},
{
color = 6;
glyphname = six.dnom;
lastChange = "2021-11-24 16:09:43 +0000";
layers = (
{
layerId = "1AB499B8-18A8-432D-A211-B6882CCB886D";
paths = (
{
closed = 1;
nodes = (
"450 -9 OFFCURVE",
"523 59 OFFCURVE",
"523 184 CURVE SMOOTH",
"523 338 LINE SMOOTH",
"523 436 OFFCURVE",
"456 500 OFFCURVE",
"355 500 CURVE SMOOTH",
"321 500 OFFCURVE",
"294 494 OFFCURVE",
"262 479 CURVE",
"262 573 LINE SMOOTH",
"262 667 OFFCURVE",
"280 682 OFFCURVE",
"311 682 CURVE SMOOTH",
"343 682 OFFCURVE",
"361 667 OFFCURVE",
"361 573 CURVE",
"523 573 LINE",
"523 613 LINE SMOOTH",
"523 740 OFFCURVE",
"444 815 OFFCURVE",
"309 815 CURVE SMOOTH",
"175 815 OFFCURVE",
"100 742 OFFCURVE",
"100 613 CURVE SMOOTH",
"100 184 LINE SMOOTH",
"100 62 OFFCURVE",
"180 -9 OFFCURVE",
"315 -9 CURVE SMOOTH"
);
},
{
closed = 1;
nodes = (
"280 124 OFFCURVE",
"263 144 OFFCURVE",
"263 181 CURVE SMOOTH",
"264 325 LINE SMOOTH",
"264 356 OFFCURVE",
"285 378 OFFCURVE",
"312 378 CURVE SMOOTH",
"340 378 OFFCURVE",
"361 356 OFFCURVE",
"361 325 CURVE SMOOTH",
"361 181 LINE SMOOTH",
"361 143 OFFCURVE",
"344 124 OFFCURVE",
"312 124 CURVE SMOOTH"
);
}
);
width = 623;
},
{
associatedMasterId = "6463F33F-C059-4755-9C76-9F35D70521A0";
layerId = "E10EC336-1202-48FF-9A55-15876E80CDFD";
name = Italic;
paths = (
{
closed = 1;
nodes = (
"414 -9 OFFCURVE",
"502 60 OFFCURVE",
"528 184 CURVE SMOOTH",
"561 338 LINE SMOOTH",
"582 436 OFFCURVE",
"528 500 OFFCURVE",
"428 500 CURVE SMOOTH",
"394 500 OFFCURVE",
"365 494 OFFCURVE",
"330 479 CURVE",
"359 613 LINE SMOOTH",
"369 663 OFFCURVE",
"388 682 OFFCURVE",
"428 682 CURVE SMOOTH",
"466 682 OFFCURVE",
"469 667 OFFCURVE",
"449 573 CURVE",
"611 573 LINE",
"619 613 LINE SMOOTH",
"645 740 OFFCURVE",
"584 815 OFFCURVE",
"449 815 CURVE SMOOTH",
"314 815 OFFCURVE",
"224 742 OFFCURVE",
"197 613 CURVE SMOOTH",
"105 184 LINE SMOOTH",
"80 64 OFFCURVE",
"142 -9 OFFCURVE",
"279 -9 CURVE SMOOTH"
);
},
{
closed = 1;
nodes = (
"272 124 OFFCURVE",
"259 144 OFFCURVE",
"267 181 CURVE SMOOTH",
"299 325 LINE SMOOTH",
"306 356 OFFCURVE",
"332 378 OFFCURVE",
"358 378 CURVE SMOOTH",
"386 378 OFFCURVE",
"403 356 OFFCURVE",
"396 325 CURVE SMOOTH",
"365 181 LINE SMOOTH",
"357 143 OFFCURVE",
"336 124 OFFCURVE",
"305 124 CURVE SMOOTH"
);
}
);
width = 725;
},
{
layerId = "6463F33F-C059-4755-9C76-9F35D70521A0";
paths = (
{
closed = 1;
nodes = (
"336 -9 OFFCURVE",
"400 62 OFFCURVE",
"400 169 CURVE SMOOTH",
"400 323 LINE SMOOTH",
"400 429 OFFCURVE",
"352 500 OFFCURVE",
"276 500 CURVE SMOOTH",
"250 500 OFFCURVE",
"229 492 OFFCURVE",
"225 480 CURVE",
"225 622 LINE SMOOTH",
"225 656 OFFCURVE",
"225 712 OFFCURVE",
"249 712 CURVE SMOOTH",
"271 712 OFFCURVE",
"276 670 OFFCURVE",
"276 573 CURVE",
"396 573 LINE",
"396 622 LINE SMOOTH",
"396 746 OFFCURVE",
"345 815 OFFCURVE",
"247 815 CURVE SMOOTH",
"152 815 OFFCURVE",
"100 749 OFFCURVE",
"100 622 CURVE SMOOTH",
"100 169 LINE SMOOTH",
"100 56 OFFCURVE",
"152 -9 OFFCURVE",
"242 -9 CURVE SMOOTH"
);
},
{
closed = 1;
nodes = (
"236 95 OFFCURVE",
"225 108 OFFCURVE",
"225 128 CURVE SMOOTH",
"227 364 LINE SMOOTH",
"227 392 OFFCURVE",
"236 408 OFFCURVE",
"252 408 CURVE SMOOTH",
"270 408 OFFCURVE",
"280 389 OFFCURVE",
"280 357 CURVE SMOOTH",
"280 128 LINE SMOOTH",
"280 110 OFFCURVE",
"267 95 OFFCURVE",
"252 95 CURVE SMOOTH"
);
}
);
width = 500;
},
{
associatedMasterId = "6463F33F-C059-4755-9C76-9F35D70521A0";
layerId = "76CB9AE8-0A57-41E1-8298-8A82D157DF6D";
name = "Semi Expanded";
paths = (
{
closed = 1;
nodes = (
"510 -9 OFFCURVE",
"588 57 OFFCURVE",
"588 192 CURVE SMOOTH",
"588 346 LINE SMOOTH",
"588 440 OFFCURVE",
"512 500 OFFCURVE",
"394 500 CURVE SMOOTH",
"359 500 OFFCURVE",
"329 495 OFFCURVE",
"282 478 CURVE",
"282 608 LINE SMOOTH",
"282 667 OFFCURVE",
"305 666 OFFCURVE",
"353 666 CURVE SMOOTH",
"400 666 OFFCURVE",
"406 665 OFFCURVE",
"406 573 CURVE",
"590 573 LINE",
"590 608 LINE SMOOTH",
"590 737 OFFCURVE",
"496 815 OFFCURVE",
"342 815 CURVE SMOOTH",
"187 815 OFFCURVE",
"100 738 OFFCURVE",
"100 608 CURVE SMOOTH",
"100 192 LINE SMOOTH",
"100 73 OFFCURVE",
"185 -9 OFFCURVE",
"356 -9 CURVE SMOOTH"
);
},
{
closed = 1;
nodes = (
"303 139 OFFCURVE",
"283 163 OFFCURVE",
"283 209 CURVE SMOOTH",
"284 304 LINE SMOOTH",
"284 337 OFFCURVE",
"311 362 OFFCURVE",
"344 362 CURVE SMOOTH",
"377 362 OFFCURVE",
"404 339 OFFCURVE",
"404 308 CURVE SMOOTH",
"404 209 LINE SMOOTH",
"404 189 OFFCURVE",
"404 139 OFFCURVE",
"344 139 CURVE SMOOTH"
);
}
);
width = 690;
},
{
associatedMasterId = "6463F33F-C059-4755-9C76-9F35D70521A0";
layerId = "A5A4D350-C0CB-4C36-867F-06890CC9F434";
name = "Semi Expanded Italic";
paths = (
{
closed = 1;
nodes = (
"468 -9 OFFCURVE",
"564 56 OFFCURVE",
"593 192 CURVE SMOOTH",
"626 346 LINE SMOOTH",
"646 440 OFFCURVE",
"582 500 OFFCURVE",
"465 500 CURVE SMOOTH",
"431 500 OFFCURVE",
"398 495 OFFCURVE",
"348 478 CURVE",
"376 608 LINE SMOOTH",
"388 666 OFFCURVE",
"412 666 OFFCURVE",
"458 666 CURVE SMOOTH",
"505 666 OFFCURVE",
"512 665 OFFCURVE",
"492 573 CURVE",
"676 573 LINE",
"683 608 LINE SMOOTH",
"709 736 OFFCURVE",
"636 815 OFFCURVE",
"481 815 CURVE SMOOTH",
"325 815 OFFCURVE",
"223 738 OFFCURVE",
"195 608 CURVE SMOOTH",
"105 192 LINE SMOOTH",
"78 68 OFFCURVE",
"154 -9 OFFCURVE",
"318 -9 CURVE SMOOTH"
);
},
{
closed = 1;
nodes = (
"296 139 OFFCURVE",
"282 163 OFFCURVE",
"292 209 CURVE SMOOTH",
"313 304 LINE SMOOTH",
"320 337 OFFCURVE",
"352 362 OFFCURVE",
"385 362 CURVE SMOOTH",
"417 362 OFFCURVE",
"440 339 OFFCURVE",
"433 308 CURVE SMOOTH",
"412 209 LINE SMOOTH",
"407 185 OFFCURVE",
"395 139 OFFCURVE",
"338 139 CURVE SMOOTH"
);
}
);
width = 788;
}
);
},
{
color = 6;
glyphname = seven.dnom;
lastChange = "2021-11-24 16:09:43 +0000";
layers = (
{
layerId = "1AB499B8-18A8-432D-A211-B6882CCB886D";
paths = (
{
closed = 1;
nodes = (
"346 0 LINE",
"508 685 LINE",
"508 803 LINE",
"100 803 LINE",
"100 663 LINE",
"338 663 LINE",
"178 0 LINE"
);
}
);
width = 608;
},
{
associatedMasterId = "6463F33F-C059-4755-9C76-9F35D70521A0";
layerId = "E10EC336-1202-48FF-9A55-15876E80CDFD";
name = Italic;
paths = (
{
closed = 1;
nodes = (
"268 0 LINE",
"576 685 LINE",
"600 803 LINE",
"192 803 LINE",
"163 663 LINE",
"401 663 LINE",
"100 0 LINE"
);
}
);
width = 700;
},
{
layerId = "6463F33F-C059-4755-9C76-9F35D70521A0";
paths = (
{
closed = 1;
nodes = (
"276 0 LINE",
"373 685 LINE",
"373 803 LINE",
"100 803 LINE",
"100 686 LINE",
"247 686 LINE",
"148 0 LINE"
);
}
);
width = 473;
},
{
associatedMasterId = "6463F33F-C059-4755-9C76-9F35D70521A0";
layerId = "76CB9AE8-0A57-41E1-8298-8A82D157DF6D";
name = "Semi Expanded";
paths = (
{
closed = 1;
nodes = (
"383 0 LINE",
"579 685 LINE",
"579 803 LINE",
"100 803 LINE",
"100 651 LINE",
"386 651 LINE",
"194 0 LINE"
);
}
);
width = 679;
},
{
associatedMasterId = "6463F33F-C059-4755-9C76-9F35D70521A0";
layerId = "A5A4D350-C0CB-4C36-867F-06890CC9F434";
name = "Semi Expanded Italic";
paths = (
{
closed = 1;
nodes = (
"289 0 LINE",
"631 685 LINE",
"655 803 LINE",
"176 803 LINE",
"144 651 LINE",
"430 651 LINE",
"100 0 LINE"
);
}
);
width = 755;
}
);
},
{
color = 6;
glyphname = eight.dnom;
lastChange = "2021-11-24 16:09:43 +0000";
layers = (
{
layerId = "1AB499B8-18A8-432D-A211-B6882CCB886D";
paths = (
{
closed = 1;
nodes = (
"448 -9 OFFCURVE",
"530 59 OFFCURVE",
"530 167 CURVE SMOOTH",
"530 272 LINE SMOOTH",
"530 345 OFFCURVE",
"506 389 OFFCURVE",
"447 425 CURVE",
"496 467 OFFCURVE",
"520 515 OFFCURVE",
"520 572 CURVE SMOOTH",
"520 647 LINE SMOOTH",
"520 741 OFFCURVE",
"430 815 OFFCURVE",
"315 815 CURVE SMOOTH",
"200 815 OFFCURVE",
"110 741 OFFCURVE",
"110 647 CURVE SMOOTH",
"110 572 LINE SMOOTH",
"110 515 OFFCURVE",
"134 467 OFFCURVE",
"183 425 CURVE",
"124 389 OFFCURVE",
"100 345 OFFCURVE",
"100 272 CURVE SMOOTH",
"100 167 LINE SMOOTH",
"100 59 OFFCURVE",
"182 -9 OFFCURVE",
"315 -9 CURVE SMOOTH"
);
},
{
closed = 1;
nodes = (
"281 104 OFFCURVE",
"264 126 OFFCURVE",
"264 175 CURVE SMOOTH",
"264 272 LINE SMOOTH",
"264 326 OFFCURVE",
"283 358 OFFCURVE",
"315 358 CURVE SMOOTH",
"347 358 OFFCURVE",
"366 326 OFFCURVE",
"366 272 CURVE SMOOTH",
"366 175 LINE SMOOTH",
"366 126 OFFCURVE",
"350 104 OFFCURVE",
"315 104 CURVE SMOOTH"
);
},
{
closed = 1;
nodes = (
"280 494 OFFCURVE",
"264 518 OFFCURVE",
"264 572 CURVE SMOOTH",
"264 632 LINE SMOOTH",
"264 678 OFFCURVE",
"282 703 OFFCURVE",
"315 703 CURVE SMOOTH",
"348 703 OFFCURVE",
"366 678 OFFCURVE",
"366 632 CURVE SMOOTH",
"366 572 LINE SMOOTH",
"366 518 OFFCURVE",
"350 494 OFFCURVE",
"315 494 CURVE SMOOTH"
);
}
);
width = 630;
},
{
associatedMasterId = "6463F33F-C059-4755-9C76-9F35D70521A0";
layerId = "E10EC336-1202-48FF-9A55-15876E80CDFD";
name = Italic;
paths = (
{
closed = 1;
nodes = (
"414 -9 OFFCURVE",
"511 59 OFFCURVE",
"535 167 CURVE SMOOTH",
"557 272 LINE SMOOTH",
"571 338 OFFCURVE",
"563 386 OFFCURVE",
"506 425 CURVE",
"564 467 OFFCURVE",
"598 515 OFFCURVE",
"610 572 CURVE SMOOTH",
"626 647 LINE SMOOTH",
"646 741 OFFCURVE",
"571 815 OFFCURVE",
"457 815 CURVE SMOOTH",
"343 815 OFFCURVE",
"236 741 OFFCURVE",
"217 647 CURVE SMOOTH",
"201 572 LINE SMOOTH",
"189 515 OFFCURVE",
"202 467 OFFCURVE",
"242 425 CURVE",
"174 389 OFFCURVE",
"142 344 OFFCURVE",
"127 272 CURVE SMOOTH",
"104 167 LINE SMOOTH",
"81 59 OFFCURVE",
"150 -9 OFFCURVE",
"282 -9 CURVE SMOOTH"
);
},
{
closed = 1;
nodes = (
"271 104 OFFCURVE",
"259 126 OFFCURVE",
"270 175 CURVE SMOOTH",
"291 272 LINE SMOOTH",
"302 325 OFFCURVE",
"327 358 OFFCURVE",
"360 358 CURVE SMOOTH",
"393 358 OFFCURVE",
"404 325 OFFCURVE",
"393 272 CURVE SMOOTH",
"372 175 LINE SMOOTH",
"361 126 OFFCURVE",
"340 104 OFFCURVE",
"306 104 CURVE SMOOTH"
);
},
{
closed = 1;
nodes = (
"348 494 OFFCURVE",
"345 525 OFFCURVE",
"355 572 CURVE SMOOTH",
"367 632 LINE SMOOTH",
"377 678 OFFCURVE",
"400 703 OFFCURVE",
"433 703 CURVE SMOOTH",
"466 703 OFFCURVE",
"479 678 OFFCURVE",
"469 632 CURVE SMOOTH",
"457 572 LINE SMOOTH",
"447 525 OFFCURVE",
"428 494 OFFCURVE",
"388 494 CURVE SMOOTH"
);
}
);
width = 729;
},
{
layerId = "6463F33F-C059-4755-9C76-9F35D70521A0";
paths = (
{
closed = 1;
nodes = (
"333 -9 OFFCURVE",
"394 65 OFFCURVE",
"394 183 CURVE SMOOTH",
"394 252 LINE SMOOTH",
"394 317 OFFCURVE",
"371 382 OFFCURVE",
"331 425 CURVE",
"373 463 OFFCURVE",
"390 527 OFFCURVE",
"390 587 CURVE SMOOTH",
"390 627 LINE SMOOTH",
"390 743 OFFCURVE",
"331 815 OFFCURVE",
"247 815 CURVE SMOOTH",
"163 815 OFFCURVE",
"105 742 OFFCURVE",
"105 627 CURVE SMOOTH",
"105 587 LINE SMOOTH",
"105 532 OFFCURVE",
"119 464 OFFCURVE",
"163 425 CURVE",
"120 386 OFFCURVE",
"100 320 OFFCURVE",
"100 252 CURVE SMOOTH",
"100 183 LINE SMOOTH",
"100 65 OFFCURVE",
"161 -9 OFFCURVE",
"247 -9 CURVE SMOOTH"
);
},
{
closed = 1;
nodes = (
"234 101 OFFCURVE",
"222 122 OFFCURVE",
"222 202 CURVE SMOOTH",
"222 254 LINE SMOOTH",
"222 330 OFFCURVE",
"229 361 OFFCURVE",
"247 361 CURVE SMOOTH",
"264 361 OFFCURVE",
"273 329 OFFCURVE",
"273 254 CURVE SMOOTH",
"273 202 LINE SMOOTH",
"273 120 OFFCURVE",
"261 101 OFFCURVE",
"247 101 CURVE SMOOTH"
);
},
{
closed = 1;
nodes = (
"234 481 OFFCURVE",
"222 506 OFFCURVE",
"222 602 CURVE SMOOTH",
"222 627 LINE SMOOTH",
"222 686 OFFCURVE",
"229 710 OFFCURVE",
"247 710 CURVE SMOOTH",
"265 710 OFFCURVE",
"273 686 OFFCURVE",
"273 627 CURVE SMOOTH",
"273 602 LINE SMOOTH",
"273 510 OFFCURVE",
"261 481 OFFCURVE",
"247 481 CURVE SMOOTH"
);
}
);
width = 494;
},
{
associatedMasterId = "6463F33F-C059-4755-9C76-9F35D70521A0";
layerId = "76CB9AE8-0A57-41E1-8298-8A82D157DF6D";
name = "Semi Expanded";
paths = (
{
closed = 1;
nodes = (
"509 -9 OFFCURVE",
"602 56 OFFCURVE",
"602 159 CURVE SMOOTH",
"602 283 LINE SMOOTH",
"602 360 OFFCURVE",
"577 393 OFFCURVE",
"508 425 CURVE",
"561 469 OFFCURVE",
"588 509 OFFCURVE",
"588 564 CURVE SMOOTH",
"588 658 LINE SMOOTH",
"588 740 OFFCURVE",
"482 815 OFFCURVE",
"351 815 CURVE SMOOTH",
"219 815 OFFCURVE",
"113 740 OFFCURVE",
"113 658 CURVE SMOOTH",
"113 564 LINE SMOOTH",
"113 506 OFFCURVE",
"142 469 OFFCURVE",
"194 425 CURVE",
"126 391 OFFCURVE",
"100 358 OFFCURVE",
"100 283 CURVE SMOOTH",
"100 159 LINE SMOOTH",
"100 56 OFFCURVE",
"193 -9 OFFCURVE",
"351 -9 CURVE SMOOTH"
);
},
{
closed = 1;
nodes = (
"306 106 OFFCURVE",
"286 128 OFFCURVE",
"286 161 CURVE SMOOTH",
"286 281 LINE SMOOTH",
"286 324 OFFCURVE",
"311 356 OFFCURVE",
"351 356 CURVE SMOOTH",
"391 356 OFFCURVE",
"415 324 OFFCURVE",
"415 281 CURVE SMOOTH",
"415 161 LINE SMOOTH",
"415 129 OFFCURVE",
"397 106 OFFCURVE",
"351 106 CURVE SMOOTH"
);
},
{
closed = 1;
nodes = (
"304 501 OFFCURVE",
"286 524 OFFCURVE",
"286 556 CURVE SMOOTH",
"286 635 LINE SMOOTH",
"286 674 OFFCURVE",
"310 699 OFFCURVE",
"351 699 CURVE SMOOTH",
"392 699 OFFCURVE",
"415 674 OFFCURVE",
"415 635 CURVE SMOOTH",
"415 556 LINE SMOOTH",
"415 522 OFFCURVE",
"397 501 OFFCURVE",
"351 501 CURVE SMOOTH"
);
}
);
width = 702;
},
{
associatedMasterId = "6463F33F-C059-4755-9C76-9F35D70521A0";
layerId = "A5A4D350-C0CB-4C36-867F-06890CC9F434";
name = "Semi Expanded Italic";
paths = (
{
closed = 1;
nodes = (
"476 -9 OFFCURVE",
"585 54 OFFCURVE",
"607 159 CURVE SMOOTH",
"633 283 LINE SMOOTH",
"646 346 OFFCURVE",
"644 388 OFFCURVE",
"569 425 CURVE",
"636 474 OFFCURVE",
"667 514 OFFCURVE",
"678 564 CURVE SMOOTH",
"699 658 LINE SMOOTH",
"718 742 OFFCURVE",
"624 815 OFFCURVE",
"495 815 CURVE SMOOTH",
"366 815 OFFCURVE",
"242 742 OFFCURVE",
"224 658 CURVE SMOOTH",
"204 564 LINE SMOOTH",
"194 516 OFFCURVE",
"209 473 OFFCURVE",
"254 425 CURVE",
"160 381 OFFCURVE",
"144 338 OFFCURVE",
"131 283 CURVE SMOOTH",
"104 159 LINE SMOOTH",
"81 54 OFFCURVE",
"165 -9 OFFCURVE",
"321 -9 CURVE SMOOTH"
);
},
{
closed = 1;
nodes = (
"279 106 OFFCURVE",
"287 142 OFFCURVE",
"291 161 CURVE SMOOTH",
"317 281 LINE SMOOTH",
"326 323 OFFCURVE",
"356 356 OFFCURVE",
"398 356 CURVE SMOOTH",
"439 356 OFFCURVE",
"454 326 OFFCURVE",
"445 281 CURVE SMOOTH",
"420 161 LINE SMOOTH",
"415 135 OFFCURVE",
"401 106 OFFCURVE",
"343 106 CURVE SMOOTH"
);
},
{
closed = 1;
nodes = (
"368 501 OFFCURVE",
"371 534 OFFCURVE",
"376 556 CURVE SMOOTH",
"392 635 LINE SMOOTH",
"400 674 OFFCURVE",
"429 699 OFFCURVE",
"470 699 CURVE SMOOTH",
"512 699 OFFCURVE",
"529 675 OFFCURVE",
"521 635 CURVE SMOOTH",
"505 556 LINE SMOOTH",
"499 525 OFFCURVE",
"479 501 OFFCURVE",
"428 501 CURVE SMOOTH"
);
}
);
width = 802;
}
);
},
{
color = 6;
glyphname = nine.dnom;
lastChange = "2021-11-24 16:09:43 +0000";
layers = (
{
layerId = "1AB499B8-18A8-432D-A211-B6882CCB886D";
paths = (
{
closed = 1;
nodes = (
"448 -9 OFFCURVE",
"523 64 OFFCURVE",
"523 193 CURVE SMOOTH",
"523 622 LINE SMOOTH",
"523 743 OFFCURVE",
"444 815 OFFCURVE",
"308 815 CURVE SMOOTH",
"174 815 OFFCURVE",
"100 746 OFFCURVE",
"100 622 CURVE SMOOTH",
"100 467 LINE SMOOTH",
"100 370 OFFCURVE",
"167 305 OFFCURVE",
"268 305 CURVE SMOOTH",
"302 305 OFFCURVE",
"329 311 OFFCURVE",
"361 327 CURVE",
"361 193 LINE SMOOTH",
"361 143 OFFCURVE",
"346 124 OFFCURVE",
"306 124 CURVE SMOOTH",
"268 124 OFFCURVE",
"262 139 OFFCURVE",
"262 233 CURVE",
"100 233 LINE",
"100 193 LINE SMOOTH",
"100 65 OFFCURVE",
"179 -9 OFFCURVE",
"314 -9 CURVE SMOOTH"
);
},
{
closed = 1;
nodes = (
"283 428 OFFCURVE",
"262 450 OFFCURVE",
"262 481 CURVE SMOOTH",
"262 625 LINE SMOOTH",
"262 662 OFFCURVE",
"279 682 OFFCURVE",
"311 682 CURVE SMOOTH",
"343 682 OFFCURVE",
"361 662 OFFCURVE",
"360 625 CURVE SMOOTH",
"359 481 LINE SMOOTH",
"359 450 OFFCURVE",
"339 428 OFFCURVE",
"312 428 CURVE SMOOTH"
);
}
);
width = 623;
},
{
associatedMasterId = "6463F33F-C059-4755-9C76-9F35D70521A0";
background = {
paths = (
{
closed = 1;
nodes = (
"470 -16 OFFCURVE",
"550 46 OFFCURVE",
"604 120 CURVE SMOOTH",
"658 192 OFFCURVE",
"676 278 OFFCURVE",
"690 332 CURVE",
"868 1168 LINE",
"874 1202 OFFCURVE",
"888 1282 OFFCURVE",
"864 1354 CURVE SMOOTH",
"842 1424 OFFCURVE",
"782 1486 OFFCURVE",
"652 1486 CURVE SMOOTH",
"516 1486 OFFCURVE",
"438 1424 OFFCURVE",
"384 1354 CURVE SMOOTH",
"330 1282 OFFCURVE",
"310 1202 OFFCURVE",
"304 1168 CURVE",
"242 882 LINE SMOOTH",
"234 842 OFFCURVE",
"220 762 OFFCURVE",
"238 696 CURVE SMOOTH",
"256 630 OFFCURVE",
"304 572 OFFCURVE",
"416 572 CURVE SMOOTH",
"454 572 OFFCURVE",
"490 586 OFFCURVE",
"532 608 CURVE",
"474 332 LINE SMOOTH",
"462 274 OFFCURVE",
"450 234 OFFCURVE",
"436 210 CURVE SMOOTH",
"420 184 OFFCURVE",
"400 172 OFFCURVE",
"374 172 CURVE SMOOTH",
"344 172 OFFCURVE",
"328 190 OFFCURVE",
"328 224 CURVE SMOOTH",
"328 262 OFFCURVE",
"340 326 OFFCURVE",
"362 424 CURVE",
"146 424 LINE",
"126 332 LINE",
"112 278 OFFCURVE",
"98 192 OFFCURVE",
"120 120 CURVE SMOOTH",
"142 46 OFFCURVE",
"198 -16 OFFCURVE",
"334 -16 CURVE SMOOTH"
);
},
{
closed = 1;
nodes = (
"448 740 OFFCURVE",
"436 788 OFFCURVE",
"442 806 CURVE",
"532 1232 LINE",
"538 1250 OFFCURVE",
"566 1298 OFFCURVE",
"612 1298 CURVE SMOOTH",
"662 1298 OFFCURVE",
"666 1250 OFFCURVE",
"664 1232 CURVE",
"574 800 LINE",
"566 778 OFFCURVE",
"540 740 OFFCURVE",
"494 740 CURVE SMOOTH"
);
}
);
};
layerId = "E10EC336-1202-48FF-9A55-15876E80CDFD";
name = Italic;
paths = (
{
closed = 1;
nodes = (
"412 -9 OFFCURVE",
"502 64 OFFCURVE",
"529 193 CURVE SMOOTH",
"621 622 LINE SMOOTH",
"646 740 OFFCURVE",
"585 815 OFFCURVE",
"446 815 CURVE SMOOTH",
"313 815 OFFCURVE",
"224 746 OFFCURVE",
"198 622 CURVE SMOOTH",
"165 467 LINE SMOOTH",
"144 370 OFFCURVE",
"198 305 OFFCURVE",
"298 305 CURVE SMOOTH",
"331 305 OFFCURVE",
"361 311 OFFCURVE",
"396 327 CURVE",
"367 193 LINE SMOOTH",
"357 142 OFFCURVE",
"337 124 OFFCURVE",
"298 124 CURVE SMOOTH",
"259 124 OFFCURVE",
"257 139 OFFCURVE",
"277 233 CURVE",
"115 233 LINE",
"106 193 LINE SMOOTH",
"80 65 OFFCURVE",
"142 -9 OFFCURVE",
"277 -9 CURVE SMOOTH"
);
},
{
closed = 1;
nodes = (
"340 428 OFFCURVE",
"323 450 OFFCURVE",
"330 481 CURVE SMOOTH",
"360 625 LINE SMOOTH",
"367 662 OFFCURVE",
"389 682 OFFCURVE",
"421 682 CURVE SMOOTH",
"453 682 OFFCURVE",
"467 662 OFFCURVE",
"459 625 CURVE SMOOTH",
"427 481 LINE SMOOTH",
"420 450 OFFCURVE",
"394 428 OFFCURVE",
"368 428 CURVE SMOOTH"
);
}
);
width = 726;
},
{
layerId = "6463F33F-C059-4755-9C76-9F35D70521A0";
paths = (
{
closed = 1;
nodes = (
"346 -9 OFFCURVE",
"400 56 OFFCURVE",
"400 184 CURVE SMOOTH",
"400 637 LINE SMOOTH",
"400 752 OFFCURVE",
"348 815 OFFCURVE",
"258 815 CURVE SMOOTH",
"168 815 OFFCURVE",
"100 750 OFFCURVE",
"100 637 CURVE SMOOTH",
"100 493 LINE SMOOTH",
"100 386 OFFCURVE",
"151 316 OFFCURVE",
"222 316 CURVE SMOOTH",
"248 316 OFFCURVE",
"270 320 OFFCURVE",
"276 336 CURVE",
"276 184 LINE SMOOTH",
"276 116 OFFCURVE",
"267 95 OFFCURVE",
"252 95 CURVE SMOOTH",
"235 95 OFFCURVE",
"225 108 OFFCURVE",
"225 233 CURVE",
"105 233 LINE",
"105 184 LINE SMOOTH",
"105 54 OFFCURVE",
"158 -9 OFFCURVE",
"252 -9 CURVE SMOOTH"
);
},
{
closed = 1;
nodes = (
"232 408 OFFCURVE",
"220 431 OFFCURVE",
"220 459 CURVE SMOOTH",
"220 665 LINE SMOOTH",
"220 691 OFFCURVE",
"232 712 OFFCURVE",
"249 712 CURVE SMOOTH",
"264 712 OFFCURVE",
"276 689 OFFCURVE",
"276 665 CURVE SMOOTH",
"276 455 LINE SMOOTH",
"276 429 OFFCURVE",
"264 408 OFFCURVE",
"249 408 CURVE SMOOTH"
);
}
);
width = 500;
},
{
associatedMasterId = "6463F33F-C059-4755-9C76-9F35D70521A0";
layerId = "76CB9AE8-0A57-41E1-8298-8A82D157DF6D";
name = "Semi Expanded";
paths = (
{
closed = 1;
nodes = (
"504 -9 OFFCURVE",
"590 68 OFFCURVE",
"590 198 CURVE SMOOTH",
"590 614 LINE SMOOTH",
"590 734 OFFCURVE",
"502 815 OFFCURVE",
"336 815 CURVE SMOOTH",
"180 815 OFFCURVE",
"103 744 OFFCURVE",
"103 614 CURVE SMOOTH",
"103 453 LINE SMOOTH",
"103 362 OFFCURVE",
"178 299 OFFCURVE",
"295 299 CURVE SMOOTH",
"333 299 OFFCURVE",
"363 306 OFFCURVE",
"408 322 CURVE",
"408 198 LINE SMOOTH",
"408 177 OFFCURVE",
"408 139 OFFCURVE",
"335 139 CURVE SMOOTH",
"288 139 OFFCURVE",
"284 155 OFFCURVE",
"284 233 CURVE",
"100 233 LINE",
"100 198 LINE SMOOTH",
"100 71 OFFCURVE",
"193 -9 OFFCURVE",
"349 -9 CURVE SMOOTH"
);
},
{
closed = 1;
nodes = (
"313 439 OFFCURVE",
"287 460 OFFCURVE",
"287 493 CURVE SMOOTH",
"287 604 LINE SMOOTH",
"287 621 OFFCURVE",
"287 666 OFFCURVE",
"347 666 CURVE SMOOTH",
"409 666 OFFCURVE",
"407 619 OFFCURVE",
"407 604 CURVE SMOOTH",
"405 495 LINE SMOOTH",
"404 461 OFFCURVE",
"382 439 OFFCURVE",
"347 439 CURVE SMOOTH"
);
}
);
width = 690;
},
{
associatedMasterId = "6463F33F-C059-4755-9C76-9F35D70521A0";
layerId = "A5A4D350-C0CB-4C36-867F-06890CC9F434";
name = "Semi Expanded Italic";
paths = (
{
closed = 1;
nodes = (
"466 -9 OFFCURVE",
"568 67 OFFCURVE",
"596 198 CURVE SMOOTH",
"685 614 LINE SMOOTH",
"711 735 OFFCURVE",
"637 815 OFFCURVE",
"472 815 CURVE SMOOTH",
"315 815 OFFCURVE",
"226 742 OFFCURVE",
"198 614 CURVE SMOOTH",
"163 453 LINE SMOOTH",
"143 360 OFFCURVE",
"207 299 OFFCURVE",
"322 299 CURVE SMOOTH",
"356 299 OFFCURVE",
"390 304 OFFCURVE",
"441 322 CURVE",
"414 198 LINE SMOOTH",
"400 135 OFFCURVE",
"380 139 OFFCURVE",
"326 139 CURVE SMOOTH",
"280 139 OFFCURVE",
"279 145 OFFCURVE",
"298 233 CURVE",
"114 233 LINE",
"106 198 LINE SMOOTH",
"77 70 OFFCURVE",
"155 -9 OFFCURVE",
"311 -9 CURVE SMOOTH"
);
},
{
closed = 1;
nodes = (
"371 439 OFFCURVE",
"348 461 OFFCURVE",
"355 493 CURVE SMOOTH",
"378 604 LINE SMOOTH",
"383 630 OFFCURVE",
"397 666 OFFCURVE",
"453 666 CURVE SMOOTH",
"493 666 OFFCURVE",
"510 647 OFFCURVE",
"500 604 CURVE SMOOTH",
"475 495 LINE SMOOTH",
"467 461 OFFCURVE",
"436 439 OFFCURVE",
"404 439 CURVE SMOOTH"
);
}
);
width = 790;
}
);
},
{
color = 10;
glyphname = zero.numr;
lastChange = "2021-11-24 16:09:43 +0000";
layers = (
{
components = (
{
name = zero.dnom;
transform = "{1, 0, 0, 1, 0, 601}";
}
);
layerId = "1AB499B8-18A8-432D-A211-B6882CCB886D";
width = 626;
},
{
associatedMasterId = "6463F33F-C059-4755-9C76-9F35D70521A0";
layerId = "E10EC336-1202-48FF-9A55-15876E80CDFD";
name = Italic;
paths = (
{
closed = 1;
nodes = (
"403 591 OFFCURVE",
"504 660 OFFCURVE",
"531 784 CURVE SMOOTH",
"624 1222 LINE SMOOTH",
"650 1345 OFFCURVE",
"578 1415 OFFCURVE",
"452 1415 CURVE SMOOTH",
"326 1415 OFFCURVE",
"225 1345 OFFCURVE",
"198 1222 CURVE SMOOTH",
"105 784 LINE SMOOTH",
"81 666 OFFCURVE",
"147 591 OFFCURVE",
"277 591 CURVE SMOOTH"
);
},
{
closed = 1;
nodes = (
"274 736 OFFCURVE",
"258 758 OFFCURVE",
"268 806 CURVE SMOOTH",
"352 1200 LINE SMOOTH",
"362 1246 OFFCURVE",
"387 1271 OFFCURVE",
"421 1271 CURVE SMOOTH",
"455 1271 OFFCURVE",
"470 1247 OFFCURVE",
"460 1200 CURVE SMOOTH",
"376 806 LINE SMOOTH",
"366 761 OFFCURVE",
"341 736 OFFCURVE",
"307 736 CURVE SMOOTH"
);
}
);
width = 729;
},
{
components = (
{
name = zero.dnom;
transform = "{1, 0, 0, 1, 0, 601}";
}
);
layerId = "6463F33F-C059-4755-9C76-9F35D70521A0";
width = 501;
},
{
associatedMasterId = "6463F33F-C059-4755-9C76-9F35D70521A0";
layerId = "76CB9AE8-0A57-41E1-8298-8A82D157DF6D";
name = "Semi Expanded";
paths = (
{
closed = 1;
nodes = (
"485 591 OFFCURVE",
"591 660 OFFCURVE",
"591 792 CURVE SMOOTH",
"591 1214 LINE SMOOTH",
"591 1343 OFFCURVE",
"488 1415 OFFCURVE",
"345 1415 CURVE SMOOTH",
"202 1415 OFFCURVE",
"100 1343 OFFCURVE",
"100 1214 CURVE SMOOTH",
"100 792 LINE SMOOTH",
"100 673 OFFCURVE",
"195 591 OFFCURVE",
"346 591 CURVE SMOOTH"
);
},
{
closed = 1;
nodes = (
"302 751 OFFCURVE",
"275 772 OFFCURVE",
"275 825 CURVE SMOOTH",
"275 1181 LINE SMOOTH",
"275 1231 OFFCURVE",
"301 1256 OFFCURVE",
"344 1256 CURVE SMOOTH",
"387 1256 OFFCURVE",
"414 1232 OFFCURVE",
"414 1181 CURVE SMOOTH",
"414 825 LINE SMOOTH",
"414 776 OFFCURVE",
"387 751 OFFCURVE",
"344 751 CURVE SMOOTH"
);
}
);
width = 691;
},
{
associatedMasterId = "6463F33F-C059-4755-9C76-9F35D70521A0";
layerId = "A5A4D350-C0CB-4C36-867F-06890CC9F434";
name = "Semi Expanded Italic";
paths = (
{
closed = 1;
nodes = (
"449 591 OFFCURVE",
"567 662 OFFCURVE",
"595 792 CURVE SMOOTH",
"685 1214 LINE SMOOTH",
"712 1339 OFFCURVE",
"629 1415 OFFCURVE",
"482 1415 CURVE SMOOTH",
"339 1415 OFFCURVE",
"221 1343 OFFCURVE",
"194 1214 CURVE SMOOTH",
"105 792 LINE SMOOTH",
"80 673 OFFCURVE",
"156 591 OFFCURVE",
"308 591 CURVE SMOOTH"
);
},
{
closed = 1;
nodes = (
"296 751 OFFCURVE",
"275 772 OFFCURVE",
"286 825 CURVE SMOOTH",
"362 1181 LINE SMOOTH",
"373 1231 OFFCURVE",
"403 1256 OFFCURVE",
"447 1256 CURVE SMOOTH",
"491 1256 OFFCURVE",
"512 1232 OFFCURVE",
"501 1181 CURVE SMOOTH",
"424 825 LINE SMOOTH",
"413 776 OFFCURVE",
"384 751 OFFCURVE",
"339 751 CURVE SMOOTH"
);
}
);
width = 790;
}
);
},
{
color = 10;
glyphname = one.numr;
lastChange = "2021-11-24 16:09:43 +0000";
layers = (
{
components = (
{
alignment = -1;
name = one.dnom;
transform = "{1, 0, 0, 1, 0, 600}";
}
);
guideLines = (
{
position = "{208, 600}";
}
);
layerId = "1AB499B8-18A8-432D-A211-B6882CCB886D";
width = 470;
},
{
associatedMasterId = "6463F33F-C059-4755-9C76-9F35D70521A0";
layerId = "E10EC336-1202-48FF-9A55-15876E80CDFD";
name = Italic;
paths = (
{
closed = 1;
nodes = (
"262 600 LINE",
"432 1403 LINE",
"335 1403 LINE",
"329 1394 OFFCURVE",
"313 1380 OFFCURVE",
"290 1363 CURVE SMOOTH",
"246 1331 OFFCURVE",
"214 1318 OFFCURVE",
"143 1308 CURVE",
"126 1229 LINE",
"234 1229 LINE",
"100 600 LINE"
);
}
);
width = 532;
},
{
components = (
{
alignment = -1;
name = one.dnom;
transform = "{1, 0, 0, 1, 0, 600}";
}
);
layerId = "6463F33F-C059-4755-9C76-9F35D70521A0";
width = 389;
},
{
associatedMasterId = "6463F33F-C059-4755-9C76-9F35D70521A0";
layerId = "76CB9AE8-0A57-41E1-8298-8A82D157DF6D";
name = "Semi Expanded";
paths = (
{
closed = 1;
nodes = (
"413 600 LINE",
"413 1403 LINE",
"309 1403 LINE",
"304 1396 OFFCURVE",
"278 1376 OFFCURVE",
"264 1364 CURVE SMOOTH",
"212 1323 OFFCURVE",
"172 1319 OFFCURVE",
"100 1310 CURVE",
"100 1229 LINE",
"231 1229 LINE",
"231 600 LINE"
);
}
);
width = 513;
},
{
associatedMasterId = "6463F33F-C059-4755-9C76-9F35D70521A0";
layerId = "A5A4D350-C0CB-4C36-867F-06890CC9F434";
name = "Semi Expanded Italic";
paths = (
{
closed = 1;
nodes = (
"282 600 LINE",
"452 1403 LINE",
"348 1403 LINE",
"345 1401 OFFCURVE",
"344 1396 OFFCURVE",
"296 1365 CURVE SMOOTH",
"239 1328 OFFCURVE",
"215 1321 OFFCURVE",
"121 1310 CURVE",
"103 1229 LINE",
"234 1229 LINE",
"100 600 LINE"
);
}
);
width = 552;
}
);
},
{
color = 10;
glyphname = two.numr;
lastChange = "2021-11-24 16:09:43 +0000";
layers = (
{
components = (
{
name = two.dnom;
transform = "{1, 0, 0, 1, 0, 600}";
}
);
layerId = "1AB499B8-18A8-432D-A211-B6882CCB886D";
width = 641;
},
{
associatedMasterId = "6463F33F-C059-4755-9C76-9F35D70521A0";
layerId = "E10EC336-1202-48FF-9A55-15876E80CDFD";
name = Italic;
paths = (
{
closed = 1;
nodes = (
"539 600 LINE",
"567 732 LINE",
"321 732 LINE",
"575 1007 OFFCURVE",
"673 1126 OFFCURVE",
"673 1271 CURVE SMOOTH",
"673 1367 OFFCURVE",
"613 1415 OFFCURVE",
"493 1415 CURVE SMOOTH",
"354 1415 OFFCURVE",
"262 1340 OFFCURVE",
"233 1206 CURVE SMOOTH",
"221 1151 LINE",
"383 1151 LINE",
"395 1206 LINE SMOOTH",
"406 1256 OFFCURVE",
"420 1283 OFFCURVE",
"465 1283 CURVE SMOOTH",
"499 1283 OFFCURVE",
"515 1253 OFFCURVE",
"503 1204 CURVE SMOOTH",
"473 1082 OFFCURVE",
"366 944 OFFCURVE",
"124 717 CURVE",
"100 600 LINE"
);
}
);
width = 773;
},
{
components = (
{
name = two.dnom;
transform = "{1, 0, 0, 1, 0, 600}";
}
);
layerId = "6463F33F-C059-4755-9C76-9F35D70521A0";
width = 498;
},
{
associatedMasterId = "6463F33F-C059-4755-9C76-9F35D70521A0";
layerId = "76CB9AE8-0A57-41E1-8298-8A82D157DF6D";
name = "Semi Expanded";
paths = (
{
closed = 1;
nodes = (
"617 600 LINE",
"617 740 LINE",
"323 740 LINE",
"570 1036 OFFCURVE",
"608 1090 OFFCURVE",
"608 1191 CURVE SMOOTH",
"608 1339 OFFCURVE",
"526 1415 OFFCURVE",
"357 1415 CURVE SMOOTH",
"191 1415 OFFCURVE",
"104 1342 OFFCURVE",
"104 1206 CURVE SMOOTH",
"104 1151 LINE",
"286 1151 LINE",
"286 1206 LINE SMOOTH",
"286 1273 OFFCURVE",
"306 1272 OFFCURVE",
"355 1271 CURVE SMOOTH",
"399 1270 OFFCURVE",
"425 1242 OFFCURVE",
"425 1181 CURVE SMOOTH",
"425 1060 OFFCURVE",
"334 972 OFFCURVE",
"100 717 CURVE",
"100 600 LINE"
);
}
);
width = 717;
},
{
associatedMasterId = "6463F33F-C059-4755-9C76-9F35D70521A0";
layerId = "A5A4D350-C0CB-4C36-867F-06890CC9F434";
name = "Semi Expanded Italic";
paths = (
{
closed = 1;
nodes = (
"617 600 LINE",
"647 740 LINE",
"352 740 LINE",
"662 1036 OFFCURVE",
"742 1109 OFFCURVE",
"742 1245 CURVE SMOOTH",
"742 1362 OFFCURVE",
"674 1415 OFFCURVE",
"531 1415 CURVE SMOOTH",
"365 1415 OFFCURVE",
"263 1343 OFFCURVE",
"233 1206 CURVE SMOOTH",
"221 1151 LINE",
"403 1151 LINE",
"415 1206 LINE SMOOTH",
"423 1244 OFFCURVE",
"430 1271 OFFCURVE",
"486 1271 CURVE SMOOTH",
"545 1271 OFFCURVE",
"567 1240 OFFCURVE",
"546 1166 CURVE SMOOTH",
"512 1046 OFFCURVE",
"419 979 OFFCURVE",
"124 717 CURVE",
"100 600 LINE"
);
}
);
width = 842;
}
);
},
{
color = 10;
glyphname = three.numr;
lastChange = "2021-11-24 16:09:43 +0000";
layers = (
{
components = (
{
name = three.dnom;
transform = "{1, 0, 0, 1, 0, 600}";
}
);
layerId = "1AB499B8-18A8-432D-A211-B6882CCB886D";
width = 631;
},
{
associatedMasterId = "6463F33F-C059-4755-9C76-9F35D70521A0";
layerId = "E10EC336-1202-48FF-9A55-15876E80CDFD";
name = Italic;
paths = (
{
closed = 1;
nodes = (
"426 591 OFFCURVE",
"543 721 OFFCURVE",
"543 899 CURVE SMOOTH",
"543 952 OFFCURVE",
"525 991 OFFCURVE",
"485 1033 CURVE",
"521 1061 OFFCURVE",
"608 1130 OFFCURVE",
"608 1266 CURVE SMOOTH",
"608 1362 OFFCURVE",
"548 1415 OFFCURVE",
"435 1415 CURVE SMOOTH",
"297 1415 OFFCURVE",
"211 1335 OFFCURVE",
"177 1173 CURVE",
"336 1173 LINE",
"354 1257 OFFCURVE",
"372 1283 OFFCURVE",
"411 1283 CURVE SMOOTH",
"435 1283 OFFCURVE",
"446 1274 OFFCURVE",
"446 1245 CURVE SMOOTH",
"446 1106 OFFCURVE",
"379 1076 OFFCURVE",
"289 1064 CURVE",
"267 964 LINE",
"356 962 OFFCURVE",
"387 953 OFFCURVE",
"387 904 CURVE SMOOTH",
"387 813 OFFCURVE",
"348 723 OFFCURVE",
"309 723 CURVE SMOOTH",
"267 723 OFFCURVE",
"253 756 OFFCURVE",
"270 833 CURVE",
"111 833 LINE",
"75 666 OFFCURVE",
"127 591 OFFCURVE",
"264 591 CURVE SMOOTH"
);
}
);
width = 708;
},
{
components = (
{
name = three.dnom;
transform = "{1, 0, 0, 1, 0, 600}";
}
);
layerId = "6463F33F-C059-4755-9C76-9F35D70521A0";
width = 500;
},
{
associatedMasterId = "6463F33F-C059-4755-9C76-9F35D70521A0";
layerId = "76CB9AE8-0A57-41E1-8298-8A82D157DF6D";
name = "Semi Expanded";
paths = (
{
closed = 1;
nodes = (
"514 591 OFFCURVE",
"600 672 OFFCURVE",
"600 836 CURVE SMOOTH",
"600 922 OFFCURVE",
"576 966 OFFCURVE",
"499 1033 CURVE",
"560 1084 OFFCURVE",
"580 1121 OFFCURVE",
"580 1189 CURVE SMOOTH",
"580 1334 OFFCURVE",
"492 1415 OFFCURVE",
"335 1415 CURVE SMOOTH",
"178 1415 OFFCURVE",
"100 1334 OFFCURVE",
"100 1173 CURVE",
"278 1173 LINE",
"278 1247 OFFCURVE",
"292 1268 OFFCURVE",
"341 1268 CURVE SMOOTH",
"387 1268 OFFCURVE",
"403 1249 OFFCURVE",
"403 1180 CURVE SMOOTH",
"403 1102 OFFCURVE",
"382 1080 OFFCURVE",
"259 1065 CURVE",
"259 964 LINE",
"403 963 OFFCURVE",
"421 954 OFFCURVE",
"421 843 CURVE SMOOTH",
"421 759 OFFCURVE",
"412 738 OFFCURVE",
"366 738 CURVE SMOOTH",
"312 738 OFFCURVE",
"286 767 OFFCURVE",
"286 833 CURVE",
"107 833 LINE",
"107 665 OFFCURVE",
"182 591 OFFCURVE",
"345 591 CURVE SMOOTH"
);
}
);
width = 700;
},
{
associatedMasterId = "6463F33F-C059-4755-9C76-9F35D70521A0";
layerId = "A5A4D350-C0CB-4C36-867F-06890CC9F434";
name = "Semi Expanded Italic";
paths = (
{
closed = 1;
nodes = (
"486 591 OFFCURVE",
"610 713 OFFCURVE",
"610 886 CURVE SMOOTH",
"610 949 OFFCURVE",
"590 984 OFFCURVE",
"544 1033 CURVE",
"570 1052 OFFCURVE",
"666 1108 OFFCURVE",
"666 1243 CURVE SMOOTH",
"666 1358 OFFCURVE",
"594 1415 OFFCURVE",
"462 1415 CURVE SMOOTH",
"305 1415 OFFCURVE",
"209 1334 OFFCURVE",
"175 1173 CURVE",
"353 1173 LINE",
"369 1247 OFFCURVE",
"389 1268 OFFCURVE",
"438 1268 CURVE SMOOTH",
"473 1268 OFFCURVE",
"484 1257 OFFCURVE",
"484 1212 CURVE SMOOTH",
"484 1097 OFFCURVE",
"413 1077 OFFCURVE",
"311 1065 CURVE",
"289 964 LINE",
"415 961 OFFCURVE",
"435 954 OFFCURVE",
"435 889 CURVE SMOOTH",
"435 799 OFFCURVE",
"397 738 OFFCURVE",
"338 738 CURVE SMOOTH",
"297 738 OFFCURVE",
"272 768 OFFCURVE",
"289 833 CURVE",
"110 833 LINE",
"74 671 OFFCURVE",
"131 591 OFFCURVE",
"290 591 CURVE SMOOTH"
);
}
);
width = 766;
}
);
},
{
color = 10;
glyphname = four.numr;
lastChange = "2021-11-24 16:09:43 +0000";
layers = (
{
components = (
{
name = four.dnom;
transform = "{1, 0, 0, 1, 0, 600}";
}
);
layerId = "1AB499B8-18A8-432D-A211-B6882CCB886D";
width = 579;
},
{
associatedMasterId = "6463F33F-C059-4755-9C76-9F35D70521A0";
layerId = "E10EC336-1202-48FF-9A55-15876E80CDFD";
name = Italic;
paths = (
{
closed = 1;
nodes = (
"461 600 LINE",
"499 775 LINE",
"574 775 LINE",
"599 893 LINE",
"524 893 LINE",
"632 1403 LINE",
"470 1403 LINE",
"121 878 LINE",
"100 775 LINE",
"350 775 LINE",
"313 600 LINE"
);
},
{
closed = 1;
nodes = (
"397 1095 LINE",
"419 1141 LINE",
"428 1141 LINE",
"376 893 LINE",
"270 893 LINE"
);
}
);
width = 732;
},
{
components = (
{
name = four.dnom;
transform = "{1, 0, 0, 1, 0, 600}";
}
);
layerId = "6463F33F-C059-4755-9C76-9F35D70521A0";
width = 471;
},
{
associatedMasterId = "6463F33F-C059-4755-9C76-9F35D70521A0";
layerId = "76CB9AE8-0A57-41E1-8298-8A82D157DF6D";
name = "Semi Expanded";
paths = (
{
closed = 1;
nodes = (
"564 600 LINE",
"564 775 LINE",
"655 775 LINE",
"655 901 LINE",
"564 901 LINE",
"564 1403 LINE",
"381 1403 LINE",
"100 878 LINE",
"100 775 LINE",
"395 775 LINE",
"395 600 LINE"
);
},
{
closed = 1;
nodes = (
"362 1074 LINE",
"380 1129 LINE",
"393 1129 LINE",
"393 901 LINE",
"266 901 LINE"
);
}
);
width = 755;
},
{
associatedMasterId = "6463F33F-C059-4755-9C76-9F35D70521A0";
layerId = "A5A4D350-C0CB-4C36-867F-06890CC9F434";
name = "Semi Expanded Italic";
paths = (
{
closed = 1;
nodes = (
"525 600 LINE",
"564 775 LINE",
"654 775 LINE",
"681 901 LINE",
"590 901 LINE",
"696 1403 LINE",
"513 1403 LINE",
"120 878 LINE",
"100 775 LINE",
"392 775 LINE",
"356 600 LINE"
);
},
{
closed = 1;
nodes = (
"424 1074 LINE",
"453 1129 LINE",
"466 1129 LINE",
"419 901 LINE",
"293 901 LINE"
);
}
);
width = 796;
}
);
},
{
color = 10;
glyphname = five.numr;
lastChange = "2021-11-24 16:09:43 +0000";
layers = (
{
components = (
{
name = five.dnom;
transform = "{1, 0, 0, 1, 0, 600}";
}
);
layerId = "1AB499B8-18A8-432D-A211-B6882CCB886D";
width = 623;
},
{
associatedMasterId = "6463F33F-C059-4755-9C76-9F35D70521A0";
background = {
paths = (
{
closed = 1;
nodes = (
"480 -16 OFFCURVE",
"564 46 OFFCURVE",
"620 126 CURVE SMOOTH",
"674 204 OFFCURVE",
"698 298 OFFCURVE",
"714 368 CURVE SMOOTH",
"782 696 LINE",
"788 720 OFFCURVE",
"800 796 OFFCURVE",
"784 866 CURVE SMOOTH",
"766 936 OFFCURVE",
"720 1000 OFFCURVE",
"608 1000 CURVE SMOOTH",
"594 1002 OFFCURVE",
"578 1000 OFFCURVE",
"562 994 CURVE",
"530 984 OFFCURVE",
"502 968 OFFCURVE",
"472 950 CURVE",
"538 1256 LINE",
"874 1256 LINE",
"920 1470 LINE",
"398 1470 LINE",
"232 696 LINE",
"414 696 LINE",
"420 712 OFFCURVE",
"432 740 OFFCURVE",
"454 764 CURVE",
"476 786 OFFCURVE",
"498 804 OFFCURVE",
"522 804 CURVE SMOOTH",
"568 804 OFFCURVE",
"580 758 OFFCURVE",
"566 696 CURVE SMOOTH",
"498 368 LINE SMOOTH",
"490 330 OFFCURVE",
"482 300 OFFCURVE",
"474 274 CURVE",
"456 224 OFFCURVE",
"436 172 OFFCURVE",
"390 172 CURVE SMOOTH",
"364 172 OFFCURVE",
"350 186 OFFCURVE",
"346 216 CURVE SMOOTH",
"342 242 OFFCURVE",
"348 292 OFFCURVE",
"366 370 CURVE SMOOTH",
"378 428 LINE",
"162 428 LINE",
"140 330 OFFCURVE",
"120 220 OFFCURVE",
"142 134 CURVE",
"160 46 OFFCURVE",
"214 -16 OFFCURVE",
"350 -16 CURVE SMOOTH"
);
}
);
};
layerId = "E10EC336-1202-48FF-9A55-15876E80CDFD";
name = Italic;
paths = (
{
closed = 1;
nodes = (
"398 591 OFFCURVE",
"498 674 OFFCURVE",
"526 809 CURVE SMOOTH",
"561 977 LINE SMOOTH",
"582 1073 OFFCURVE",
"525 1146 OFFCURVE",
"429 1146 CURVE SMOOTH",
"396 1146 OFFCURVE",
"354 1139 OFFCURVE",
"320 1126 CURVE",
"351 1271 LINE",
"603 1271 LINE",
"631 1403 LINE",
"240 1403 LINE",
"147 965 LINE",
"283 965 LINE",
"290 998 OFFCURVE",
"320 1024 OFFCURVE",
"353 1024 CURVE SMOOTH",
"389 1024 OFFCURVE",
"402 992 OFFCURVE",
"390 935 CURVE SMOOTH",
"373 854 LINE SMOOTH",
"355 767 OFFCURVE",
"330 724 OFFCURVE",
"297 724 CURVE SMOOTH",
"264 724 OFFCURVE",
"254 764 OFFCURVE",
"271 839 CURVE SMOOTH",
"273 849 LINE",
"111 849 LINE",
"75 679 OFFCURVE",
"128 591 OFFCURVE",
"265 591 CURVE SMOOTH"
);
}
);
width = 731;
},
{
components = (
{
name = five.dnom;
transform = "{1, 0, 0, 1, 0, 600}";
}
);
layerId = "6463F33F-C059-4755-9C76-9F35D70521A0";
width = 494;
},
{
associatedMasterId = "6463F33F-C059-4755-9C76-9F35D70521A0";
layerId = "76CB9AE8-0A57-41E1-8298-8A82D157DF6D";
name = "Semi Expanded";
paths = (
{
closed = 1;
nodes = (
"495 591 OFFCURVE",
"591 678 OFFCURVE",
"591 811 CURVE SMOOTH",
"591 975 LINE SMOOTH",
"591 1067 OFFCURVE",
"505 1146 OFFCURVE",
"392 1146 CURVE SMOOTH",
"364 1146 OFFCURVE",
"314 1141 OFFCURVE",
"267 1129 CURVE",
"267 1263 LINE",
"573 1263 LINE",
"573 1403 LINE",
"114 1403 LINE",
"114 957 LINE",
"264 957 LINE",
"264 992 OFFCURVE",
"296 1016 OFFCURVE",
"335 1016 CURVE SMOOTH",
"382 1016 OFFCURVE",
"408 979 OFFCURVE",
"408 911 CURVE SMOOTH",
"408 878 LINE SMOOTH",
"408 837 OFFCURVE",
"408 740 OFFCURVE",
"346 740 CURVE SMOOTH",
"305 740 OFFCURVE",
"282 782 OFFCURVE",
"282 855 CURVE SMOOTH",
"282 857 LINE",
"100 857 LINE",
"100 687 OFFCURVE",
"187 591 OFFCURVE",
"346 591 CURVE SMOOTH"
);
}
);
width = 691;
},
{
associatedMasterId = "6463F33F-C059-4755-9C76-9F35D70521A0";
layerId = "A5A4D350-C0CB-4C36-867F-06890CC9F434";
name = "Semi Expanded Italic";
paths = (
{
closed = 1;
nodes = (
"450 591 OFFCURVE",
"564 677 OFFCURVE",
"592 811 CURVE SMOOTH",
"626 975 LINE SMOOTH",
"645 1067 OFFCURVE",
"578 1146 OFFCURVE",
"465 1146 CURVE SMOOTH",
"437 1146 OFFCURVE",
"385 1141 OFFCURVE",
"335 1129 CURVE",
"364 1263 LINE",
"670 1263 LINE",
"699 1403 LINE",
"240 1403 LINE",
"145 957 LINE",
"296 957 LINE",
"303 990 OFFCURVE",
"339 1016 OFFCURVE",
"380 1016 CURVE SMOOTH",
"426 1016 OFFCURVE",
"443 979 OFFCURVE",
"429 911 CURVE SMOOTH",
"422 878 LINE SMOOTH",
"414 839 OFFCURVE",
"393 740 OFFCURVE",
"333 740 CURVE SMOOTH",
"291 740 OFFCURVE",
"260 790 OFFCURVE",
"292 855 CURVE SMOOTH",
"293 857 LINE",
"110 857 LINE",
"74 687 OFFCURVE",
"141 591 OFFCURVE",
"299 591 CURVE SMOOTH"
);
}
);
width = 799;
}
);
},
{
color = 10;
glyphname = six.numr;
lastChange = "2021-11-24 16:09:43 +0000";
layers = (
{
components = (
{
name = six.dnom;
transform = "{1, 0, 0, 1, 0, 600}";
}
);
layerId = "1AB499B8-18A8-432D-A211-B6882CCB886D";
width = 623;
},
{
associatedMasterId = "6463F33F-C059-4755-9C76-9F35D70521A0";
layerId = "E10EC336-1202-48FF-9A55-15876E80CDFD";
name = Italic;
paths = (
{
closed = 1;
nodes = (
"414 591 OFFCURVE",
"502 660 OFFCURVE",
"528 784 CURVE SMOOTH",
"561 938 LINE SMOOTH",
"582 1036 OFFCURVE",
"528 1100 OFFCURVE",
"428 1100 CURVE SMOOTH",
"394 1100 OFFCURVE",
"365 1094 OFFCURVE",
"330 1079 CURVE",
"359 1213 LINE SMOOTH",
"369 1263 OFFCURVE",
"388 1282 OFFCURVE",
"428 1282 CURVE SMOOTH",
"466 1282 OFFCURVE",
"469 1267 OFFCURVE",
"449 1173 CURVE",
"611 1173 LINE",
"619 1213 LINE SMOOTH",
"645 1340 OFFCURVE",
"584 1415 OFFCURVE",
"449 1415 CURVE SMOOTH",
"314 1415 OFFCURVE",
"224 1342 OFFCURVE",
"197 1213 CURVE SMOOTH",
"105 784 LINE SMOOTH",
"80 664 OFFCURVE",
"142 591 OFFCURVE",
"279 591 CURVE SMOOTH"
);
},
{
closed = 1;
nodes = (
"272 724 OFFCURVE",
"259 744 OFFCURVE",
"267 781 CURVE SMOOTH",
"299 925 LINE SMOOTH",
"306 956 OFFCURVE",
"332 978 OFFCURVE",
"358 978 CURVE SMOOTH",
"386 978 OFFCURVE",
"403 956 OFFCURVE",
"396 925 CURVE SMOOTH",
"365 781 LINE SMOOTH",
"357 743 OFFCURVE",
"336 724 OFFCURVE",
"305 724 CURVE SMOOTH"
);
}
);
width = 725;
},
{
components = (
{
name = six.dnom;
transform = "{1, 0, 0, 1, 0, 600}";
}
);
layerId = "6463F33F-C059-4755-9C76-9F35D70521A0";
width = 500;
},
{
associatedMasterId = "6463F33F-C059-4755-9C76-9F35D70521A0";
layerId = "76CB9AE8-0A57-41E1-8298-8A82D157DF6D";
name = "Semi Expanded";
paths = (
{
closed = 1;
nodes = (
"510 591 OFFCURVE",
"588 657 OFFCURVE",
"588 792 CURVE SMOOTH",
"588 946 LINE SMOOTH",
"588 1040 OFFCURVE",
"512 1100 OFFCURVE",
"394 1100 CURVE SMOOTH",
"359 1100 OFFCURVE",
"329 1095 OFFCURVE",
"282 1078 CURVE",
"282 1208 LINE SMOOTH",
"282 1267 OFFCURVE",
"305 1266 OFFCURVE",
"353 1266 CURVE SMOOTH",
"400 1266 OFFCURVE",
"406 1265 OFFCURVE",
"406 1173 CURVE",
"590 1173 LINE",
"590 1208 LINE SMOOTH",
"590 1337 OFFCURVE",
"496 1415 OFFCURVE",
"342 1415 CURVE SMOOTH",
"187 1415 OFFCURVE",
"100 1338 OFFCURVE",
"100 1208 CURVE SMOOTH",
"100 792 LINE SMOOTH",
"100 673 OFFCURVE",
"185 591 OFFCURVE",
"356 591 CURVE SMOOTH"
);
},
{
closed = 1;
nodes = (
"303 739 OFFCURVE",
"283 763 OFFCURVE",
"283 809 CURVE SMOOTH",
"284 904 LINE SMOOTH",
"284 937 OFFCURVE",
"311 962 OFFCURVE",
"344 962 CURVE SMOOTH",
"377 962 OFFCURVE",
"404 939 OFFCURVE",
"404 908 CURVE SMOOTH",
"404 809 LINE SMOOTH",
"404 789 OFFCURVE",
"404 739 OFFCURVE",
"344 739 CURVE SMOOTH"
);
}
);
width = 690;
},
{
associatedMasterId = "6463F33F-C059-4755-9C76-9F35D70521A0";
layerId = "A5A4D350-C0CB-4C36-867F-06890CC9F434";
name = "Semi Expanded Italic";
paths = (
{
closed = 1;
nodes = (
"468 591 OFFCURVE",
"564 656 OFFCURVE",
"593 792 CURVE SMOOTH",
"626 946 LINE SMOOTH",
"646 1040 OFFCURVE",
"582 1100 OFFCURVE",
"465 1100 CURVE SMOOTH",
"431 1100 OFFCURVE",
"398 1095 OFFCURVE",
"348 1078 CURVE",
"376 1208 LINE SMOOTH",
"388 1266 OFFCURVE",
"412 1266 OFFCURVE",
"458 1266 CURVE SMOOTH",
"505 1266 OFFCURVE",
"512 1265 OFFCURVE",
"492 1173 CURVE",
"676 1173 LINE",
"683 1208 LINE SMOOTH",
"709 1336 OFFCURVE",
"636 1415 OFFCURVE",
"481 1415 CURVE SMOOTH",
"325 1415 OFFCURVE",
"223 1338 OFFCURVE",
"195 1208 CURVE SMOOTH",
"105 792 LINE SMOOTH",
"78 668 OFFCURVE",
"154 591 OFFCURVE",
"318 591 CURVE SMOOTH"
);
},
{
closed = 1;
nodes = (
"296 739 OFFCURVE",
"282 763 OFFCURVE",
"292 809 CURVE SMOOTH",
"313 904 LINE SMOOTH",
"320 937 OFFCURVE",
"352 962 OFFCURVE",
"385 962 CURVE SMOOTH",
"417 962 OFFCURVE",
"440 939 OFFCURVE",
"433 908 CURVE SMOOTH",
"412 809 LINE SMOOTH",
"407 785 OFFCURVE",
"395 739 OFFCURVE",
"338 739 CURVE SMOOTH"
);
}
);
width = 788;
}
);
},
{
color = 10;
glyphname = seven.numr;
lastChange = "2021-11-24 16:09:43 +0000";
layers = (
{
components = (
{
name = seven.dnom;
transform = "{1, 0, 0, 1, 0, 600}";
}
);
layerId = "1AB499B8-18A8-432D-A211-B6882CCB886D";
width = 608;
},
{
associatedMasterId = "6463F33F-C059-4755-9C76-9F35D70521A0";
layerId = "E10EC336-1202-48FF-9A55-15876E80CDFD";
name = Italic;
paths = (
{
closed = 1;
nodes = (
"268 600 LINE",
"576 1285 LINE",
"600 1403 LINE",
"192 1403 LINE",
"163 1263 LINE",
"401 1263 LINE",
"100 600 LINE"
);
}
);
width = 700;
},
{
components = (
{
name = seven.dnom;
transform = "{1, 0, 0, 1, 0, 600}";
}
);
layerId = "6463F33F-C059-4755-9C76-9F35D70521A0";
width = 473;
},
{
associatedMasterId = "6463F33F-C059-4755-9C76-9F35D70521A0";
layerId = "76CB9AE8-0A57-41E1-8298-8A82D157DF6D";
name = "Semi Expanded";
paths = (
{
closed = 1;
nodes = (
"383 600 LINE",
"579 1285 LINE",
"579 1403 LINE",
"100 1403 LINE",
"100 1251 LINE",
"386 1251 LINE",
"194 600 LINE"
);
}
);
width = 679;
},
{
associatedMasterId = "6463F33F-C059-4755-9C76-9F35D70521A0";
layerId = "A5A4D350-C0CB-4C36-867F-06890CC9F434";
name = "Semi Expanded Italic";
paths = (
{
closed = 1;
nodes = (
"289 600 LINE",
"631 1285 LINE",
"655 1403 LINE",
"176 1403 LINE",
"144 1251 LINE",
"430 1251 LINE",
"100 600 LINE"
);
}
);
width = 755;
}
);
},
